;TYPE=PLATED
;Layer: PTH_Through
;EasyEDA Pro v1.7.27, 2022-07-12 11:29:46
;Gerber Generator version 0.3
M48
METRIC,LZ,000.000
;Hole size 1 = 0.305 METRIC
T01C0.305
;Hole size 2 = 0.800 METRIC
T02C0.800
;Hole size 3 = 0.914 METRIC
T03C0.914
;Hole size 4 = 1.000 METRIC
T04C1.000
;Hole size 5 = 1.000 METRIC
T05C1.000
;Hole size 6 = 1.000 METRIC
T06C1.000
%
G05
G90
T01
X049403Y019304
X057404Y026543
X010795Y001143
X040804Y007345
X027686Y016891
X074930Y018415
T02
X061420Y022860
X059420Y022860
X057420Y022860
X055420Y022860
T03
X088519Y009104
X088519Y006604
X088519Y004104
T04
X021717Y026289G85X021717Y026289
X024257Y026289G85X024257Y026289
X026797Y026289G85X026797Y026289
X009017Y026289G85X009017Y026289
X011557Y026289G85X011557Y026289
X014097Y026289G85X014097Y026289
X016637Y026289G85X016637Y026289
X019177Y026289G85X019177Y026289
X009017Y003429G85X009017Y003429
X011557Y003429G85X011557Y003429
X014097Y003429G85X014097Y003429
X016637Y003429G85X016637Y003429
X019177Y003429G85X019177Y003429
X021717Y003429G85X021717Y003429
X024257Y003429G85X024257Y003429
X026797Y003429G85X026797Y003429
T05
X067183Y025052
X067183Y016352
X067146Y003929
X067146Y012629
X088773Y017583
X088773Y027883
X071120Y026670
X071120Y003810
X085090Y003810
X085090Y026670
X081915Y003810
X074295Y003810
T06
X036449Y026289
X036449Y023749
X036449Y021209
X036449Y018669
X036449Y016129
X036449Y013589
X036449Y011049
X036449Y008509
X036449Y005969
X036449Y003429
X053213Y003175
X055753Y003175
X058293Y003175
X060833Y003175
X063373Y003175
X085090Y023368
X085090Y020447
M30