G04 Layer: DrillDrawingLayer*
G04 EasyEDA Pro v1.7.27, 2022-07-12 11:29:45*
G04 Gerber Generator version 0.3*
G04 Scale: 100 percent, Rotated: No, Reflected: No*
G04 Dimensions in millimeters*
G04 Leading zeros omitted, absolute positions, 3 integers and 3 decimals*
%FSLAX33Y33*%
%MOMM*%
%ADD10C,0.254*%
G75*


G04 Image Start*
G36*
G01X88320Y9304D02*
G01X88320Y9267D01*
G01X88356D01*
G01X88682D01*
G01Y8941D01*
G01X88356D01*
G01Y9267D01*
G01X88320D01*
G01Y8905D01*
G01X88719D01*
G01Y9304D01*
G37*
G36*
G01X88320Y6804D02*
G01X88320Y6767D01*
G01X88356D01*
G01X88682D01*
G01Y6441D01*
G01X88356D01*
G01Y6767D01*
G01X88320D01*
G01Y6405D01*
G01X88719D01*
G01Y6804D01*
G37*
G36*
G01X88320Y4303D02*
G01X88320Y4267D01*
G01X88356D01*
G01X88682D01*
G01Y3941D01*
G01X88356D01*
G01Y4267D01*
G01X88320D01*
G01Y3904D01*
G01X88719D01*
G01Y4303D01*
G37*
G36*
G01X61420Y23060D02*
G01X61399Y23058D01*
G01X61380Y23056D01*
G01X61361Y23051D01*
G01X61343Y23044D01*
G01X61325Y23035D01*
G01X61308Y23025D01*
G01X61293Y23014D01*
G01X61279Y23001D01*
G01X61266Y22987D01*
G01X61255Y22971D01*
G01X61244Y22955D01*
G01X61236Y22938D01*
G01X61230Y22919D01*
G01X61225Y22900D01*
G01X61222Y22880D01*
G01X61221Y22860D01*
G01X61254D01*
G01X61255Y22877D01*
G01X61257Y22894D01*
G01X61261Y22909D01*
G01X61267Y22925D01*
G01X61274Y22939D01*
G01X61282Y22953D01*
G01X61292Y22966D01*
G01X61302Y22977D01*
G01X61315Y22988D01*
G01X61327Y22998D01*
G01X61341Y23006D01*
G01X61355Y23013D01*
G01X61370Y23018D01*
G01X61387Y23023D01*
G01X61403Y23025D01*
G01X61420Y23026D01*
G01X61437Y23025D01*
G01X61453Y23023D01*
G01X61470Y23018D01*
G01X61485Y23013D01*
G01X61499Y23006D01*
G01X61513Y22998D01*
G01X61525Y22988D01*
G01X61538Y22977D01*
G01X61548Y22966D01*
G01X61558Y22953D01*
G01X61566Y22939D01*
G01X61573Y22925D01*
G01X61579Y22909D01*
G01X61583Y22894D01*
G01X61585Y22877D01*
G01X61586Y22860D01*
G01X61585Y22843D01*
G01X61583Y22826D01*
G01X61579Y22811D01*
G01X61573Y22795D01*
G01X61566Y22781D01*
G01X61558Y22767D01*
G01X61548Y22754D01*
G01X61538Y22743D01*
G01X61525Y22732D01*
G01X61513Y22722D01*
G01X61499Y22714D01*
G01X61485Y22707D01*
G01X61470Y22702D01*
G01X61453Y22697D01*
G01X61437Y22695D01*
G01X61420Y22694D01*
G01X61403Y22695D01*
G01X61387Y22697D01*
G01X61370Y22702D01*
G01X61355Y22707D01*
G01X61341Y22714D01*
G01X61327Y22722D01*
G01X61315Y22732D01*
G01X61302Y22743D01*
G01X61292Y22754D01*
G01X61282Y22767D01*
G01X61274Y22781D01*
G01X61267Y22795D01*
G01X61261Y22811D01*
G01X61257Y22826D01*
G01X61255Y22843D01*
G01X61254Y22860D01*
G01X61221D01*
G01X61222Y22840D01*
G01X61225Y22820D01*
G01X61230Y22801D01*
G01X61236Y22782D01*
G01X61244Y22765D01*
G01X61255Y22749D01*
G01X61266Y22733D01*
G01X61279Y22719D01*
G01X61293Y22706D01*
G01X61308Y22695D01*
G01X61325Y22685D01*
G01X61343Y22676D01*
G01X61361Y22670D01*
G01X61380Y22664D01*
G01X61399Y22662D01*
G01X61420Y22661D01*
G01X61441Y22662D01*
G01X61460Y22664D01*
G01X61479Y22670D01*
G01X61497Y22676D01*
G01X61515Y22685D01*
G01X61532Y22695D01*
G01X61547Y22706D01*
G01X61561Y22719D01*
G01X61574Y22733D01*
G01X61585Y22749D01*
G01X61596Y22765D01*
G01X61604Y22782D01*
G01X61610Y22801D01*
G01X61615Y22820D01*
G01X61618Y22840D01*
G01X61619Y22860D01*
G01X61618Y22880D01*
G01X61615Y22900D01*
G01X61610Y22919D01*
G01X61604Y22938D01*
G01X61596Y22955D01*
G01X61585Y22971D01*
G01X61574Y22987D01*
G01X61561Y23001D01*
G01X61547Y23014D01*
G01X61532Y23025D01*
G01X61515Y23035D01*
G01X61497Y23044D01*
G01X61479Y23051D01*
G01X61460Y23056D01*
G01X61441Y23058D01*
G37*
G36*
G01X59420Y23060D02*
G01X59399Y23058D01*
G01X59380Y23056D01*
G01X59361Y23051D01*
G01X59343Y23044D01*
G01X59325Y23035D01*
G01X59308Y23025D01*
G01X59293Y23014D01*
G01X59279Y23001D01*
G01X59266Y22987D01*
G01X59255Y22971D01*
G01X59244Y22955D01*
G01X59236Y22938D01*
G01X59230Y22919D01*
G01X59225Y22900D01*
G01X59222Y22880D01*
G01X59221Y22860D01*
G01X59254D01*
G01X59255Y22877D01*
G01X59257Y22894D01*
G01X59261Y22909D01*
G01X59267Y22925D01*
G01X59274Y22939D01*
G01X59282Y22953D01*
G01X59292Y22966D01*
G01X59302Y22977D01*
G01X59315Y22988D01*
G01X59327Y22998D01*
G01X59341Y23006D01*
G01X59355Y23013D01*
G01X59370Y23018D01*
G01X59387Y23023D01*
G01X59403Y23025D01*
G01X59420Y23026D01*
G01X59437Y23025D01*
G01X59453Y23023D01*
G01X59470Y23018D01*
G01X59485Y23013D01*
G01X59499Y23006D01*
G01X59513Y22998D01*
G01X59525Y22988D01*
G01X59538Y22977D01*
G01X59548Y22966D01*
G01X59558Y22953D01*
G01X59566Y22939D01*
G01X59573Y22925D01*
G01X59579Y22909D01*
G01X59583Y22894D01*
G01X59585Y22877D01*
G01X59586Y22860D01*
G01X59585Y22843D01*
G01X59583Y22826D01*
G01X59579Y22811D01*
G01X59573Y22795D01*
G01X59566Y22781D01*
G01X59558Y22767D01*
G01X59548Y22754D01*
G01X59538Y22743D01*
G01X59525Y22732D01*
G01X59513Y22722D01*
G01X59499Y22714D01*
G01X59485Y22707D01*
G01X59470Y22702D01*
G01X59453Y22697D01*
G01X59437Y22695D01*
G01X59420Y22694D01*
G01X59403Y22695D01*
G01X59387Y22697D01*
G01X59370Y22702D01*
G01X59355Y22707D01*
G01X59341Y22714D01*
G01X59327Y22722D01*
G01X59315Y22732D01*
G01X59302Y22743D01*
G01X59292Y22754D01*
G01X59282Y22767D01*
G01X59274Y22781D01*
G01X59267Y22795D01*
G01X59261Y22811D01*
G01X59257Y22826D01*
G01X59255Y22843D01*
G01X59254Y22860D01*
G01X59221D01*
G01X59222Y22840D01*
G01X59225Y22820D01*
G01X59230Y22801D01*
G01X59236Y22782D01*
G01X59244Y22765D01*
G01X59255Y22749D01*
G01X59266Y22733D01*
G01X59279Y22719D01*
G01X59293Y22706D01*
G01X59308Y22695D01*
G01X59325Y22685D01*
G01X59343Y22676D01*
G01X59361Y22670D01*
G01X59380Y22664D01*
G01X59399Y22662D01*
G01X59420Y22661D01*
G01X59441Y22662D01*
G01X59460Y22664D01*
G01X59479Y22670D01*
G01X59497Y22676D01*
G01X59515Y22685D01*
G01X59532Y22695D01*
G01X59547Y22706D01*
G01X59561Y22719D01*
G01X59574Y22733D01*
G01X59585Y22749D01*
G01X59596Y22765D01*
G01X59604Y22782D01*
G01X59610Y22801D01*
G01X59615Y22820D01*
G01X59618Y22840D01*
G01X59619Y22860D01*
G01X59618Y22880D01*
G01X59615Y22900D01*
G01X59610Y22919D01*
G01X59604Y22938D01*
G01X59596Y22955D01*
G01X59585Y22971D01*
G01X59574Y22987D01*
G01X59561Y23001D01*
G01X59547Y23014D01*
G01X59532Y23025D01*
G01X59515Y23035D01*
G01X59497Y23044D01*
G01X59479Y23051D01*
G01X59460Y23056D01*
G01X59441Y23058D01*
G37*
G36*
G01X57420Y23060D02*
G01X57399Y23058D01*
G01X57380Y23056D01*
G01X57361Y23051D01*
G01X57343Y23044D01*
G01X57325Y23035D01*
G01X57308Y23025D01*
G01X57293Y23014D01*
G01X57279Y23001D01*
G01X57266Y22987D01*
G01X57255Y22971D01*
G01X57244Y22955D01*
G01X57236Y22938D01*
G01X57230Y22919D01*
G01X57225Y22900D01*
G01X57222Y22880D01*
G01X57221Y22860D01*
G01X57254D01*
G01X57255Y22877D01*
G01X57257Y22894D01*
G01X57261Y22909D01*
G01X57267Y22925D01*
G01X57274Y22939D01*
G01X57282Y22953D01*
G01X57292Y22966D01*
G01X57302Y22977D01*
G01X57315Y22988D01*
G01X57327Y22998D01*
G01X57341Y23006D01*
G01X57355Y23013D01*
G01X57370Y23018D01*
G01X57387Y23023D01*
G01X57403Y23025D01*
G01X57420Y23026D01*
G01X57437Y23025D01*
G01X57453Y23023D01*
G01X57470Y23018D01*
G01X57485Y23013D01*
G01X57499Y23006D01*
G01X57513Y22998D01*
G01X57525Y22988D01*
G01X57538Y22977D01*
G01X57548Y22966D01*
G01X57558Y22953D01*
G01X57566Y22939D01*
G01X57573Y22925D01*
G01X57579Y22909D01*
G01X57583Y22894D01*
G01X57585Y22877D01*
G01X57586Y22860D01*
G01X57585Y22843D01*
G01X57583Y22826D01*
G01X57579Y22811D01*
G01X57573Y22795D01*
G01X57566Y22781D01*
G01X57558Y22767D01*
G01X57548Y22754D01*
G01X57538Y22743D01*
G01X57525Y22732D01*
G01X57513Y22722D01*
G01X57499Y22714D01*
G01X57485Y22707D01*
G01X57470Y22702D01*
G01X57453Y22697D01*
G01X57437Y22695D01*
G01X57420Y22694D01*
G01X57403Y22695D01*
G01X57387Y22697D01*
G01X57370Y22702D01*
G01X57355Y22707D01*
G01X57341Y22714D01*
G01X57327Y22722D01*
G01X57315Y22732D01*
G01X57302Y22743D01*
G01X57292Y22754D01*
G01X57282Y22767D01*
G01X57274Y22781D01*
G01X57267Y22795D01*
G01X57261Y22811D01*
G01X57257Y22826D01*
G01X57255Y22843D01*
G01X57254Y22860D01*
G01X57221D01*
G01X57222Y22840D01*
G01X57225Y22820D01*
G01X57230Y22801D01*
G01X57236Y22782D01*
G01X57244Y22765D01*
G01X57255Y22749D01*
G01X57266Y22733D01*
G01X57279Y22719D01*
G01X57293Y22706D01*
G01X57308Y22695D01*
G01X57325Y22685D01*
G01X57343Y22676D01*
G01X57361Y22670D01*
G01X57380Y22664D01*
G01X57399Y22662D01*
G01X57420Y22661D01*
G01X57441Y22662D01*
G01X57460Y22664D01*
G01X57479Y22670D01*
G01X57497Y22676D01*
G01X57515Y22685D01*
G01X57532Y22695D01*
G01X57547Y22706D01*
G01X57561Y22719D01*
G01X57574Y22733D01*
G01X57585Y22749D01*
G01X57596Y22765D01*
G01X57604Y22782D01*
G01X57610Y22801D01*
G01X57615Y22820D01*
G01X57618Y22840D01*
G01X57619Y22860D01*
G01X57618Y22880D01*
G01X57615Y22900D01*
G01X57610Y22919D01*
G01X57604Y22938D01*
G01X57596Y22955D01*
G01X57585Y22971D01*
G01X57574Y22987D01*
G01X57561Y23001D01*
G01X57547Y23014D01*
G01X57532Y23025D01*
G01X57515Y23035D01*
G01X57497Y23044D01*
G01X57479Y23051D01*
G01X57460Y23056D01*
G01X57441Y23058D01*
G37*
G36*
G01X55420Y23060D02*
G01X55399Y23058D01*
G01X55380Y23056D01*
G01X55361Y23051D01*
G01X55343Y23044D01*
G01X55325Y23035D01*
G01X55309Y23025D01*
G01X55293Y23014D01*
G01X55279Y23001D01*
G01X55266Y22987D01*
G01X55255Y22971D01*
G01X55244Y22955D01*
G01X55236Y22938D01*
G01X55230Y22919D01*
G01X55225Y22900D01*
G01X55222Y22880D01*
G01X55221Y22860D01*
G01X55254D01*
G01X55255Y22877D01*
G01X55257Y22894D01*
G01X55261Y22909D01*
G01X55267Y22925D01*
G01X55274Y22939D01*
G01X55282Y22953D01*
G01X55292Y22966D01*
G01X55302Y22977D01*
G01X55315Y22988D01*
G01X55327Y22998D01*
G01X55341Y23006D01*
G01X55355Y23013D01*
G01X55370Y23018D01*
G01X55387Y23023D01*
G01X55403Y23025D01*
G01X55420Y23026D01*
G01X55437Y23025D01*
G01X55453Y23023D01*
G01X55470Y23018D01*
G01X55485Y23013D01*
G01X55499Y23006D01*
G01X55513Y22998D01*
G01X55525Y22988D01*
G01X55538Y22977D01*
G01X55548Y22966D01*
G01X55558Y22953D01*
G01X55566Y22939D01*
G01X55573Y22925D01*
G01X55579Y22909D01*
G01X55583Y22894D01*
G01X55585Y22877D01*
G01X55586Y22860D01*
G01X55585Y22843D01*
G01X55583Y22826D01*
G01X55579Y22811D01*
G01X55573Y22795D01*
G01X55566Y22781D01*
G01X55558Y22767D01*
G01X55548Y22754D01*
G01X55538Y22743D01*
G01X55525Y22732D01*
G01X55513Y22722D01*
G01X55499Y22714D01*
G01X55485Y22707D01*
G01X55470Y22702D01*
G01X55453Y22697D01*
G01X55437Y22695D01*
G01X55420Y22694D01*
G01X55403Y22695D01*
G01X55387Y22697D01*
G01X55370Y22702D01*
G01X55355Y22707D01*
G01X55341Y22714D01*
G01X55327Y22722D01*
G01X55315Y22732D01*
G01X55302Y22743D01*
G01X55292Y22754D01*
G01X55282Y22767D01*
G01X55274Y22781D01*
G01X55267Y22795D01*
G01X55261Y22811D01*
G01X55257Y22826D01*
G01X55255Y22843D01*
G01X55254Y22860D01*
G01X55221D01*
G01X55222Y22840D01*
G01X55225Y22820D01*
G01X55230Y22801D01*
G01X55236Y22782D01*
G01X55244Y22765D01*
G01X55255Y22749D01*
G01X55266Y22733D01*
G01X55279Y22719D01*
G01X55293Y22706D01*
G01X55309Y22695D01*
G01X55325Y22685D01*
G01X55343Y22676D01*
G01X55361Y22670D01*
G01X55380Y22664D01*
G01X55399Y22662D01*
G01X55420Y22661D01*
G01X55441Y22662D01*
G01X55460Y22664D01*
G01X55479Y22670D01*
G01X55497Y22676D01*
G01X55515Y22685D01*
G01X55532Y22695D01*
G01X55547Y22706D01*
G01X55561Y22719D01*
G01X55574Y22733D01*
G01X55585Y22749D01*
G01X55596Y22765D01*
G01X55604Y22782D01*
G01X55610Y22801D01*
G01X55615Y22820D01*
G01X55618Y22840D01*
G01X55619Y22860D01*
G01X55618Y22880D01*
G01X55615Y22900D01*
G01X55610Y22919D01*
G01X55604Y22938D01*
G01X55596Y22955D01*
G01X55585Y22971D01*
G01X55574Y22987D01*
G01X55561Y23001D01*
G01X55547Y23014D01*
G01X55532Y23025D01*
G01X55515Y23035D01*
G01X55497Y23044D01*
G01X55479Y23051D01*
G01X55460Y23056D01*
G01X55441Y23058D01*
G37*
G36*
G01X49204Y19477D02*
G01X49223Y19443D01*
G01X49261D01*
G01X49545D01*
G01X49474Y19321D01*
G01X49403Y19198D01*
G01X49332Y19321D01*
G01X49261Y19443D01*
G01X49223D01*
G01X49403Y19131D01*
G01X49503Y19304D01*
G01X49603Y19477D01*
G37*
G36*
G01X57205Y26716D02*
G01X57224Y26682D01*
G01X57262D01*
G01X57546D01*
G01X57475Y26560D01*
G01X57404Y26437D01*
G01X57333Y26560D01*
G01X57262Y26682D01*
G01X57224D01*
G01X57404Y26370D01*
G01X57504Y26543D01*
G01X57604Y26716D01*
G37*
G36*
G01X10595Y1316D02*
G01X10615Y1282D01*
G01X10653D01*
G01X10937D01*
G01X10866Y1160D01*
G01X10795Y1037D01*
G01X10724Y1160D01*
G01X10653Y1282D01*
G01X10615D01*
G01X10695Y1143D01*
G01X10795Y970D01*
G01X10895Y1143D01*
G01X10995Y1316D01*
G37*
G36*
G01X40604Y7517D02*
G01X40624Y7484D01*
G01X40662D01*
G01X40945D01*
G01X40875Y7361D01*
G01X40804Y7238D01*
G01X40733Y7361D01*
G01X40662Y7484D01*
G01X40624D01*
G01X40804Y7172D01*
G01X40903Y7345D01*
G01X41003Y7517D01*
G37*
G36*
G01X27487Y17064D02*
G01X27506Y17030D01*
G01X27544D01*
G01X27828D01*
G01X27757Y16908D01*
G01X27686Y16785D01*
G01X27615Y16908D01*
G01X27544Y17030D01*
G01X27506D01*
G01X27686Y16718D01*
G01X27786Y16891D01*
G01X27886Y17064D01*
G37*
G36*
G01X74731Y18588D02*
G01X74750Y18554D01*
G01X74788D01*
G01X75072D01*
G01X75001Y18432D01*
G01X74930Y18309D01*
G01X74859Y18432D01*
G01X74788Y18554D01*
G01X74750D01*
G01X74930Y18242D01*
G01X75129Y18588D01*
G37*
G36*
G01X21717Y26519D02*
G01X21660Y26389D01*
G01X21518Y26404D01*
G01X21602Y26289D01*
G01X21549Y26216D01*
G01X21591D01*
G01X21630Y26269D01*
G01X21644Y26289D01*
G01X21630Y26309D01*
G01X21591Y26362D01*
G01X21656Y26355D01*
G01X21680Y26352D01*
G01X21691Y26375D01*
G01X21717Y26435D01*
G01X21743Y26375D01*
G01X21754Y26352D01*
G01X21778Y26355D01*
G01X21843Y26362D01*
G01X21804Y26309D01*
G01X21790Y26289D01*
G01X21804Y26269D01*
G01X21843Y26216D01*
G01X21778Y26223D01*
G01X21754Y26226D01*
G01X21743Y26203D01*
G01X21717Y26143D01*
G01X21691Y26203D01*
G01X21680Y26226D01*
G01X21656Y26223D01*
G01X21591Y26216D01*
G01X21549D01*
G01X21518Y26174D01*
G01X21660Y26189D01*
G01X21717Y26059D01*
G01X21774Y26189D01*
G01X21917Y26174D01*
G01X21832Y26289D01*
G01X21917Y26404D01*
G01X21774Y26389D01*
G37*
G36*
G01X24257Y26519D02*
G01X24200Y26389D01*
G01X24058Y26404D01*
G01X24142Y26289D01*
G01X24089Y26216D01*
G01X24131D01*
G01X24170Y26269D01*
G01X24184Y26289D01*
G01X24170Y26309D01*
G01X24131Y26362D01*
G01X24196Y26355D01*
G01X24220Y26352D01*
G01X24231Y26375D01*
G01X24257Y26435D01*
G01X24283Y26375D01*
G01X24294Y26352D01*
G01X24318Y26355D01*
G01X24383Y26362D01*
G01X24344Y26309D01*
G01X24330Y26289D01*
G01X24344Y26269D01*
G01X24383Y26216D01*
G01X24318Y26223D01*
G01X24294Y26226D01*
G01X24283Y26203D01*
G01X24257Y26143D01*
G01X24231Y26203D01*
G01X24220Y26226D01*
G01X24196Y26223D01*
G01X24131Y26216D01*
G01X24089D01*
G01X24058Y26174D01*
G01X24200Y26189D01*
G01X24257Y26059D01*
G01X24314Y26189D01*
G01X24457Y26174D01*
G01X24372Y26289D01*
G01X24457Y26404D01*
G01X24314Y26389D01*
G37*
G36*
G01X26797Y26519D02*
G01X26740Y26389D01*
G01X26598Y26404D01*
G01X26682Y26289D01*
G01X26629Y26216D01*
G01X26671D01*
G01X26710Y26269D01*
G01X26724Y26289D01*
G01X26710Y26309D01*
G01X26671Y26362D01*
G01X26736Y26355D01*
G01X26760Y26352D01*
G01X26771Y26375D01*
G01X26797Y26435D01*
G01X26823Y26375D01*
G01X26834Y26352D01*
G01X26858Y26355D01*
G01X26923Y26362D01*
G01X26884Y26309D01*
G01X26870Y26289D01*
G01X26884Y26269D01*
G01X26923Y26216D01*
G01X26858Y26223D01*
G01X26834Y26226D01*
G01X26823Y26203D01*
G01X26797Y26143D01*
G01X26771Y26203D01*
G01X26760Y26226D01*
G01X26736Y26223D01*
G01X26671Y26216D01*
G01X26629D01*
G01X26598Y26174D01*
G01X26740Y26189D01*
G01X26797Y26059D01*
G01X26854Y26189D01*
G01X26997Y26174D01*
G01X26912Y26289D01*
G01X26997Y26404D01*
G01X26854Y26389D01*
G37*
G36*
G01X9017Y26519D02*
G01X8960Y26389D01*
G01X8817Y26404D01*
G01X8902Y26289D01*
G01X8848Y26216D01*
G01X8891D01*
G01X8930Y26269D01*
G01X8944Y26289D01*
G01X8930Y26309D01*
G01X8891Y26362D01*
G01X8956Y26355D01*
G01X8980Y26352D01*
G01X8991Y26375D01*
G01X9017Y26435D01*
G01X9043Y26375D01*
G01X9054Y26352D01*
G01X9078Y26355D01*
G01X9143Y26362D01*
G01X9104Y26309D01*
G01X9090Y26289D01*
G01X9104Y26269D01*
G01X9143Y26216D01*
G01X9078Y26223D01*
G01X9054Y26226D01*
G01X9043Y26203D01*
G01X9017Y26143D01*
G01X8991Y26203D01*
G01X8980Y26226D01*
G01X8956Y26223D01*
G01X8891Y26216D01*
G01X8848D01*
G01X8817Y26174D01*
G01X8960Y26189D01*
G01X9017Y26059D01*
G01X9074Y26189D01*
G01X9217Y26174D01*
G01X9132Y26289D01*
G01X9217Y26404D01*
G01X9074Y26389D01*
G37*
G36*
G01X11557Y26519D02*
G01X11500Y26389D01*
G01X11357Y26404D01*
G01X11442Y26289D01*
G01X11388Y26216D01*
G01X11431D01*
G01X11470Y26269D01*
G01X11484Y26289D01*
G01X11470Y26309D01*
G01X11431Y26362D01*
G01X11496Y26355D01*
G01X11520Y26352D01*
G01X11531Y26375D01*
G01X11557Y26435D01*
G01X11583Y26375D01*
G01X11594Y26352D01*
G01X11618Y26355D01*
G01X11683Y26362D01*
G01X11644Y26309D01*
G01X11630Y26289D01*
G01X11644Y26269D01*
G01X11683Y26216D01*
G01X11618Y26223D01*
G01X11594Y26226D01*
G01X11583Y26203D01*
G01X11557Y26143D01*
G01X11531Y26203D01*
G01X11520Y26226D01*
G01X11496Y26223D01*
G01X11431Y26216D01*
G01X11388D01*
G01X11357Y26174D01*
G01X11500Y26189D01*
G01X11557Y26059D01*
G01X11614Y26189D01*
G01X11757Y26174D01*
G01X11672Y26289D01*
G01X11757Y26404D01*
G01X11614Y26389D01*
G37*
G36*
G01X14097Y26519D02*
G01X14040Y26389D01*
G01X13897Y26404D01*
G01X13982Y26289D01*
G01X13928Y26216D01*
G01X13971D01*
G01X14010Y26269D01*
G01X14024Y26289D01*
G01X14010Y26309D01*
G01X13971Y26362D01*
G01X14036Y26355D01*
G01X14060Y26352D01*
G01X14071Y26375D01*
G01X14097Y26435D01*
G01X14123Y26375D01*
G01X14134Y26352D01*
G01X14158Y26355D01*
G01X14223Y26362D01*
G01X14184Y26309D01*
G01X14170Y26289D01*
G01X14184Y26269D01*
G01X14223Y26216D01*
G01X14158Y26223D01*
G01X14134Y26226D01*
G01X14123Y26203D01*
G01X14097Y26143D01*
G01X14071Y26203D01*
G01X14060Y26226D01*
G01X14036Y26223D01*
G01X13971Y26216D01*
G01X13928D01*
G01X13897Y26174D01*
G01X14040Y26189D01*
G01X14097Y26059D01*
G01X14154Y26189D01*
G01X14297Y26174D01*
G01X14212Y26289D01*
G01X14297Y26404D01*
G01X14154Y26389D01*
G37*
G36*
G01X16637Y26519D02*
G01X16580Y26389D01*
G01X16438Y26404D01*
G01X16522Y26289D01*
G01X16469Y26216D01*
G01X16511D01*
G01X16550Y26269D01*
G01X16564Y26289D01*
G01X16550Y26309D01*
G01X16511Y26362D01*
G01X16576Y26355D01*
G01X16600Y26352D01*
G01X16611Y26375D01*
G01X16637Y26435D01*
G01X16663Y26375D01*
G01X16674Y26352D01*
G01X16698Y26355D01*
G01X16763Y26362D01*
G01X16724Y26309D01*
G01X16710Y26289D01*
G01X16724Y26269D01*
G01X16763Y26216D01*
G01X16698Y26223D01*
G01X16674Y26226D01*
G01X16663Y26203D01*
G01X16637Y26143D01*
G01X16611Y26203D01*
G01X16600Y26226D01*
G01X16576Y26223D01*
G01X16511Y26216D01*
G01X16469D01*
G01X16438Y26174D01*
G01X16580Y26189D01*
G01X16637Y26059D01*
G01X16694Y26189D01*
G01X16837Y26174D01*
G01X16752Y26289D01*
G01X16837Y26404D01*
G01X16694Y26389D01*
G37*
G36*
G01X19177Y26519D02*
G01X19120Y26389D01*
G01X18978Y26404D01*
G01X19062Y26289D01*
G01X19009Y26216D01*
G01X19051D01*
G01X19090Y26269D01*
G01X19104Y26289D01*
G01X19090Y26309D01*
G01X19051Y26362D01*
G01X19116Y26355D01*
G01X19140Y26352D01*
G01X19151Y26375D01*
G01X19177Y26435D01*
G01X19203Y26375D01*
G01X19214Y26352D01*
G01X19238Y26355D01*
G01X19303Y26362D01*
G01X19264Y26309D01*
G01X19250Y26289D01*
G01X19264Y26269D01*
G01X19303Y26216D01*
G01X19238Y26223D01*
G01X19214Y26226D01*
G01X19203Y26203D01*
G01X19177Y26143D01*
G01X19151Y26203D01*
G01X19140Y26226D01*
G01X19116Y26223D01*
G01X19051Y26216D01*
G01X19009D01*
G01X18978Y26174D01*
G01X19120Y26189D01*
G01X19177Y26059D01*
G01X19234Y26189D01*
G01X19377Y26174D01*
G01X19292Y26289D01*
G01X19377Y26404D01*
G01X19234Y26389D01*
G37*
G36*
G01X9017Y3659D02*
G01X8960Y3529D01*
G01X8817Y3544D01*
G01X8902Y3429D01*
G01X8848Y3356D01*
G01X8891D01*
G01X8930Y3409D01*
G01X8944Y3429D01*
G01X8930Y3449D01*
G01X8891Y3502D01*
G01X8956Y3495D01*
G01X8980Y3492D01*
G01X8991Y3515D01*
G01X9017Y3575D01*
G01X9043Y3515D01*
G01X9054Y3492D01*
G01X9078Y3495D01*
G01X9143Y3502D01*
G01X9104Y3449D01*
G01X9090Y3429D01*
G01X9104Y3409D01*
G01X9143Y3356D01*
G01X9078Y3363D01*
G01X9054Y3366D01*
G01X9043Y3343D01*
G01X9017Y3283D01*
G01X8991Y3343D01*
G01X8980Y3366D01*
G01X8956Y3363D01*
G01X8891Y3356D01*
G01X8848D01*
G01X8817Y3314D01*
G01X8960Y3329D01*
G01X9017Y3199D01*
G01X9074Y3329D01*
G01X9216Y3314D01*
G01X9132Y3429D01*
G01X9216Y3544D01*
G01X9074Y3529D01*
G37*
G36*
G01X11557Y3659D02*
G01X11500Y3529D01*
G01X11357Y3544D01*
G01X11442Y3429D01*
G01X11388Y3356D01*
G01X11431D01*
G01X11470Y3409D01*
G01X11484Y3429D01*
G01X11470Y3449D01*
G01X11431Y3502D01*
G01X11496Y3495D01*
G01X11520Y3492D01*
G01X11531Y3515D01*
G01X11557Y3575D01*
G01X11583Y3515D01*
G01X11594Y3492D01*
G01X11618Y3495D01*
G01X11683Y3502D01*
G01X11644Y3449D01*
G01X11630Y3429D01*
G01X11644Y3409D01*
G01X11683Y3356D01*
G01X11618Y3363D01*
G01X11594Y3366D01*
G01X11583Y3343D01*
G01X11557Y3283D01*
G01X11531Y3343D01*
G01X11520Y3366D01*
G01X11496Y3363D01*
G01X11431Y3356D01*
G01X11388D01*
G01X11357Y3314D01*
G01X11500Y3329D01*
G01X11557Y3199D01*
G01X11614Y3329D01*
G01X11756Y3314D01*
G01X11672Y3429D01*
G01X11756Y3544D01*
G01X11614Y3529D01*
G37*
G36*
G01X14097Y3659D02*
G01X14040Y3529D01*
G01X13897Y3544D01*
G01X13982Y3429D01*
G01X13928Y3356D01*
G01X13971D01*
G01X14010Y3409D01*
G01X14024Y3429D01*
G01X14010Y3449D01*
G01X13971Y3502D01*
G01X14036Y3495D01*
G01X14060Y3492D01*
G01X14071Y3515D01*
G01X14097Y3575D01*
G01X14123Y3515D01*
G01X14134Y3492D01*
G01X14158Y3495D01*
G01X14223Y3502D01*
G01X14184Y3449D01*
G01X14170Y3429D01*
G01X14184Y3409D01*
G01X14223Y3356D01*
G01X14158Y3363D01*
G01X14134Y3366D01*
G01X14123Y3343D01*
G01X14097Y3283D01*
G01X14071Y3343D01*
G01X14060Y3366D01*
G01X14036Y3363D01*
G01X13971Y3356D01*
G01X13928D01*
G01X13897Y3314D01*
G01X14040Y3329D01*
G01X14097Y3199D01*
G01X14154Y3329D01*
G01X14296Y3314D01*
G01X14212Y3429D01*
G01X14296Y3544D01*
G01X14154Y3529D01*
G37*
G36*
G01X16637Y3659D02*
G01X16580Y3529D01*
G01X16437Y3544D01*
G01X16522Y3429D01*
G01X16468Y3356D01*
G01X16511D01*
G01X16550Y3409D01*
G01X16564Y3429D01*
G01X16550Y3449D01*
G01X16511Y3502D01*
G01X16576Y3495D01*
G01X16600Y3492D01*
G01X16611Y3515D01*
G01X16637Y3575D01*
G01X16663Y3515D01*
G01X16674Y3492D01*
G01X16698Y3495D01*
G01X16763Y3502D01*
G01X16724Y3449D01*
G01X16710Y3429D01*
G01X16724Y3409D01*
G01X16763Y3356D01*
G01X16698Y3363D01*
G01X16674Y3366D01*
G01X16663Y3343D01*
G01X16637Y3283D01*
G01X16611Y3343D01*
G01X16600Y3366D01*
G01X16576Y3363D01*
G01X16511Y3356D01*
G01X16468D01*
G01X16437Y3314D01*
G01X16580Y3329D01*
G01X16637Y3199D01*
G01X16694Y3329D01*
G01X16836Y3314D01*
G01X16752Y3429D01*
G01X16836Y3544D01*
G01X16694Y3529D01*
G37*
G36*
G01X19177Y3659D02*
G01X19120Y3529D01*
G01X18977Y3544D01*
G01X19062Y3429D01*
G01X19008Y3356D01*
G01X19051D01*
G01X19090Y3409D01*
G01X19104Y3429D01*
G01X19090Y3449D01*
G01X19051Y3502D01*
G01X19116Y3495D01*
G01X19140Y3492D01*
G01X19151Y3515D01*
G01X19177Y3575D01*
G01X19203Y3515D01*
G01X19214Y3492D01*
G01X19238Y3495D01*
G01X19303Y3502D01*
G01X19264Y3449D01*
G01X19250Y3429D01*
G01X19264Y3409D01*
G01X19303Y3356D01*
G01X19238Y3363D01*
G01X19214Y3366D01*
G01X19203Y3343D01*
G01X19177Y3283D01*
G01X19151Y3343D01*
G01X19140Y3366D01*
G01X19116Y3363D01*
G01X19051Y3356D01*
G01X19008D01*
G01X18977Y3314D01*
G01X19120Y3329D01*
G01X19177Y3199D01*
G01X19234Y3329D01*
G01X19376Y3314D01*
G01X19292Y3429D01*
G01X19376Y3544D01*
G01X19234Y3529D01*
G37*
G36*
G01X21717Y3659D02*
G01X21660Y3529D01*
G01X21517Y3544D01*
G01X21602Y3429D01*
G01X21548Y3356D01*
G01X21591D01*
G01X21630Y3409D01*
G01X21644Y3429D01*
G01X21630Y3449D01*
G01X21591Y3502D01*
G01X21656Y3495D01*
G01X21680Y3492D01*
G01X21691Y3515D01*
G01X21717Y3575D01*
G01X21743Y3515D01*
G01X21754Y3492D01*
G01X21778Y3495D01*
G01X21843Y3502D01*
G01X21804Y3449D01*
G01X21790Y3429D01*
G01X21804Y3409D01*
G01X21843Y3356D01*
G01X21778Y3363D01*
G01X21754Y3366D01*
G01X21743Y3343D01*
G01X21717Y3283D01*
G01X21691Y3343D01*
G01X21680Y3366D01*
G01X21656Y3363D01*
G01X21591Y3356D01*
G01X21548D01*
G01X21517Y3314D01*
G01X21660Y3329D01*
G01X21717Y3199D01*
G01X21774Y3329D01*
G01X21916Y3314D01*
G01X21832Y3429D01*
G01X21916Y3544D01*
G01X21774Y3529D01*
G37*
G36*
G01X24257Y3659D02*
G01X24200Y3529D01*
G01X24057Y3544D01*
G01X24142Y3429D01*
G01X24088Y3356D01*
G01X24131D01*
G01X24170Y3409D01*
G01X24184Y3429D01*
G01X24170Y3449D01*
G01X24131Y3502D01*
G01X24196Y3495D01*
G01X24220Y3492D01*
G01X24231Y3515D01*
G01X24257Y3575D01*
G01X24283Y3515D01*
G01X24294Y3492D01*
G01X24318Y3495D01*
G01X24383Y3502D01*
G01X24344Y3449D01*
G01X24330Y3429D01*
G01X24344Y3409D01*
G01X24383Y3356D01*
G01X24318Y3363D01*
G01X24294Y3366D01*
G01X24283Y3343D01*
G01X24257Y3283D01*
G01X24231Y3343D01*
G01X24220Y3366D01*
G01X24196Y3363D01*
G01X24131Y3356D01*
G01X24088D01*
G01X24057Y3314D01*
G01X24200Y3329D01*
G01X24257Y3199D01*
G01X24314Y3329D01*
G01X24456Y3314D01*
G01X24372Y3429D01*
G01X24456Y3544D01*
G01X24314Y3529D01*
G37*
G36*
G01X26797Y3659D02*
G01X26740Y3529D01*
G01X26597Y3544D01*
G01X26682Y3429D01*
G01X26628Y3356D01*
G01X26671D01*
G01X26710Y3409D01*
G01X26724Y3429D01*
G01X26710Y3449D01*
G01X26671Y3502D01*
G01X26736Y3495D01*
G01X26760Y3492D01*
G01X26771Y3515D01*
G01X26797Y3575D01*
G01X26823Y3515D01*
G01X26834Y3492D01*
G01X26858Y3495D01*
G01X26923Y3502D01*
G01X26884Y3449D01*
G01X26870Y3429D01*
G01X26884Y3409D01*
G01X26923Y3356D01*
G01X26858Y3363D01*
G01X26834Y3366D01*
G01X26823Y3343D01*
G01X26797Y3283D01*
G01X26771Y3343D01*
G01X26760Y3366D01*
G01X26736Y3363D01*
G01X26671Y3356D01*
G01X26628D01*
G01X26597Y3314D01*
G01X26740Y3329D01*
G01X26797Y3199D01*
G01X26854Y3329D01*
G01X26996Y3314D01*
G01X26912Y3429D01*
G01X26996Y3544D01*
G01X26854Y3529D01*
G37*
G36*
G01X66984Y25252D02*
G01X67015Y25184D01*
G01X67051D01*
G01X67169Y25130D01*
G01X67184Y25123D01*
G01X67197Y25130D01*
G01X67315Y25184D01*
G01X67261Y25066D01*
G01X67255Y25052D01*
G01X67261Y25038D01*
G01X67315Y24920D01*
G01X67197Y24975D01*
G01X67184Y24981D01*
G01X67169Y24975D01*
G01X67051Y24920D01*
G01X67106Y25038D01*
G01X67112Y25052D01*
G01X67106Y25066D01*
G01X67051Y25184D01*
G01X67015D01*
G01X67076Y25052D01*
G01X66984Y24853D01*
G01X67184Y24944D01*
G01X67383Y24853D01*
G01X67291Y25052D01*
G01X67383Y25252D01*
G01X67184Y25160D01*
G37*
G36*
G01X66984Y16552D02*
G01X67015Y16484D01*
G01X67051D01*
G01X67169Y16430D01*
G01X67184Y16423D01*
G01X67197Y16430D01*
G01X67315Y16484D01*
G01X67261Y16366D01*
G01X67255Y16352D01*
G01X67261Y16338D01*
G01X67315Y16220D01*
G01X67197Y16274D01*
G01X67184Y16281D01*
G01X67169Y16274D01*
G01X67051Y16220D01*
G01X67106Y16338D01*
G01X67112Y16352D01*
G01X67106Y16366D01*
G01X67051Y16484D01*
G01X67015D01*
G01X67076Y16352D01*
G01X66984Y16153D01*
G01X67184Y16244D01*
G01X67383Y16153D01*
G01X67291Y16352D01*
G01X67383Y16552D01*
G01X67184Y16460D01*
G37*
G36*
G01X66947Y4129D02*
G01X66978Y4061D01*
G01X67014D01*
G01X67132Y4007D01*
G01X67146Y4001D01*
G01X67160Y4007D01*
G01X67278Y4061D01*
G01X67224Y3943D01*
G01X67218Y3929D01*
G01X67224Y3916D01*
G01X67278Y3798D01*
G01X67160Y3852D01*
G01X67146Y3858D01*
G01X67132Y3852D01*
G01X67014Y3798D01*
G01X67069Y3916D01*
G01X67075Y3929D01*
G01X67069Y3943D01*
G01X67014Y4061D01*
G01X66978D01*
G01X67038Y3929D01*
G01X66947Y3730D01*
G01X67146Y3822D01*
G01X67346Y3730D01*
G01X67254Y3929D01*
G01X67346Y4129D01*
G01X67146Y4037D01*
G37*
G36*
G01X66947Y12829D02*
G01X66978Y12761D01*
G01X67014D01*
G01X67132Y12707D01*
G01X67146Y12701D01*
G01X67160Y12707D01*
G01X67278Y12761D01*
G01X67224Y12643D01*
G01X67218Y12629D01*
G01X67224Y12616D01*
G01X67278Y12498D01*
G01X67160Y12552D01*
G01X67146Y12558D01*
G01X67132Y12552D01*
G01X67014Y12498D01*
G01X67069Y12616D01*
G01X67075Y12629D01*
G01X67069Y12643D01*
G01X67014Y12761D01*
G01X66978D01*
G01X67038Y12629D01*
G01X66947Y12430D01*
G01X67146Y12522D01*
G01X67346Y12430D01*
G01X67254Y12629D01*
G01X67346Y12829D01*
G01X67146Y12737D01*
G37*
G36*
G01X88574Y17782D02*
G01X88605Y17714D01*
G01X88641D01*
G01X88759Y17660D01*
G01X88773Y17654D01*
G01X88787Y17660D01*
G01X88905Y17714D01*
G01X88851Y17597D01*
G01X88844Y17583D01*
G01X88851Y17569D01*
G01X88905Y17451D01*
G01X88787Y17505D01*
G01X88773Y17512D01*
G01X88759Y17505D01*
G01X88641Y17451D01*
G01X88695Y17569D01*
G01X88702Y17583D01*
G01X88695Y17597D01*
G01X88641Y17714D01*
G01X88605D01*
G01X88665Y17583D01*
G01X88574Y17383D01*
G01X88773Y17475D01*
G01X88972Y17383D01*
G01X88881Y17583D01*
G01X88972Y17782D01*
G01X88773Y17691D01*
G37*
G36*
G01X88574Y28083D02*
G01X88605Y28015D01*
G01X88641D01*
G01X88759Y27961D01*
G01X88773Y27954D01*
G01X88787Y27961D01*
G01X88905Y28015D01*
G01X88851Y27897D01*
G01X88844Y27883D01*
G01X88851Y27869D01*
G01X88905Y27752D01*
G01X88787Y27806D01*
G01X88773Y27812D01*
G01X88759Y27806D01*
G01X88641Y27752D01*
G01X88695Y27869D01*
G01X88702Y27883D01*
G01X88695Y27897D01*
G01X88641Y28015D01*
G01X88605D01*
G01X88665Y27883D01*
G01X88574Y27684D01*
G01X88773Y27775D01*
G01X88972Y27684D01*
G01X88881Y27883D01*
G01X88972Y28083D01*
G01X88773Y27991D01*
G37*
G36*
G01X70921Y26870D02*
G01X70952Y26802D01*
G01X70988D01*
G01X71106Y26748D01*
G01X71120Y26741D01*
G01X71134Y26748D01*
G01X71252Y26802D01*
G01X71198Y26684D01*
G01X71191Y26670D01*
G01X71198Y26656D01*
G01X71252Y26538D01*
G01X71134Y26592D01*
G01X71120Y26599D01*
G01X71106Y26592D01*
G01X70988Y26538D01*
G01X71042Y26656D01*
G01X71049Y26670D01*
G01X71042Y26684D01*
G01X70988Y26802D01*
G01X70952D01*
G01X71012Y26670D01*
G01X70921Y26471D01*
G01X71120Y26562D01*
G01X71319Y26471D01*
G01X71228Y26670D01*
G01X71319Y26870D01*
G01X71120Y26778D01*
G37*
G36*
G01X70921Y4010D02*
G01X70952Y3942D01*
G01X70988D01*
G01X71106Y3888D01*
G01X71120Y3881D01*
G01X71134Y3888D01*
G01X71252Y3942D01*
G01X71198Y3824D01*
G01X71191Y3810D01*
G01X71198Y3796D01*
G01X71252Y3678D01*
G01X71134Y3732D01*
G01X71120Y3739D01*
G01X71106Y3732D01*
G01X70988Y3678D01*
G01X71042Y3796D01*
G01X71049Y3810D01*
G01X71042Y3824D01*
G01X70988Y3942D01*
G01X70952D01*
G01X71012Y3810D01*
G01X70921Y3611D01*
G01X71120Y3702D01*
G01X71319Y3611D01*
G01X71228Y3810D01*
G01X71319Y4010D01*
G01X71120Y3918D01*
G37*
G36*
G01X84891Y4010D02*
G01X84922Y3942D01*
G01X84958D01*
G01X85076Y3888D01*
G01X85090Y3881D01*
G01X85104Y3888D01*
G01X85222Y3942D01*
G01X85168Y3824D01*
G01X85161Y3810D01*
G01X85168Y3796D01*
G01X85222Y3678D01*
G01X85104Y3732D01*
G01X85090Y3739D01*
G01X85076Y3732D01*
G01X84958Y3678D01*
G01X85012Y3796D01*
G01X85019Y3810D01*
G01X85012Y3824D01*
G01X84958Y3942D01*
G01X84922D01*
G01X84982Y3810D01*
G01X84891Y3611D01*
G01X85090Y3702D01*
G01X85289Y3611D01*
G01X85198Y3810D01*
G01X85289Y4010D01*
G01X85090Y3918D01*
G37*
G36*
G01X84891Y26870D02*
G01X84922Y26802D01*
G01X84958D01*
G01X85076Y26748D01*
G01X85090Y26741D01*
G01X85104Y26748D01*
G01X85222Y26802D01*
G01X85168Y26684D01*
G01X85161Y26670D01*
G01X85168Y26656D01*
G01X85222Y26538D01*
G01X85104Y26592D01*
G01X85090Y26599D01*
G01X85076Y26592D01*
G01X84958Y26538D01*
G01X85012Y26656D01*
G01X85019Y26670D01*
G01X85012Y26684D01*
G01X84958Y26802D01*
G01X84922D01*
G01X84982Y26670D01*
G01X84891Y26471D01*
G01X85090Y26562D01*
G01X85289Y26471D01*
G01X85198Y26670D01*
G01X85289Y26870D01*
G01X85090Y26778D01*
G37*
G36*
G01X81716Y4010D02*
G01X81747Y3942D01*
G01X81783D01*
G01X81901Y3888D01*
G01X81915Y3881D01*
G01X81929Y3888D01*
G01X82047Y3942D01*
G01X81993Y3824D01*
G01X81986Y3810D01*
G01X81993Y3796D01*
G01X82047Y3678D01*
G01X81929Y3732D01*
G01X81915Y3739D01*
G01X81901Y3732D01*
G01X81783Y3678D01*
G01X81837Y3796D01*
G01X81844Y3810D01*
G01X81837Y3824D01*
G01X81783Y3942D01*
G01X81747D01*
G01X81807Y3810D01*
G01X81716Y3611D01*
G01X81915Y3702D01*
G01X82114Y3611D01*
G01X82023Y3810D01*
G01X82114Y4010D01*
G01X81915Y3918D01*
G37*
G36*
G01X74096Y4010D02*
G01X74127Y3942D01*
G01X74163D01*
G01X74281Y3888D01*
G01X74295Y3881D01*
G01X74309Y3888D01*
G01X74427Y3942D01*
G01X74373Y3824D01*
G01X74366Y3810D01*
G01X74373Y3796D01*
G01X74427Y3678D01*
G01X74309Y3732D01*
G01X74295Y3739D01*
G01X74281Y3732D01*
G01X74163Y3678D01*
G01X74217Y3796D01*
G01X74224Y3810D01*
G01X74217Y3824D01*
G01X74163Y3942D01*
G01X74127D01*
G01X74187Y3810D01*
G01X74096Y3611D01*
G01X74295Y3702D01*
G01X74494Y3611D01*
G01X74403Y3810D01*
G01X74494Y4010D01*
G01X74295Y3918D01*
G37*
G36*
G01X36250Y26489D02*
G01X36281Y26421D01*
G01X36317D01*
G01X36435Y26367D01*
G01X36449Y26360D01*
G01X36463Y26367D01*
G01X36581Y26421D01*
G01X36527Y26303D01*
G01X36520Y26289D01*
G01X36527Y26275D01*
G01X36581Y26157D01*
G01X36463Y26211D01*
G01X36449Y26218D01*
G01X36435Y26211D01*
G01X36317Y26157D01*
G01X36371Y26275D01*
G01X36378Y26289D01*
G01X36371Y26303D01*
G01X36317Y26421D01*
G01X36281D01*
G01X36341Y26289D01*
G01X36250Y26090D01*
G01X36449Y26181D01*
G01X36649Y26090D01*
G01X36557Y26289D01*
G01X36649Y26489D01*
G01X36449Y26397D01*
G37*
G36*
G01X36250Y23949D02*
G01X36281Y23881D01*
G01X36317D01*
G01X36435Y23827D01*
G01X36449Y23820D01*
G01X36463Y23827D01*
G01X36581Y23881D01*
G01X36527Y23763D01*
G01X36520Y23749D01*
G01X36527Y23735D01*
G01X36581Y23617D01*
G01X36463Y23671D01*
G01X36449Y23678D01*
G01X36435Y23671D01*
G01X36317Y23617D01*
G01X36371Y23735D01*
G01X36378Y23749D01*
G01X36371Y23763D01*
G01X36317Y23881D01*
G01X36281D01*
G01X36341Y23749D01*
G01X36250Y23550D01*
G01X36449Y23641D01*
G01X36649Y23550D01*
G01X36557Y23749D01*
G01X36649Y23949D01*
G01X36449Y23857D01*
G37*
G36*
G01X36250Y21409D02*
G01X36281Y21341D01*
G01X36317D01*
G01X36435Y21287D01*
G01X36449Y21280D01*
G01X36463Y21287D01*
G01X36581Y21341D01*
G01X36527Y21223D01*
G01X36520Y21209D01*
G01X36527Y21195D01*
G01X36581Y21077D01*
G01X36463Y21131D01*
G01X36449Y21138D01*
G01X36435Y21131D01*
G01X36317Y21077D01*
G01X36371Y21195D01*
G01X36378Y21209D01*
G01X36371Y21223D01*
G01X36317Y21341D01*
G01X36281D01*
G01X36341Y21209D01*
G01X36250Y21010D01*
G01X36449Y21101D01*
G01X36649Y21010D01*
G01X36557Y21209D01*
G01X36649Y21409D01*
G01X36449Y21317D01*
G37*
G36*
G01X36250Y18869D02*
G01X36281Y18801D01*
G01X36317D01*
G01X36435Y18747D01*
G01X36449Y18740D01*
G01X36463Y18747D01*
G01X36581Y18801D01*
G01X36527Y18683D01*
G01X36520Y18669D01*
G01X36527Y18655D01*
G01X36581Y18537D01*
G01X36463Y18591D01*
G01X36449Y18598D01*
G01X36435Y18591D01*
G01X36317Y18537D01*
G01X36371Y18655D01*
G01X36378Y18669D01*
G01X36371Y18683D01*
G01X36317Y18801D01*
G01X36281D01*
G01X36341Y18669D01*
G01X36250Y18470D01*
G01X36449Y18561D01*
G01X36649Y18470D01*
G01X36557Y18669D01*
G01X36649Y18869D01*
G01X36449Y18777D01*
G37*
G36*
G01X36250Y16329D02*
G01X36281Y16261D01*
G01X36317D01*
G01X36435Y16207D01*
G01X36449Y16200D01*
G01X36463Y16207D01*
G01X36581Y16261D01*
G01X36527Y16143D01*
G01X36520Y16129D01*
G01X36527Y16115D01*
G01X36581Y15997D01*
G01X36463Y16051D01*
G01X36449Y16058D01*
G01X36435Y16051D01*
G01X36317Y15997D01*
G01X36371Y16115D01*
G01X36378Y16129D01*
G01X36371Y16143D01*
G01X36317Y16261D01*
G01X36281D01*
G01X36341Y16129D01*
G01X36250Y15930D01*
G01X36449Y16021D01*
G01X36649Y15930D01*
G01X36557Y16129D01*
G01X36649Y16329D01*
G01X36449Y16237D01*
G37*
G36*
G01X36250Y13789D02*
G01X36281Y13721D01*
G01X36317D01*
G01X36435Y13667D01*
G01X36449Y13660D01*
G01X36463Y13667D01*
G01X36581Y13721D01*
G01X36527Y13603D01*
G01X36520Y13589D01*
G01X36527Y13575D01*
G01X36581Y13457D01*
G01X36463Y13511D01*
G01X36449Y13518D01*
G01X36435Y13511D01*
G01X36317Y13457D01*
G01X36371Y13575D01*
G01X36378Y13589D01*
G01X36371Y13603D01*
G01X36317Y13721D01*
G01X36281D01*
G01X36341Y13589D01*
G01X36250Y13390D01*
G01X36449Y13481D01*
G01X36649Y13390D01*
G01X36557Y13589D01*
G01X36649Y13789D01*
G01X36449Y13697D01*
G37*
G36*
G01X36250Y11249D02*
G01X36281Y11181D01*
G01X36317D01*
G01X36435Y11127D01*
G01X36449Y11120D01*
G01X36463Y11127D01*
G01X36581Y11181D01*
G01X36527Y11063D01*
G01X36520Y11049D01*
G01X36527Y11035D01*
G01X36581Y10917D01*
G01X36463Y10971D01*
G01X36449Y10978D01*
G01X36435Y10971D01*
G01X36317Y10917D01*
G01X36371Y11035D01*
G01X36378Y11049D01*
G01X36371Y11063D01*
G01X36317Y11181D01*
G01X36281D01*
G01X36341Y11049D01*
G01X36250Y10850D01*
G01X36449Y10941D01*
G01X36649Y10850D01*
G01X36557Y11049D01*
G01X36649Y11249D01*
G01X36449Y11157D01*
G37*
G36*
G01X36250Y8709D02*
G01X36281Y8641D01*
G01X36317D01*
G01X36435Y8587D01*
G01X36449Y8580D01*
G01X36463Y8587D01*
G01X36581Y8641D01*
G01X36527Y8523D01*
G01X36520Y8509D01*
G01X36527Y8495D01*
G01X36581Y8377D01*
G01X36463Y8431D01*
G01X36449Y8438D01*
G01X36435Y8431D01*
G01X36317Y8377D01*
G01X36371Y8495D01*
G01X36378Y8509D01*
G01X36371Y8523D01*
G01X36317Y8641D01*
G01X36281D01*
G01X36341Y8509D01*
G01X36250Y8310D01*
G01X36449Y8401D01*
G01X36649Y8310D01*
G01X36557Y8509D01*
G01X36649Y8709D01*
G01X36449Y8617D01*
G37*
G36*
G01X36250Y6169D02*
G01X36281Y6101D01*
G01X36317D01*
G01X36435Y6047D01*
G01X36449Y6040D01*
G01X36463Y6047D01*
G01X36581Y6101D01*
G01X36527Y5983D01*
G01X36520Y5969D01*
G01X36527Y5955D01*
G01X36581Y5837D01*
G01X36463Y5891D01*
G01X36449Y5898D01*
G01X36435Y5891D01*
G01X36317Y5837D01*
G01X36371Y5955D01*
G01X36378Y5969D01*
G01X36371Y5983D01*
G01X36317Y6101D01*
G01X36281D01*
G01X36341Y5969D01*
G01X36250Y5770D01*
G01X36449Y5861D01*
G01X36649Y5770D01*
G01X36557Y5969D01*
G01X36649Y6169D01*
G01X36449Y6077D01*
G37*
G36*
G01X36250Y3629D02*
G01X36281Y3561D01*
G01X36317D01*
G01X36435Y3507D01*
G01X36449Y3500D01*
G01X36463Y3507D01*
G01X36581Y3561D01*
G01X36527Y3443D01*
G01X36520Y3429D01*
G01X36527Y3415D01*
G01X36581Y3297D01*
G01X36463Y3351D01*
G01X36449Y3358D01*
G01X36435Y3351D01*
G01X36317Y3297D01*
G01X36371Y3415D01*
G01X36378Y3429D01*
G01X36371Y3443D01*
G01X36317Y3561D01*
G01X36281D01*
G01X36341Y3429D01*
G01X36250Y3230D01*
G01X36449Y3321D01*
G01X36649Y3230D01*
G01X36557Y3429D01*
G01X36649Y3629D01*
G01X36449Y3537D01*
G37*
G36*
G01X53014Y3375D02*
G01X53045Y3307D01*
G01X53081D01*
G01X53199Y3253D01*
G01X53213Y3246D01*
G01X53227Y3253D01*
G01X53345Y3307D01*
G01X53291Y3189D01*
G01X53284Y3175D01*
G01X53291Y3161D01*
G01X53345Y3043D01*
G01X53227Y3097D01*
G01X53213Y3104D01*
G01X53199Y3097D01*
G01X53081Y3043D01*
G01X53135Y3161D01*
G01X53142Y3175D01*
G01X53135Y3189D01*
G01X53081Y3307D01*
G01X53045D01*
G01X53105Y3175D01*
G01X53014Y2976D01*
G01X53213Y3067D01*
G01X53413Y2976D01*
G01X53321Y3175D01*
G01X53413Y3375D01*
G01X53213Y3283D01*
G37*
G36*
G01X55554Y3375D02*
G01X55585Y3307D01*
G01X55621D01*
G01X55739Y3253D01*
G01X55753Y3246D01*
G01X55767Y3253D01*
G01X55885Y3307D01*
G01X55831Y3189D01*
G01X55824Y3175D01*
G01X55831Y3161D01*
G01X55885Y3043D01*
G01X55767Y3097D01*
G01X55753Y3104D01*
G01X55739Y3097D01*
G01X55621Y3043D01*
G01X55675Y3161D01*
G01X55682Y3175D01*
G01X55675Y3189D01*
G01X55621Y3307D01*
G01X55585D01*
G01X55645Y3175D01*
G01X55554Y2976D01*
G01X55753Y3067D01*
G01X55953Y2976D01*
G01X55861Y3175D01*
G01X55953Y3375D01*
G01X55753Y3283D01*
G37*
G36*
G01X58094Y3375D02*
G01X58125Y3307D01*
G01X58161D01*
G01X58279Y3253D01*
G01X58293Y3246D01*
G01X58307Y3253D01*
G01X58425Y3307D01*
G01X58371Y3189D01*
G01X58364Y3175D01*
G01X58371Y3161D01*
G01X58425Y3043D01*
G01X58307Y3097D01*
G01X58293Y3104D01*
G01X58279Y3097D01*
G01X58161Y3043D01*
G01X58215Y3161D01*
G01X58222Y3175D01*
G01X58215Y3189D01*
G01X58161Y3307D01*
G01X58125D01*
G01X58185Y3175D01*
G01X58094Y2976D01*
G01X58293Y3067D01*
G01X58493Y2976D01*
G01X58401Y3175D01*
G01X58493Y3375D01*
G01X58293Y3283D01*
G37*
G36*
G01X60634Y3375D02*
G01X60665Y3307D01*
G01X60701D01*
G01X60819Y3253D01*
G01X60833Y3246D01*
G01X60847Y3253D01*
G01X60965Y3307D01*
G01X60911Y3189D01*
G01X60904Y3175D01*
G01X60911Y3161D01*
G01X60965Y3043D01*
G01X60847Y3097D01*
G01X60833Y3104D01*
G01X60819Y3097D01*
G01X60701Y3043D01*
G01X60755Y3161D01*
G01X60762Y3175D01*
G01X60755Y3189D01*
G01X60701Y3307D01*
G01X60665D01*
G01X60725Y3175D01*
G01X60634Y2976D01*
G01X60833Y3067D01*
G01X61033Y2976D01*
G01X60941Y3175D01*
G01X61033Y3375D01*
G01X60833Y3283D01*
G37*
G36*
G01X63174Y3375D02*
G01X63205Y3307D01*
G01X63241D01*
G01X63359Y3253D01*
G01X63373Y3246D01*
G01X63387Y3253D01*
G01X63505Y3307D01*
G01X63451Y3189D01*
G01X63444Y3175D01*
G01X63451Y3161D01*
G01X63505Y3043D01*
G01X63387Y3097D01*
G01X63373Y3104D01*
G01X63359Y3097D01*
G01X63241Y3043D01*
G01X63295Y3161D01*
G01X63302Y3175D01*
G01X63295Y3189D01*
G01X63241Y3307D01*
G01X63205D01*
G01X63265Y3175D01*
G01X63174Y2976D01*
G01X63373Y3067D01*
G01X63573Y2976D01*
G01X63481Y3175D01*
G01X63573Y3375D01*
G01X63373Y3283D01*
G37*
G36*
G01X84891Y23568D02*
G01X84922Y23500D01*
G01X84958D01*
G01X85076Y23446D01*
G01X85090Y23439D01*
G01X85104Y23446D01*
G01X85222Y23500D01*
G01X85168Y23382D01*
G01X85161Y23368D01*
G01X85168Y23354D01*
G01X85222Y23236D01*
G01X85104Y23290D01*
G01X85090Y23297D01*
G01X85076Y23290D01*
G01X84958Y23236D01*
G01X85012Y23354D01*
G01X85019Y23368D01*
G01X85012Y23382D01*
G01X84958Y23500D01*
G01X84922D01*
G01X84982Y23368D01*
G01X84891Y23169D01*
G01X85090Y23260D01*
G01X85289Y23169D01*
G01X85198Y23368D01*
G01X85289Y23568D01*
G01X85090Y23476D01*
G37*
G36*
G01X84891Y20647D02*
G01X84922Y20579D01*
G01X84958D01*
G01X85076Y20525D01*
G01X85090Y20518D01*
G01X85104Y20525D01*
G01X85222Y20579D01*
G01X85168Y20461D01*
G01X85161Y20447D01*
G01X85168Y20433D01*
G01X85222Y20315D01*
G01X85104Y20369D01*
G01X85090Y20376D01*
G01X85076Y20369D01*
G01X84958Y20315D01*
G01X85012Y20433D01*
G01X85019Y20447D01*
G01X85012Y20461D01*
G01X84958Y20579D01*
G01X84922D01*
G01X84982Y20447D01*
G01X84891Y20248D01*
G01X85090Y20339D01*
G01X85289Y20248D01*
G01X85198Y20447D01*
G01X85289Y20647D01*
G01X85090Y20555D01*
G37*
G04 Image End*
G54D10*

M02*
