G04 Layer: BottomSolderMaskLayer*
G04 EasyEDA Pro v1.7.27, 2022-07-12 11:29:45*
G04 Gerber Generator version 0.3*
G04 Scale: 100 percent, Rotated: No, Reflected: No*
G04 Dimensions in millimeters*
G04 Leading zeros omitted, absolute positions, 3 integers and 3 decimals*
%FSLAX33Y33*%
%MOMM*%
%ADD10C,1.901596*%
%ADD11C,1.6256*%
%ADD12C,1.624025*%
%ADD13C,1.500022*%
%ADD14C,1.609598*%
%ADD15C,2.203201*%
%ADD16C,0.6096*%
G75*


G04 Pad Start*
G54D10*
G01X67183Y25052D03*
G01X67183Y16352D03*
G01X67146Y3929D03*
G01X67146Y12629D03*
G54D11*
G01X88773Y17583D03*
G01X88773Y27883D03*
G54D12*
G01X61420Y22860D03*
G54D13*
G01X59420Y22860D03*
G36*
G01X58170Y22160D02*
G01X58170Y23560D01*
G03X58120Y23610I-50J0D01*
G01X56720D01*
G03X56670Y23560I0J-50D01*
G01Y22160D01*
G03X56720Y22110I50J0D01*
G01X58120D01*
G03X58170Y22160I0J50D01*
G37*
G01X55420Y22860D03*
G54D12*
G01X88519Y9104D03*
G01X88519Y6604D03*
G01X88519Y4104D03*
G54D14*
G01X21717Y26289D03*
G01X24257Y26289D03*
G01X26797Y26289D03*
G01X9017Y26289D03*
G01X11557Y26289D03*
G01X14097Y26289D03*
G01X16637Y26289D03*
G01X19177Y26289D03*
G01X9017Y3429D03*
G01X11557Y3429D03*
G01X14097Y3429D03*
G01X16637Y3429D03*
G01X19177Y3429D03*
G01X21717Y3429D03*
G01X24257Y3429D03*
G01X26797Y3429D03*
G36*
G01X70069Y27670D02*
G01X70069Y25670D01*
G03X70120Y25619I51J0D01*
G01X72120D01*
G03X72171Y25670I0J51D01*
G01Y27670D01*
G03X72120Y27721I-51J0D01*
G01X70120D01*
G03X70069Y27670I0J-51D01*
G37*
G36*
G01X70069Y4810D02*
G01X70069Y2810D01*
G03X70120Y2759I51J0D01*
G01X72120D01*
G03X72171Y2810I0J51D01*
G01Y4810D01*
G03X72120Y4861I-51J0D01*
G01X70120D01*
G03X70069Y4810I0J-51D01*
G37*
G36*
G01X84039Y4810D02*
G01X84039Y2810D01*
G03X84090Y2759I51J0D01*
G01X86090D01*
G03X86141Y2810I0J51D01*
G01Y4810D01*
G03X86090Y4861I-51J0D01*
G01X84090D01*
G03X84039Y4810I0J-51D01*
G37*
G36*
G01X84039Y27670D02*
G01X84039Y25670D01*
G03X84090Y25619I51J0D01*
G01X86090D01*
G03X86141Y25670I0J51D01*
G01Y27670D01*
G03X86090Y27721I-51J0D01*
G01X84090D01*
G03X84039Y27670I0J-51D01*
G37*
G36*
G01X80864Y4810D02*
G01X80864Y2810D01*
G03X80915Y2759I51J0D01*
G01X82915D01*
G03X82966Y2810I0J51D01*
G01Y4810D01*
G03X82915Y4861I-51J0D01*
G01X80915D01*
G03X80864Y4810I0J-51D01*
G37*
G36*
G01X73244Y4810D02*
G01X73244Y2810D01*
G03X73295Y2759I51J0D01*
G01X75295D01*
G03X75346Y2810I0J51D01*
G01Y4810D01*
G03X75295Y4861I-51J0D01*
G01X73295D01*
G03X73244Y4810I0J-51D01*
G37*
G54D15*
G01X36449Y26289D03*
G01X36449Y23749D03*
G01X36449Y21209D03*
G01X36449Y18669D03*
G01X36449Y16129D03*
G01X36449Y13589D03*
G01X36449Y11049D03*
G01X36449Y8509D03*
G01X36449Y5969D03*
G01X36449Y3429D03*
G01X53213Y3175D03*
G01X55753Y3175D03*
G01X58293Y3175D03*
G01X60833Y3175D03*
G36*
G01X62271Y4175D02*
G01X62271Y2175D01*
G03X62373Y2073I102J0D01*
G01X64373D01*
G03X64475Y2175I0J102D01*
G01Y4175D01*
G03X64373Y4277I-102J0D01*
G01X62373D01*
G03X62271Y4175I0J-102D01*
G37*
G36*
G01X84090Y22266D02*
G01X86090Y22266D01*
G03X86192Y22368I0J102D01*
G01Y24368D01*
G03X86090Y24470I-102J0D01*
G01X84090D01*
G03X83988Y24368I0J-102D01*
G01Y22368D01*
G03X84090Y22266I102J0D01*
G37*
G01X85090Y20447D03*
G04 Pad End*

G04 Via Start*
G54D16*
G01X49403Y19304D03*
G01X57404Y26543D03*
G01X10795Y1143D03*
G01X40804Y7345D03*
G01X27686Y16891D03*
G01X74930Y18415D03*
G04 Via End*

M02*
