G04 Layer: BottomSilkscreenLayer*
G04 EasyEDA Pro v1.7.27, 2022-07-12 11:29:45*
G04 Gerber Generator version 0.3*
G04 Scale: 100 percent, Rotated: No, Reflected: No*
G04 Dimensions in millimeters*
G04 Leading zeros omitted, absolute positions, 3 integers and 3 decimals*
%FSLAX33Y33*%
%MOMM*%
%ADD10C,0.151994*%
%ADD11C,0.152001*%
%ADD12C,0.254*%
G75*


G04 Text Start*
G04 //text: 别焊反了，这一面仅仅用来装   电池！！！*
G36*
G01X23174Y26444D02*
G01X23123Y26301D01*
G01X23077Y26172D01*
G01X23071Y26149D01*
G01X23070Y26143D01*
G01Y26141D01*
G01X23065Y26125D01*
G01X22976Y25872D01*
G01X22919Y25714D01*
G01X22884Y25609D01*
G01X22883Y25602D01*
G01X22882Y25597D01*
G01X22876Y25574D01*
G01X22854Y25509D01*
G01X22847Y25490D01*
G01X22830Y25437D01*
G01X22825Y25421D01*
G01Y25416D01*
G01X22824Y25413D01*
G01X22819Y25394D01*
G01X22761Y25228D01*
G01X22707Y25073D01*
G01X22699Y25046D01*
G01X22698Y25040D01*
G01X22697Y25033D01*
G01X22691Y25009D01*
G01X22676Y24965D01*
G01X22653Y24904D01*
G01X22744Y24871D01*
G01X22785Y24857D01*
G01X22815Y24849D01*
G01X22826Y24847D01*
G01X22835Y24846D01*
G01X22841Y24847D01*
G01X22845Y24849D01*
G01X22846Y24851D01*
G01X22854Y24869D01*
G01X22927Y25060D01*
G01X22983Y25213D01*
G01X23005Y25265D01*
G01X23008Y25271D01*
G01X23012Y25277D01*
G01X23023Y25300D01*
G01X23058Y25392D01*
G01X23065Y25407D01*
G01X23070Y25416D01*
G01X23071Y25417D01*
G01X23078Y25433D01*
G01X23173Y25683D01*
G01X23231Y25841D01*
G01X23271Y25944D01*
G01X23275Y25951D01*
G01X23277Y25953D01*
G01X23284Y25969D01*
G01X23355Y26157D01*
G01X23426Y26353D01*
G37*
G36*
G01X26039Y25402D02*
G01X25987Y25259D01*
G01X25942Y25130D01*
G01X25935Y25106D01*
G01X25934Y25101D01*
G01Y25099D01*
G01X25929Y25083D01*
G01X25840Y24830D01*
G01X25784Y24672D01*
G01X25748Y24567D01*
G01X25747Y24559D01*
G01X25746Y24555D01*
G01X25740Y24532D01*
G01X25718Y24467D01*
G01X25711Y24448D01*
G01X25694Y24394D01*
G01X25690Y24378D01*
G01X25689Y24374D01*
G01Y24371D01*
G01X25683Y24351D01*
G01X25626Y24186D01*
G01X25571Y24031D01*
G01X25563Y24004D01*
G01X25562Y23997D01*
G01X25561Y23990D01*
G01X25555Y23966D01*
G01X25540Y23922D01*
G01X25517Y23862D01*
G01X25609Y23828D01*
G01X25649Y23815D01*
G01X25679Y23806D01*
G01X25691Y23804D01*
G01X25699D01*
G01X25705D01*
G01X25709Y23806D01*
G01Y23807D01*
G01X25710Y23809D01*
G01X25718Y23826D01*
G01X25791Y24018D01*
G01X25848Y24170D01*
G01X25869Y24223D01*
G01X25872Y24229D01*
G01X25876Y24235D01*
G01X25887Y24257D01*
G01X25922Y24349D01*
G01X25929Y24364D01*
G01X25935Y24373D01*
G01X25936Y24375D01*
G01X25943Y24390D01*
G01X26037Y24641D01*
G01X26095Y24798D01*
G01X26136Y24902D01*
G01X26139Y24908D01*
G01X26141Y24910D01*
G01X26148Y24927D01*
G01X26219Y25115D01*
G01X26291Y25310D01*
G37*
G36*
G01X22465Y24550D02*
G01X22424Y24437D01*
G01X22388Y24331D01*
G01X22381Y24308D01*
G01X22380Y24301D01*
G01X22376Y24277D01*
G01X22510Y24229D01*
G01X22593Y24199D01*
G01X22640Y24184D01*
G01X22648Y24182D01*
G01X22651D01*
G01X22652Y24183D01*
G01X22654Y24186D01*
G01X22662Y24203D01*
G01X22698Y24298D01*
G01X22735Y24404D01*
G01X22741Y24427D01*
G01X22743Y24434D01*
G01X22746Y24457D01*
G01X22629Y24500D01*
G01X22519Y24538D01*
G01X22496Y24545D01*
G01X22489Y24546D01*
G37*
G36*
G01X28903Y24359D02*
G01X28851Y24216D01*
G01X28806Y24087D01*
G01X28799Y24064D01*
G01Y24058D01*
G01X28798Y24056D01*
G01X28793Y24040D01*
G01X28705Y23788D01*
G01X28648Y23630D01*
G01X28613Y23524D01*
G01X28611Y23517D01*
G01Y23512D01*
G01X28604Y23489D01*
G01X28582Y23424D01*
G01X28576Y23406D01*
G01X28558Y23351D01*
G01X28554Y23336D01*
G01Y23331D01*
G01X28553Y23328D01*
G01X28548Y23309D01*
G01X28490Y23143D01*
G01X28435Y22989D01*
G01X28427Y22961D01*
G01X28426Y22955D01*
G01X28425Y22948D01*
G01X28419Y22924D01*
G01X28404Y22880D01*
G01X28381Y22819D01*
G01X28473Y22786D01*
G01X28513Y22772D01*
G01X28544Y22764D01*
G01X28555Y22762D01*
G01X28563Y22761D01*
G01X28569Y22762D01*
G01X28573Y22764D01*
G01X28574Y22767D01*
G01X28582Y22783D01*
G01X28655Y22975D01*
G01X28712Y23128D01*
G01X28733Y23181D01*
G01X28737Y23186D01*
G01X28740Y23192D01*
G01X28751Y23215D01*
G01X28786Y23307D01*
G01X28793Y23322D01*
G01X28799Y23331D01*
G01X28800Y23332D01*
G01X28807Y23347D01*
G01X28901Y23598D01*
G01X28959Y23756D01*
G01X29000Y23859D01*
G01X29003Y23866D01*
G01X29005Y23868D01*
G01X29012Y23885D01*
G01X29084Y24073D01*
G01X29155Y24268D01*
G37*
G36*
G01X30834Y23912D02*
G01X30714Y23582D01*
G01X30620Y23335D01*
G01X30593Y23273D01*
G01X30584Y23258D01*
G01X30579Y23253D01*
G01X30572Y23254D01*
G01X30565Y23255D01*
G01X30559Y23258D01*
G01X30553Y23262D01*
G01X30539Y23272D01*
G01X30512Y23290D01*
G01X30504Y23296D01*
G01X30497Y23302D01*
G01X30489Y23313D01*
G01X30482Y23319D01*
G01X30468Y23329D01*
G01X30445Y23344D01*
G01X30435Y23351D01*
G01X30426Y23358D01*
G01X30405Y23379D01*
G01X30387Y23394D01*
G01X30358Y23414D01*
G01X30325Y23439D01*
G01X30298Y23456D01*
G01X30290Y23462D01*
G01X30282Y23469D01*
G01X30274Y23479D01*
G01X30268Y23486D01*
G01X30254Y23496D01*
G01X30231Y23510D01*
G01X30221Y23517D01*
G01X30212Y23524D01*
G01X30204Y23532D01*
G01X30188Y23546D01*
G01X30160Y23566D01*
G01X30143Y23579D01*
G01X30127Y23594D01*
G01X30118Y23601D01*
G01X30108Y23608D01*
G01X30085Y23622D01*
G01X30076Y23629D01*
G01X30068Y23636D01*
G01X30057Y23648D01*
G01X30051Y23654D01*
G01X30043Y23659D01*
G01X30035Y23662D01*
G01X30031Y23663D01*
G01X30027D01*
G01X30023Y23662D01*
G01X30020Y23661D01*
G01X30017Y23658D01*
G01X30014Y23653D01*
G01X30011Y23648D01*
G01X30004Y23630D01*
G01X29999Y23610D01*
G01X29998Y23599D01*
G01X29992Y23579D01*
G01X29933Y23409D01*
G01X29878Y23251D01*
G01X29869Y23223D01*
G01X29868Y23217D01*
G01X29867Y23210D01*
G01X29862Y23190D01*
G01X29846Y23143D01*
G01X29837Y23115D01*
G01X29833Y23096D01*
G01X29832Y23089D01*
G01X29826Y23068D01*
G01X29777Y22926D01*
G01X29729Y22789D01*
G01X29722Y22765D01*
G01X29721Y22759D01*
G01Y22751D01*
G01X29716Y22735D01*
G01X29700Y22686D01*
G01X29689Y22643D01*
G01X29684Y22624D01*
G01X29679Y22597D01*
G01X29677Y22570D01*
G01X29671Y22532D01*
G01X29670Y22521D01*
G01Y22510D01*
G01X29672Y22502D01*
G01X29675Y22485D01*
G01X29680Y22455D01*
G01X29682Y22446D01*
G01X29686Y22438D01*
G01X29690Y22431D01*
G01X29699Y22417D01*
G01X29704Y22402D01*
G01X29707Y22394D01*
G01X29712Y22386D01*
G01X29718Y22377D01*
G01X29743Y22353D01*
G01X29756Y22337D01*
G01X29760Y22334D01*
G01X29769Y22326D01*
G01X29785Y22316D01*
G01X29820Y22298D01*
G01X29844Y22284D01*
G01X29852Y22279D01*
G01X29856Y22277D01*
G01X29875Y22267D01*
G01X29962Y22234D01*
G01X30025Y22212D01*
G01X30053Y22205D01*
G01X30063Y22203D01*
G01X30070Y22202D01*
G01X30074Y22203D01*
G01X30080Y22206D01*
G01X30085Y22210D01*
G01X30090Y22215D01*
G01X30095Y22220D01*
G01X30105Y22235D01*
G01X30118Y22256D01*
G01X30144Y22301D01*
G01X30155Y22318D01*
G01X30169Y22338D01*
G01X30172Y22344D01*
G01X30174Y22351D01*
G01X30175Y22358D01*
G01Y22360D01*
G01X30174Y22362D01*
G01X30172Y22364D01*
G01X30170Y22366D01*
G01X30164Y22371D01*
G01X30148Y22380D01*
G01X30131Y22388D01*
G01X30097Y22401D01*
G01X30061Y22414D01*
G01X30008Y22436D01*
G01X29990Y22445D01*
G01X29976Y22453D01*
G01X29956Y22465D01*
G01X29938Y22478D01*
G01X29928Y22488D01*
G01X29918Y22497D01*
G01X29910Y22506D01*
G01X29903Y22516D01*
G01X29897Y22526D01*
G01X29893Y22537D01*
G01X29891Y22548D01*
G01X29890Y22560D01*
G01X29889Y22599D01*
G01Y22603D01*
G01X29892Y22617D01*
G01X29903Y22653D01*
G01X29908Y22673D01*
G01X29910Y22684D01*
G01X29915Y22704D01*
G01X29966Y22852D01*
G01X30015Y22992D01*
G01X30022Y23016D01*
G01X30023Y23023D01*
G01X30024Y23029D01*
G01X30029Y23049D01*
G01X30045Y23096D01*
G01X30054Y23124D01*
G01X30059Y23143D01*
G01X30060Y23152D01*
G01X30065Y23174D01*
G01X30092Y23253D01*
G01X30108Y23292D01*
G01X30120Y23319D01*
G01X30130Y23333D01*
G01X30137Y23335D01*
G01X30143Y23330D01*
G01X30181Y23303D01*
G01X30229Y23262D01*
G01X30267Y23233D01*
G01X30317Y23196D01*
G01X30323Y23191D01*
G01X30359Y23161D01*
G01X30389Y23135D01*
G01X30402Y23125D01*
G01X30430Y23108D01*
G01X30438Y23101D01*
G01X30445Y23095D01*
G01X30453Y23085D01*
G01X30461Y23078D01*
G01X30476Y23067D01*
G01X30489Y23060D01*
G01X30518Y23044D01*
G01X30312Y22480D01*
G01X30187Y22133D01*
G01X30105Y21897D01*
G01X30104Y21893D01*
G01X30100Y21869D01*
G01X30182Y21839D01*
G01X30235Y21822D01*
G01X30260Y21815D01*
G01X30276Y21813D01*
G01X30281D01*
G01X30283Y21815D01*
G01X30286Y21819D01*
G01X30294Y21833D01*
G01X30309Y21869D01*
G01X30489Y22342D01*
G01X30656Y22798D01*
G01X30687Y22875D01*
G01X30689Y22879D01*
G01X30691Y22881D01*
G01X30694Y22883D01*
G01X30697Y22884D01*
G01X30700D01*
G01X30705D01*
G01X30709Y22882D01*
G01X30713Y22881D01*
G01X30736Y22867D01*
G01X30749Y22856D01*
G01X30870Y22761D01*
G01X30908Y22734D01*
G01X30955Y22693D01*
G01X30961Y22689D01*
G01X31026Y22643D01*
G01X31053Y22623D01*
G01X30855Y22081D01*
G01X30652Y21540D01*
G01X30642Y21517D01*
G01X30638Y21511D01*
G01X30629Y21499D01*
G01X30620Y21488D01*
G01X30612Y21480D01*
G01X30578Y21454D01*
G01X30571Y21450D01*
G01X30563Y21446D01*
G01X30554Y21444D01*
G01X30544Y21442D01*
G01X30493Y21437D01*
G01X30483Y21438D01*
G01X30472Y21440D01*
G01X30451Y21447D01*
G01X30432Y21451D01*
G01X30425D01*
G01X30423D01*
G01X30410Y21455D01*
G01X30002Y21600D01*
G01X29613Y21744D01*
G01X29586Y21756D01*
G01X29583Y21758D01*
G01X29576Y21762D01*
G01X29561Y21770D01*
G01X29526Y21784D01*
G01X29512Y21791D01*
G01X29500Y21798D01*
G01X29488Y21807D01*
G01X29468Y21824D01*
G01X29455Y21838D01*
G01X29435Y21865D01*
G01X29431Y21873D01*
G01X29427Y21882D01*
G01X29425Y21892D01*
G01X29424Y21904D01*
G01Y21943D01*
G01X29425Y21951D01*
G01X29430Y21970D01*
G01X29448Y22023D01*
G01X29463Y22066D01*
G01X29473Y22097D01*
G01X29478Y22122D01*
G01X29480Y22132D01*
G01X29484Y22140D01*
G01X29492Y22152D01*
G01X29500Y22167D01*
G01X29510Y22196D01*
G01X29517Y22224D01*
G01X29519Y22239D01*
G01X29523Y22262D01*
G01X29524Y22274D01*
G01X29526Y22288D01*
G01X29538Y22324D01*
G01X29543Y22344D01*
G01Y22352D01*
G01Y22359D01*
G01X29540Y22363D01*
G01X29536Y22366D01*
G01X29530Y22367D01*
G01X29511Y22369D01*
G01X29487Y22372D01*
G01X29436Y22381D01*
G01X29424Y22383D01*
G01X29379Y22387D01*
G01X29364D01*
G01X29353Y22385D01*
G01X29345Y22379D01*
G01X29340Y22372D01*
G01X29336Y22364D01*
G01X29333Y22347D01*
G01Y22338D01*
G01X29330Y22325D01*
G01X29326Y22311D01*
G01X29317Y22282D01*
G01X29304Y22246D01*
G01X29301Y22233D01*
G01X29300Y22219D01*
G01X29294Y22197D01*
G01X29267Y22118D01*
G01X29237Y22031D01*
G01X29231Y22011D01*
G01X29230Y22004D01*
G01X29213Y21886D01*
G01X29212Y21858D01*
G01Y21845D01*
G01X29213Y21834D01*
G01X29214Y21824D01*
G01X29219Y21811D01*
G01X29226Y21790D01*
G01X29231Y21774D01*
G01X29244Y21753D01*
G01X29251Y21738D01*
G01X29255Y21726D01*
G01X29258Y21718D01*
G01X29264Y21710D01*
G01X29271Y21702D01*
G01X29291Y21684D01*
G01X29322Y21661D01*
G01X29364Y21630D01*
G01X29386Y21619D01*
G01X29496Y21577D01*
G01X29513Y21569D01*
G01X29522Y21564D01*
G01X29523Y21563D01*
G01X29535Y21557D01*
G01X29924Y21412D01*
G01X30313Y21275D01*
G01X30320Y21273D01*
G01X30322D01*
G01X30323Y21274D01*
G01X30327Y21273D01*
G01X30344Y21268D01*
G01X30387Y21254D01*
G01X30429Y21240D01*
G01X30453Y21234D01*
G01X30472Y21230D01*
G01X30482Y21229D01*
G01X30530Y21226D01*
G01X30573Y21225D01*
G01X30599Y21226D01*
G01X30619Y21228D01*
G01X30651Y21236D01*
G01X30673Y21243D01*
G01X30690Y21251D01*
G01X30716Y21266D01*
G01X30728Y21275D01*
G01X30739Y21283D01*
G01X30749Y21291D01*
G01X30758Y21300D01*
G01X30771Y21316D01*
G01X30794Y21346D01*
G01X30824Y21386D01*
G01X30828Y21395D01*
G01X31030Y21939D01*
G01X31227Y22481D01*
G01X31251Y22465D01*
G01X31282Y22442D01*
G01X31327Y22405D01*
G01X31378Y22368D01*
G01X31405Y22348D01*
G01X31421Y22366D01*
G01X31434Y22381D01*
G01X31457Y22412D01*
G01X31497Y22467D01*
G01X31505Y22479D01*
G01X31510Y22490D01*
G01X31512Y22499D01*
G01X31511Y22505D01*
G01X31508Y22512D01*
G01X31498Y22525D01*
G01X31484Y22540D01*
G01X31467Y22553D01*
G01X31447Y22566D01*
G01X31433Y22577D01*
G01X31388Y22614D01*
G01X31375Y22624D01*
G01X31347Y22642D01*
G01X31332Y22653D01*
G01X31318Y22664D01*
G01X31300Y22681D01*
G01X31552Y23375D01*
G01X31474Y23404D01*
G01X31398Y23429D01*
G01X31380Y23435D01*
G01X31350Y23439D01*
G01X31126Y22823D01*
G01X31085Y22849D01*
G01X31062Y22866D01*
G01X31014Y22903D01*
G01X30987Y22920D01*
G01X30979Y22927D01*
G01X30972Y22933D01*
G01X30964Y22943D01*
G01X30958Y22950D01*
G01X30946Y22959D01*
G01X30918Y22977D01*
G01X30899Y22992D01*
G01X30863Y23018D01*
G01X30834Y23046D01*
G01X30822Y23056D01*
G01X30807Y23067D01*
G01X30786Y23079D01*
G01X30762Y23093D01*
G01X30888Y23440D01*
G01X31017Y23806D01*
G01X31021Y23819D01*
G01X31028Y23851D01*
G01X30937Y23885D01*
G01X30882Y23902D01*
G01X30864Y23907D01*
G37*
G36*
G01X25329Y23507D02*
G01X25289Y23394D01*
G01X25252Y23288D01*
G01X25246Y23265D01*
G01X25244Y23258D01*
G01X25240Y23235D01*
G01X25375Y23186D01*
G01X25457Y23157D01*
G01X25504Y23142D01*
G01X25512Y23140D01*
G01X25515D01*
G01X25516D01*
G01X25518Y23143D01*
G01X25526Y23160D01*
G01X25562Y23256D01*
G01X25599Y23361D01*
G01X25605Y23384D01*
G01X25607Y23391D01*
G01X25610Y23415D01*
G01X25493Y23457D01*
G01X25384Y23496D01*
G01X25360Y23502D01*
G01X25353Y23504D01*
G37*
G36*
G01X32255Y23295D02*
G01X32250Y23293D01*
G01X32206Y23280D01*
G01X32160Y23267D01*
G01X32137Y23258D01*
G01X32119Y23253D01*
G01X32079Y23244D01*
G01X32070Y23242D01*
G01X32050Y23233D01*
G01X32026Y23227D01*
G01X31978Y23212D01*
G01X31947Y23202D01*
G01X31925Y23195D01*
G01X31913Y23190D01*
G01X31906Y23189D01*
G01X31899Y23188D01*
G01X31885Y23187D01*
G01X31878Y23186D01*
G01X31871Y23183D01*
G01X31864Y23178D01*
G01X31857Y23174D01*
G01X31849Y23170D01*
G01X31840Y23168D01*
G01X31821Y23164D01*
G01X31811Y23162D01*
G01X31803Y23158D01*
G01X31790Y23150D01*
G01X31783Y23147D01*
G01X31775Y23145D01*
G01X31761Y23144D01*
G01X31754Y23142D01*
G01X31747Y23139D01*
G01X31737Y23132D01*
G01X31728Y23128D01*
G01X31713Y23123D01*
G01X31688Y23117D01*
G01X31677Y23113D01*
G01X31668Y23109D01*
G01X31661Y23105D01*
G01X31658Y23102D01*
G01X31655Y23099D01*
G01X31653Y23095D01*
G01X31652Y23091D01*
G01X31651Y23086D01*
G01Y23081D01*
G01Y23075D01*
G01X31659Y23042D01*
G01X31667Y23014D01*
G01X31677Y22980D01*
G01X31684Y22947D01*
G01X31688Y22937D01*
G01X31692Y22928D01*
G01X31696Y22920D01*
G01X31701Y22914D01*
G01X31707Y22911D01*
G01X31712Y22910D01*
G01X31718Y22912D01*
G01X31729Y22917D01*
G01X31782Y22935D01*
G01X31804Y22945D01*
G01X31848Y22958D01*
G01X31865Y22966D01*
G01X31894Y22976D01*
G01X31963Y22999D01*
G01X31994Y23008D01*
G01X32016Y23015D01*
G01X32035Y23023D01*
G01X32059Y23029D01*
G01X32108Y23045D01*
G01X32146Y23056D01*
G01X32173Y23066D01*
G01X32216Y23079D01*
G01X32229Y23085D01*
G01X32235Y23087D01*
G01X32242D01*
G01X32256Y23088D01*
G01X32263Y23090D01*
G01X32270Y23093D01*
G01X32283Y23101D01*
G01X32291Y23104D01*
G01X32298Y23106D01*
G01X32308Y23107D01*
G01X32311Y23108D01*
G01X32313Y23110D01*
G01X32314Y23112D01*
G01X32315Y23117D01*
G01Y23121D01*
G01X32314Y23132D01*
G01X32309Y23158D01*
G01X32292Y23219D01*
G01X32285Y23241D01*
G01X32280Y23254D01*
G01X32276Y23270D01*
G01X32274Y23284D01*
G01X32272Y23288D01*
G01X32270Y23291D01*
G01X32267Y23293D01*
G01X32264Y23294D01*
G01X32260Y23295D01*
G37*
G36*
G01X34094Y22716D02*
G01X34037Y22559D01*
G01X33991Y22437D01*
G01X33972Y22390D01*
G01X33968Y22383D01*
G01X33956Y22363D01*
G01X33513Y22524D01*
G01X33106Y22667D01*
G01X33065Y22680D01*
G01X33058Y22681D01*
G01X33054D01*
G01X33053Y22680D01*
G01X33051Y22677D01*
G01X33044Y22665D01*
G01X33029Y22630D01*
G01X32786Y21985D01*
G01X33022D01*
G01X33187Y22436D01*
G01X33898Y22177D01*
G01X33824Y21974D01*
G01X33777Y21847D01*
G01X33741Y21757D01*
G01X33737Y21750D01*
G01X33727Y21734D01*
G01X33723Y21729D01*
G01X33720Y21727D01*
G01X33717D01*
G01X33704Y21730D01*
G01X33388Y21842D01*
G01X33085Y21955D01*
G01X33046Y21971D01*
G01X33022Y21985D01*
G01X32786D01*
G01X32784Y21979D01*
G01X32550Y21325D01*
G01X32782D01*
G01X32949Y21786D01*
G01X33280Y21666D01*
G01X33314Y21654D01*
G01X33933D01*
G01X34098Y22105D01*
G01X34783Y21855D01*
G01X34706Y21643D01*
G01X34646Y21480D01*
G01X34623Y21424D01*
G01X34620Y21418D01*
G01X34612Y21409D01*
G01X34604Y21404D01*
G01X34602Y21405D01*
G01X34589Y21408D01*
G01X34286Y21515D01*
G01X33982Y21629D01*
G01X33957Y21639D01*
G01X33933Y21654D01*
G01X33314D01*
G01X33615Y21547D01*
G01X33624Y21545D01*
G01X33631Y21544D01*
G01X33638Y21542D01*
G01X33644Y21540D01*
G01X33650Y21536D01*
G01Y21535D01*
G01X33651Y21534D01*
G01Y21533D01*
G01Y21530D01*
G01X33650Y21523D01*
G01X33646Y21501D01*
G01X33636Y21465D01*
G01X33579Y21301D01*
G01X33506Y21106D01*
G01X33494Y21076D01*
G01X33491Y21072D01*
G01X33489D01*
G01X33477Y21076D01*
G01X33134Y21198D01*
G01X32782Y21325D01*
G01X32550D01*
G01X32528Y21266D01*
G01X32523Y21248D01*
G01X32516Y21216D01*
G01X32950Y21058D01*
G01X33125Y20994D01*
G01X33694D01*
G01X33771Y21206D01*
G01X33820Y21339D01*
G01X33856Y21431D01*
G01X33860Y21439D01*
G01X33871Y21452D01*
G01X33880D01*
G01X33882Y21451D01*
G01X33894Y21445D01*
G01X34217Y21324D01*
G01X34547Y21204D01*
G01X34464Y20979D01*
G01X34392Y20784D01*
G01X34379Y20754D01*
G01X34376Y20750D01*
G01X34374D01*
G01X34361Y20754D01*
G01X34032Y20871D01*
G01X33694Y20994D01*
G01X33125D01*
G01X33331Y20917D01*
G01X33400Y20890D01*
G01X33424Y20876D01*
G01X33383Y20763D01*
G01X33345Y20661D01*
G01X33336Y20643D01*
G01X33332Y20637D01*
G01X33325Y20625D01*
G01X33319Y20612D01*
G01X33304Y20573D01*
G01X33296Y20554D01*
G01X33288Y20537D01*
G01X33279Y20523D01*
G01X33265Y20507D01*
G01X33258Y20499D01*
G01X33251Y20493D01*
G01X33245Y20489D01*
G01X33232Y20483D01*
G01X33212Y20469D01*
G01X33204Y20467D01*
G01X33196Y20465D01*
G01X33177Y20466D01*
G01X33169D01*
G01X33162Y20464D01*
G01X33153Y20461D01*
G01X33149Y20460D01*
G01X33140D01*
G01X33130Y20462D01*
G01X33106Y20470D01*
G01X33086Y20475D01*
G01X33077Y20476D01*
G01X33075D01*
G01X33061Y20480D01*
G01X32763Y20585D01*
G01X32693Y20611D01*
G01X32460Y20699D01*
G01X32453Y20704D01*
G01X32445Y20708D01*
G01X32431Y20716D01*
G01X32411Y20723D01*
G01X32390Y20732D01*
G01X32377Y20740D01*
G01X32367Y20747D01*
G01X32348Y20763D01*
G01X32329Y20783D01*
G01X32323Y20790D01*
G01X32312Y20804D01*
G01X32303Y20822D01*
G01X32289Y20842D01*
G01X32287Y20850D01*
G01X32286Y20858D01*
G01Y20867D01*
G01X32287Y20886D01*
G01X32285Y20909D01*
G01X32286Y20919D01*
G01X32289Y20937D01*
G01X32294Y20954D01*
G01X32322Y21037D01*
G01X32328Y21059D01*
G01Y21067D01*
G01X32331Y21081D01*
G01X32342Y21116D01*
G01X32347Y21136D01*
G01X32348Y21146D01*
G01Y21150D01*
G01X32354Y21170D01*
G01X32384Y21259D01*
G01X32409Y21334D01*
G01X32413Y21354D01*
G01X32412Y21362D01*
G01X32403Y21364D01*
G01X32376Y21370D01*
G01X32362Y21373D01*
G01X32341Y21375D01*
G01X32319Y21376D01*
G01X32257Y21379D01*
G01X32233Y21383D01*
G01X32205Y21388D01*
G01X32184Y21329D01*
G01X32175Y21301D01*
G01X32172Y21287D01*
G01X32170Y21278D01*
G01X32169Y21271D01*
G01X32164Y21248D01*
G01X32134Y21161D01*
G01X32128Y21140D01*
G01X32127Y21127D01*
G01X32122Y21108D01*
G01X32101Y21043D01*
G01X32089Y21003D01*
G01X32073Y20930D01*
G01X32070Y20914D01*
G01X32066Y20889D01*
G01X32064Y20865D01*
G01X32063Y20841D01*
G01Y20821D01*
G01X32065Y20800D01*
G01X32072Y20763D01*
G01X32077Y20739D01*
G01X32085Y20719D01*
G01X32092Y20705D01*
G01X32109Y20676D01*
G01X32116Y20664D01*
G01X32124Y20655D01*
G01X32132Y20647D01*
G01X32147Y20635D01*
G01X32160Y20623D01*
G01X32171Y20610D01*
G01X32178Y20604D01*
G01X32187Y20599D01*
G01X32202Y20593D01*
G01X32212Y20588D01*
G01X32221Y20582D01*
G01X32229Y20576D01*
G01X32233Y20571D01*
G01X32235Y20570D01*
G01X32244Y20565D01*
G01X32270Y20554D01*
G01X32681Y20399D01*
G01X32949Y20303D01*
G01X33116Y20247D01*
G01X33135Y20242D01*
G01X33140D01*
G01X33179D01*
G01X33187D01*
G01X33232Y20239D01*
G01X33252Y20240D01*
G01X33271Y20243D01*
G01X33289Y20247D01*
G01X33321Y20254D01*
G01X33336Y20260D01*
G01X33351Y20268D01*
G01X33385Y20295D01*
G01X33395Y20304D01*
G01X33404Y20312D01*
G01X33411Y20320D01*
G01X33422Y20336D01*
G01X33435Y20350D01*
G01X33449Y20366D01*
G01X33456Y20375D01*
G01X33462Y20386D01*
G01X33472Y20410D01*
G01X33481Y20429D01*
G01X33487Y20438D01*
G01X33496Y20457D01*
G01X33553Y20608D01*
G01X33600Y20733D01*
G01X33620Y20781D01*
G01X33624Y20788D01*
G01X33636Y20808D01*
G01X34513Y20489D01*
G01X34773Y21205D01*
G01X35036Y21939D01*
G01X35037Y21945D01*
G01X35041Y21968D01*
G01X34624Y22120D01*
G01X34259Y22255D01*
G01X34191Y22281D01*
G01X34167Y22296D01*
G01X34294Y22643D01*
G37*
G36*
G01X32168Y22579D02*
G01X32160Y22578D01*
G01X32128Y22570D01*
G01X32074Y22557D01*
G01X32065Y22555D01*
G01X32046Y22547D01*
G01X32023Y22540D01*
G01X31999Y22532D01*
G01X31982Y22526D01*
G01X31939Y22517D01*
G01X31916Y22510D01*
G01X31853Y22490D01*
G01X31822Y22481D01*
G01X31800Y22474D01*
G01X31781Y22466D01*
G01X31757Y22460D01*
G01X31708Y22444D01*
G01X31697Y22442D01*
G01X31687Y22440D01*
G01X31672Y22439D01*
G01X31665Y22437D01*
G01X31658Y22434D01*
G01X31647Y22428D01*
G01X31634Y22421D01*
G01X31622Y22416D01*
G01X31596Y22406D01*
G01X31565Y22398D01*
G01X31551Y22393D01*
G01X31546Y22390D01*
G01X31542Y22387D01*
G01X31540Y22385D01*
G01X31539Y22382D01*
G01X31538Y22376D01*
G01Y22367D01*
G01X31546Y22340D01*
G01X31558Y22283D01*
G01X31565Y22260D01*
G01X31577Y22214D01*
G01X31584Y22194D01*
G01X31586Y22191D01*
G01X31588Y22189D01*
G01X31590Y22188D01*
G01X31597D01*
G01X31601Y22190D01*
G01X31609Y22195D01*
G01X31619Y22200D01*
G01X31628Y22204D01*
G01X31636Y22206D01*
G01X31650Y22207D01*
G01X31658Y22209D01*
G01X31665Y22212D01*
G01X31678Y22220D01*
G01X31685Y22223D01*
G01X31692Y22226D01*
G01X31706Y22227D01*
G01X31713Y22228D01*
G01X31721Y22231D01*
G01X31731Y22238D01*
G01X31744Y22245D01*
G01X31756Y22250D01*
G01X31782Y22259D01*
G01X31813Y22268D01*
G01X31835Y22275D01*
G01X31854Y22282D01*
G01X31878Y22290D01*
G01X31913Y22300D01*
G01X31983Y22324D01*
G01X32022Y22335D01*
G01X32071Y22350D01*
G01X32111Y22362D01*
G01X32146Y22373D01*
G01X32202Y22392D01*
G01X32214Y22397D01*
G01X32221Y22402D01*
G01X32225Y22407D01*
G01X32224Y22413D01*
G01X32223Y22416D01*
G01X32220Y22427D01*
G01X32215Y22455D01*
G01X32211Y22471D01*
G01X32206Y22484D01*
G01X32199Y22506D01*
G01X32190Y22549D01*
G01X32187Y22560D01*
G01X32184Y22569D01*
G01X32181Y22575D01*
G01X32176Y22578D01*
G01X32174Y22579D01*
G01X32171D01*
G37*
G36*
G01X28194Y22465D02*
G01X28153Y22352D01*
G01X28116Y22246D01*
G01X28110Y22223D01*
G01X28108Y22216D01*
G01X28105Y22192D01*
G01X28239Y22144D01*
G01X28322Y22114D01*
G01X28368Y22099D01*
G01X28376Y22097D01*
G01X28380D01*
G01Y22098D01*
G01X28382Y22101D01*
G01X28390Y22118D01*
G01X28427Y22213D01*
G01X28463Y22319D01*
G01X28470Y22342D01*
G01X28471Y22349D01*
G01X28474Y22372D01*
G01X28358Y22415D01*
G01X28248Y22453D01*
G01X28224Y22460D01*
G01X28217Y22461D01*
G37*
G36*
G01X31481Y21976D02*
G01X31381Y21973D01*
G01X31363Y21972D01*
G01X31336Y21970D01*
G01X31327Y21968D01*
G01X31321Y21964D01*
G01X31319Y21959D01*
G01Y21951D01*
G01X31320Y21947D01*
G01X31323Y21928D01*
G01X31324Y21904D01*
G01Y21856D01*
G01Y21823D01*
G01X31327Y21784D01*
G01Y21724D01*
G01X31330Y21684D01*
G01Y21650D01*
G01Y21603D01*
G01X31336Y21398D01*
G01Y21317D01*
G01X31340Y21278D01*
G01Y21251D01*
G01Y21218D01*
G01X31342Y21191D01*
G01Y21171D01*
G01X31341Y21142D01*
G01X31343Y21112D01*
G01Y21093D01*
G01X31342Y21064D01*
G01X31344Y21033D01*
G01X31346Y20998D01*
G01Y20959D01*
G01Y20951D01*
G01X31343Y20916D01*
G01X31344Y20908D01*
G01X31345Y20901D01*
G01X31349Y20891D01*
G01X31350Y20887D01*
G01X31351Y20880D01*
G01Y20870D01*
G01X31349Y20848D01*
G01X31350Y20840D01*
G01X31352Y20832D01*
G01X31357Y20827D01*
G01X31363Y20823D01*
G01X31368Y20820D01*
G01X31374Y20819D01*
G01X31379D01*
G01X31391Y20821D01*
G01X31406Y20824D01*
G01X31422Y20826D01*
G01X31450Y20825D01*
G01X31461Y20826D01*
G01X31473Y20827D01*
G01X31499Y20831D01*
G01X31510Y20833D01*
G01X31521D01*
G01X31540D01*
G01X31546Y20836D01*
G01X31550Y20841D01*
G01X31552Y20849D01*
G01X31553Y20859D01*
G01Y20879D01*
G01X31550Y20911D01*
G01Y20938D01*
G01Y20972D01*
G01X31547Y21011D01*
G01Y21038D01*
G01Y21071D01*
G01X31545Y21098D01*
G01X31544Y21118D01*
G01X31546Y21146D01*
G01X31542Y21170D01*
G01X31541Y21188D01*
G01X31542Y21217D01*
G01X31539Y21256D01*
G01Y21272D01*
G01X31540Y21316D01*
G01Y21342D01*
G01X31539Y21352D01*
G01X31535Y21378D01*
G01X31536Y21406D01*
G01Y21425D01*
G01X31533Y21458D01*
G01Y21485D01*
G01Y21518D01*
G01X31530Y21557D01*
G01Y21585D01*
G01Y21618D01*
G01X31527Y21655D01*
G01X31529Y21683D01*
G01X31527Y21701D01*
G01X31525Y21713D01*
G01X31523Y21734D01*
G01Y21755D01*
G01X31522Y21788D01*
G01X31520Y21827D01*
G01Y21854D01*
G01X31519Y21887D01*
G01X31517Y21924D01*
G01X31518Y21952D01*
G01X31517Y21959D01*
G01X31516Y21965D01*
G01X31513Y21969D01*
G01X31511Y21971D01*
G01X31508Y21973D01*
G01X31505Y21974D01*
G01X31497Y21976D01*
G37*
G36*
G01X39468Y20789D02*
G01X39341Y20442D01*
G01X39024Y20557D01*
G01X38746Y20655D01*
G01X38700Y20668D01*
G01X38691Y20669D01*
G01X38687Y20667D01*
G01X38685Y20665D01*
G01X38683Y20663D01*
G01X38679Y20658D01*
G01X38669Y20644D01*
G01X38662Y20628D01*
G01X38655Y20609D01*
G01X38650Y20595D01*
G01X38643Y20571D01*
G01X38638Y20552D01*
G01X38636Y20537D01*
G01Y20531D01*
G01Y20530D01*
G01X38638Y20529D01*
G01X38639Y20527D01*
G01X38644Y20523D01*
G01X38656Y20516D01*
G01X38674Y20507D01*
G01X38723Y20485D01*
G01X38960Y20394D01*
G01X39281Y20277D01*
G01X39152Y19921D01*
G01X38882Y20019D01*
G01X38643Y20103D01*
G01X38602Y20114D01*
G01X38593Y20115D01*
G01X38590Y20114D01*
G01X38585Y20112D01*
G01X38583Y20110D01*
G01X38578Y20106D01*
G01X38572Y20099D01*
G01X38565Y20086D01*
G01X38559Y20075D01*
G01X38552Y20056D01*
G01X38547Y20043D01*
G01X38539Y20019D01*
G01X38535Y19999D01*
G01X38533Y19985D01*
G01X38534Y19979D01*
G01Y19978D01*
G01X38535Y19977D01*
G01X38536Y19976D01*
G01X38541Y19973D01*
G01X38560Y19962D01*
G01X38610Y19940D01*
G01X39187Y19722D01*
G01X39805Y19505D01*
G01X39838Y19496D01*
G01X39847Y19495D01*
G01X39851D01*
G01X39855Y19498D01*
G01X39858Y19502D01*
G01X39864Y19511D01*
G01X39873Y19531D01*
G01X39882Y19552D01*
G01X39886Y19564D01*
G01X39893Y19585D01*
G01X39897Y19603D01*
G01X39898Y19618D01*
G01Y19650D01*
G01X39334Y19855D01*
G01X39463Y20211D01*
G01X39789Y20092D01*
G01X40064Y19996D01*
G01X40077Y19992D01*
G01X40109Y19986D01*
G01X40129Y20042D01*
G01X40142Y20080D01*
G01X40150Y20108D01*
G01X40153Y20122D01*
G01X40157Y20145D01*
G01X39523Y20376D01*
G01X39583Y20541D01*
G01X39635Y20688D01*
G01X39643Y20714D01*
G01X39644Y20720D01*
G01X39643Y20727D01*
G01X39641Y20734D01*
G01X39638Y20739D01*
G01X39633Y20744D01*
G01X39627Y20748D01*
G01X39608Y20757D01*
G01X39574Y20771D01*
G01X39551Y20778D01*
G01X39531Y20784D01*
G01X39512Y20787D01*
G01X39504Y20788D01*
G37*
G36*
G01X40396Y20452D02*
G01X40184Y19870D01*
G01X40073Y19561D01*
G01X39970Y19270D01*
G01X39969Y19265D01*
G01X39965Y19242D01*
G01X40052Y19210D01*
G01X40091Y19196D01*
G01X40137Y19182D01*
G01X40145Y19181D01*
G01Y19182D01*
G01X40146D01*
G01X40147Y19184D01*
G01X40154Y19200D01*
G01X40224Y19384D01*
G01X40297Y19583D01*
G01X40315Y19567D01*
G01X40331Y19551D01*
G01X40346Y19533D01*
G01X40359Y19519D01*
G01X40388Y19491D01*
G01X40403Y19473D01*
G01X40416Y19459D01*
G01X40445Y19431D01*
G01X40460Y19413D01*
G01X40472Y19399D01*
G01X40502Y19371D01*
G01X40516Y19353D01*
G01X40529Y19339D01*
G01X40558Y19311D01*
G01X40565Y19303D01*
G01X40582Y19283D01*
G01X40607Y19254D01*
G01X40621Y19236D01*
G01X40634Y19222D01*
G01X40663Y19194D01*
G01X40678Y19176D01*
G01X40691Y19162D01*
G01X40713Y19141D01*
G01X40726Y19128D01*
G01X40752Y19098D01*
G01X40771Y19076D01*
G01X40778Y19070D01*
G01X40786Y19067D01*
G01X40794D01*
G01X40803Y19070D01*
G01X40807Y19072D01*
G01X40816Y19077D01*
G01X40828Y19088D01*
G01X40849Y19110D01*
G01X40876Y19137D01*
G01X40900Y19162D01*
G01X40907Y19171D01*
G01X40911Y19180D01*
G01X40913Y19189D01*
G01Y19197D01*
G01X40910Y19205D01*
G01X40905Y19213D01*
G01X40899Y19221D01*
G01X40877Y19242D01*
G01X40844Y19275D01*
G01X40829Y19288D01*
G01X40815Y19301D01*
G01X40795Y19325D01*
G01X40781Y19340D01*
G01X40751Y19369D01*
G01X40737Y19386D01*
G01X40724Y19401D01*
G01X40695Y19428D01*
G01X40680Y19446D01*
G01X40667Y19461D01*
G01X40638Y19488D01*
G01X40623Y19506D01*
G01X40610Y19521D01*
G01X40581Y19548D01*
G01X40566Y19566D01*
G01X40553Y19581D01*
G01X40524Y19608D01*
G01X40509Y19626D01*
G01X40496Y19641D01*
G01X40467Y19669D01*
G01X40453Y19686D01*
G01X40440Y19701D01*
G01X40410Y19729D01*
G01X40394Y19749D01*
G01X40383Y19760D01*
G01X40377Y19765D01*
G01Y19766D01*
G01X40376Y19767D01*
G01Y19771D01*
G01X40377Y19776D01*
G01X40381Y19796D01*
G01X40392Y19835D01*
G01X40475Y20074D01*
G01X40554Y20303D01*
G01X40567Y20353D01*
G01X40571Y20375D01*
G01X40572Y20384D01*
G01Y20389D01*
G01X40571Y20393D01*
G01X40569Y20395D01*
G01X40565Y20400D01*
G01X40556Y20407D01*
G01X40540Y20417D01*
G01X40525Y20424D01*
G01X40506Y20431D01*
G01X40482Y20439D01*
G01X40460Y20445D01*
G01X40441Y20449D01*
G01X40433Y20450D01*
G37*
G36*
G01X41036Y20095D02*
G01X41028Y20093D01*
G01X41024Y20090D01*
G01X41018Y20087D01*
G01X41004Y20083D01*
G01X40988Y20077D01*
G01X40968Y20064D01*
G01X40952Y20057D01*
G01X40929Y20050D01*
G01X40908Y20037D01*
G01X40893Y20030D01*
G01X40870Y20022D01*
G01X40849Y20009D01*
G01X40834Y20002D01*
G01X40811Y19994D01*
G01X40790Y19982D01*
G01X40775Y19975D01*
G01X40752Y19967D01*
G01X40731Y19954D01*
G01X40716Y19947D01*
G01X40692Y19939D01*
G01X40671Y19926D01*
G01X40657Y19919D01*
G01X40633Y19912D01*
G01X40613Y19899D01*
G01X40597Y19892D01*
G01X40586Y19888D01*
G01X40571Y19883D01*
G01X40560Y19877D01*
G01X40548Y19870D01*
G01X40537Y19863D01*
G01X40528Y19855D01*
G01X40522Y19849D01*
G01X40518Y19841D01*
G01X40517Y19835D01*
G01Y19829D01*
G01X40519Y19822D01*
G01X40528Y19808D01*
G01X40535Y19794D01*
G01X40540Y19777D01*
G01X40543Y19770D01*
G01X40549Y19762D01*
G01X40562Y19747D01*
G01X40567Y19739D01*
G01X40571Y19731D01*
G01X40576Y19715D01*
G01X40579Y19709D01*
G01X40584Y19703D01*
G01X40589Y19698D01*
G01X40592Y19696D01*
G01X40595Y19695D01*
G01X40598Y19694D01*
G01X40602Y19695D01*
G01X40606D01*
G01X40611Y19697D01*
G01X40620Y19702D01*
G01X40629Y19707D01*
G01X40647Y19715D01*
G01X40663Y19721D01*
G01X40669Y19724D01*
G01X40676Y19728D01*
G01X40685Y19739D01*
G01X40691Y19743D01*
G01X40698Y19746D01*
G01X40706Y19749D01*
G01X40721Y19754D01*
G01X40742Y19767D01*
G01X40757Y19774D01*
G01X40769Y19777D01*
G01X40778Y19782D01*
G01X40792Y19790D01*
G01X40812Y19805D01*
G01X40821Y19811D01*
G01X40831Y19816D01*
G01X40839Y19818D01*
G01X40854Y19824D01*
G01X40875Y19837D01*
G01X40890Y19843D01*
G01X40914Y19851D01*
G01X40935Y19864D01*
G01X40949Y19871D01*
G01X40973Y19879D01*
G01X40994Y19892D01*
G01X41009Y19899D01*
G01X41032Y19906D01*
G01X41053Y19920D01*
G01X41068Y19926D01*
G01X41083Y19931D01*
G01X41090Y19934D01*
G01X41096Y19939D01*
G01X41101Y19944D01*
G01X41104Y19950D01*
G01X41105Y19956D01*
G01X41104Y19962D01*
G01X41096Y19976D01*
G01X41089Y19991D01*
G01X41081Y20014D01*
G01X41068Y20035D01*
G01X41061Y20050D01*
G01X41054Y20073D01*
G01X41045Y20087D01*
G37*
G36*
G01X38319Y19634D02*
G01X38291Y19556D01*
G01X38274Y19506D01*
G01X38268Y19483D01*
G01X38266Y19467D01*
G01X38267Y19462D01*
G01X38269Y19460D01*
G01X38272Y19457D01*
G01X38286Y19450D01*
G01X38324Y19433D01*
G01X38783Y19259D01*
G01X39172Y19119D01*
G01X39313Y19071D01*
G01X39328Y19067D01*
G01X39335Y19063D01*
G01X39340Y19058D01*
G01X39341Y19052D01*
G01Y19047D01*
G01X39340Y19044D01*
G01X39338Y19040D01*
G01X39335Y19036D01*
G01X39332Y19032D01*
G01X39325Y19024D01*
G01X39299Y19004D01*
G01X39265Y18980D01*
G01X39221Y18946D01*
G01X39213Y18942D01*
G01X39200Y18935D01*
G01X39181Y18923D01*
G01X39147Y18896D01*
G01X39137Y18888D01*
G01X39127Y18882D01*
G01X39118Y18878D01*
G01X39110Y18875D01*
G01X39102Y18872D01*
G01X39094Y18869D01*
G01X39086Y18864D01*
G01X39071Y18850D01*
G01X39063Y18845D01*
G01X39056Y18841D01*
G01X39039Y18837D01*
G01X39025Y18830D01*
G01X39010Y18820D01*
G01X38997Y18812D01*
G01X38975Y18802D01*
G01X38969Y18800D01*
G01X38964D01*
G01X38960D01*
G01X38955Y18801D01*
G01X38950Y18802D01*
G01X38946Y18805D01*
G01X38943Y18808D01*
G01X38907Y18846D01*
G01X38873Y18878D01*
G01X38865Y18887D01*
G01X38857Y18896D01*
G01X38844Y18915D01*
G01X38837Y18924D01*
G01X38828Y18933D01*
G01X38810Y18950D01*
G01X38797Y18964D01*
G01X38768Y18997D01*
G01X38750Y19013D01*
G01X38746Y19019D01*
G01X38742Y19024D01*
G01X38735Y19036D01*
G01X38730Y19043D01*
G01X38706Y19066D01*
G01X38694Y19080D01*
G01X38689Y19090D01*
G01X38684Y19096D01*
G01X38675Y19107D01*
G01X38650Y19131D01*
G01X38611Y19180D01*
G01X38599Y19194D01*
G01X38572Y19223D01*
G01X38540Y19261D01*
G01X38533Y19268D01*
G01X38526Y19274D01*
G01X38519Y19277D01*
G01X38516Y19278D01*
G01X38512D01*
G01X38508D01*
G01X38504Y19276D01*
G01X38499Y19275D01*
G01X38495Y19272D01*
G01X38466Y19251D01*
G01X38459Y19246D01*
G01X38446Y19238D01*
G01X38439Y19233D01*
G01X38415Y19210D01*
G01X38401Y19198D01*
G01X38390Y19191D01*
G01X38387Y19186D01*
G01X38384Y19181D01*
G01X38383Y19174D01*
G01Y19170D01*
G01X38384Y19167D01*
G01X38385Y19163D01*
G01X38387Y19159D01*
G01X38391Y19152D01*
G01X38404Y19136D01*
G01X38428Y19108D01*
G01X38465Y19062D01*
G01X38479Y19049D01*
G01X38488Y19040D01*
G01X38506Y19014D01*
G01X38519Y19000D01*
G01X38530Y18990D01*
G01X38534Y18985D01*
G01X38538Y18979D01*
G01X38543Y18971D01*
G01X38547Y18964D01*
G01X38557Y18953D01*
G01X38582Y18930D01*
G01X38596Y18912D01*
G01X38610Y18898D01*
G01X38631Y18877D01*
G01X38645Y18863D01*
G01X38670Y18833D01*
G01X38689Y18812D01*
G01X38746Y18752D01*
G01X38751Y18745D01*
G01X38754Y18739D01*
G01X38755Y18734D01*
G01X38752Y18730D01*
G01X38750Y18728D01*
G01X38744Y18725D01*
G01X38730Y18720D01*
G01X38586Y18690D01*
G01X38567Y18687D01*
G01X38527Y18684D01*
G01X38508Y18681D01*
G01X38492Y18679D01*
G01X38463Y18680D01*
G01X38453Y18679D01*
G01X38440Y18678D01*
G01X38415Y18674D01*
G01X38403Y18673D01*
G01X38393D01*
G01X38373Y18674D01*
G01X38356Y18673D01*
G01X38343Y18670D01*
G01X38334Y18669D01*
G01X38319D01*
G01X38297Y18672D01*
G01X38275Y18673D01*
G01X38254Y18671D01*
G01X38234D01*
G01X38205Y18672D01*
G01X38175Y18670D01*
G01X38153Y18671D01*
G01X38120Y18675D01*
G01X38087Y18677D01*
G01X38054Y18682D01*
G01X38036Y18683D01*
G01X38005D01*
G01X37987Y18684D01*
G01X37969Y18686D01*
G01X37959D01*
G01X37952Y18685D01*
G01X37947Y18681D01*
G01X37946Y18675D01*
G01Y18667D01*
G01X37943Y18632D01*
G01X37944Y18614D01*
G01X37946Y18602D01*
G01X37949Y18582D01*
G01X37950Y18565D01*
G01X37952Y18515D01*
G01X37953Y18504D01*
G01X37955Y18494D01*
G01X37959Y18487D01*
G01X37964Y18481D01*
G01X37967Y18479D01*
G01X37970Y18477D01*
G01X37974Y18476D01*
G01X37978Y18475D01*
G01X37986Y18474D01*
G01X38007Y18475D01*
G01X38018D01*
G01X38030Y18474D01*
G01X38057Y18470D01*
G01X38070Y18468D01*
G01X38081D01*
G01X38113Y18470D01*
G01X38147Y18466D01*
G01X38169D01*
G01X38190Y18467D01*
G01X38210Y18468D01*
G01X38240Y18466D01*
G01X38263D01*
G01X38462Y18472D01*
G01X38485Y18473D01*
G01X38507Y18477D01*
G01X38526Y18481D01*
G01X38556Y18482D01*
G01X38575Y18484D01*
G01X38595Y18487D01*
G01X38701Y18508D01*
G01X38726Y18514D01*
G01X38826Y18541D01*
G01X38876Y18557D01*
G01X38932Y18576D01*
G01X38958Y18585D01*
G01X38986Y18598D01*
G01X39004Y18604D01*
G01X39016Y18607D01*
G01X39030Y18613D01*
G01X39041Y18618D01*
G01X39076Y18639D01*
G01X39096Y18649D01*
G01X39126Y18663D01*
G01X39137Y18668D01*
G01X39163Y18684D01*
G01X39174Y18691D01*
G01X39184Y18698D01*
G01X39192Y18705D01*
G01X39202Y18716D01*
G01X39208Y18720D01*
G01X39215Y18723D01*
G01X39230Y18728D01*
G01X39245Y18735D01*
G01X39318Y18785D01*
G01X39372Y18824D01*
G01X39406Y18851D01*
G01X39420Y18863D01*
G01X39449Y18889D01*
G01X39462Y18899D01*
G01X39476Y18909D01*
G01X39485Y18913D01*
G01X39493Y18915D01*
G01X39500Y18913D01*
G01X39505Y18908D01*
G01X39527Y18875D01*
G01X39533Y18866D01*
G01X39542Y18848D01*
G01X39545Y18836D01*
G01X39549Y18827D01*
G01X39557Y18813D01*
G01X39573Y18792D01*
G01X39579Y18783D01*
G01X39583Y18774D01*
G01X39588Y18758D01*
G01X39595Y18743D01*
G01X39604Y18729D01*
G01X39617Y18708D01*
G01X39627Y18692D01*
G01X39651Y18659D01*
G01X39657Y18652D01*
G01X39667Y18633D01*
G01X39721Y18554D01*
G01Y18553D01*
G01X39722Y18551D01*
G01Y18548D01*
G01X39721Y18541D01*
G01X39716Y18519D01*
G01X39705Y18480D01*
G01X39653Y18329D01*
G01X39604Y18196D01*
G01X39567Y18104D01*
G01X39563Y18095D01*
G01X39551Y18076D01*
G01X39468Y18142D01*
G01X39411Y18190D01*
G01X39397Y18200D01*
G01X39369Y18218D01*
G01X39353Y18232D01*
G01X39337Y18246D01*
G01X39328Y18253D01*
G01X39318Y18261D01*
G01X39295Y18275D01*
G01X39284Y18283D01*
G01X39274Y18293D01*
G01X39256Y18312D01*
G01X39247Y18321D01*
G01X39238Y18329D01*
G01X39218Y18342D01*
G01X39203Y18353D01*
G01X39159Y18390D01*
G01X39145Y18400D01*
G01X39119Y18418D01*
G01X39110Y18424D01*
G01X39103Y18430D01*
G01X39092Y18443D01*
G01X39085Y18449D01*
G01X39076Y18454D01*
G01X39066Y18458D01*
G01X39056Y18461D01*
G01X39047D01*
G01X39041Y18459D01*
G01X39035Y18455D01*
G01X39017Y18432D01*
G01X39012Y18425D01*
G01X39004Y18407D01*
G01X38994Y18381D01*
G01X38985Y18355D01*
G01X38979Y18332D01*
G01X38976Y18319D01*
G01Y18308D01*
G01X38977Y18299D01*
G01X38982Y18292D01*
G01X38988Y18285D01*
G01X39004Y18273D01*
G01X39026Y18252D01*
G01X39041Y18240D01*
G01X39065Y18222D01*
G01X39112Y18181D01*
G01X39119Y18176D01*
G01X39156Y18149D01*
G01X39204Y18108D01*
G01X39381Y17968D01*
G01X39417Y17937D01*
G01X39447Y17912D01*
G01X39453Y17907D01*
G01X39491Y17880D01*
G01X39539Y17839D01*
G01X39545Y17834D01*
G01X39582Y17807D01*
G01X39630Y17767D01*
G01X39658Y17747D01*
G01X39665Y17742D01*
G01X39671Y17740D01*
G01X39676Y17741D01*
G01X39681Y17743D01*
G01X39690Y17751D01*
G01X39705Y17763D01*
G01X39720Y17777D01*
G01X39733Y17793D01*
G01X39755Y17818D01*
G01X39773Y17837D01*
G01X39778Y17845D01*
G01X39780Y17852D01*
G01X39782Y17859D01*
G01X39781Y17863D01*
G01Y17866D01*
G01X39778Y17875D01*
G01X39772Y17884D01*
G01X39751Y17913D01*
G01X39743Y17927D01*
G01X39738Y17940D01*
G01X39733Y17956D01*
G01Y17962D01*
G01X39736Y17976D01*
G01X39745Y18006D01*
G01X39799Y18163D01*
G01X39868Y18353D01*
G01X39895Y18329D01*
G01X39907Y18314D01*
G01X39913Y18305D01*
G01X39917Y18299D01*
G01X39926Y18288D01*
G01X39944Y18271D01*
G01X39958Y18258D01*
G01X39983Y18228D01*
G01X40001Y18206D01*
G01X40122Y18079D01*
G01X40165Y18039D01*
G01X40179Y18021D01*
G01X40192Y18007D01*
G01X40218Y17983D01*
G01X40252Y17949D01*
G01X40275Y17932D01*
G01X40283Y17924D01*
G01X40292Y17916D01*
G01X40309Y17896D01*
G01X40317Y17888D01*
G01X40325Y17881D01*
G01X40340Y17869D01*
G01X40353Y17857D01*
G01X40361Y17847D01*
G01X40367Y17840D01*
G01X40379Y17831D01*
G01X40389Y17825D01*
G01X40394Y17822D01*
G01X40398Y17821D01*
G01X40403Y17820D01*
G01X40408D01*
G01X40412Y17822D01*
G01X40417Y17824D01*
G01X40421Y17827D01*
G01X40425Y17831D01*
G01X40492Y17905D01*
G01X40507Y17922D01*
G01X40515Y17928D01*
G01X40527Y17939D01*
G01X40531Y17945D01*
G01X40532Y17952D01*
G01X40531Y17960D01*
G01X40530Y17964D01*
G01X40528Y17968D01*
G01X40522Y17976D01*
G01X40515Y17985D01*
G01X40499Y17998D01*
G01X40463Y18029D01*
G01X40426Y18062D01*
G01X40412Y18074D01*
G01X40379Y18107D01*
G01X40367Y18117D01*
G01X40344Y18136D01*
G01X40333Y18146D01*
G01X40320Y18162D01*
G01X40306Y18177D01*
G01X40271Y18207D01*
G01X40264Y18214D01*
G01X40255Y18225D01*
G01X40242Y18239D01*
G01X40216Y18264D01*
G01X40189Y18291D01*
G01X40155Y18323D01*
G01X40141Y18337D01*
G01X40128Y18352D01*
G01X40099Y18390D01*
G01X40086Y18404D01*
G01X40057Y18432D01*
G01X40040Y18453D01*
G01X40026Y18465D01*
G01X40012Y18476D01*
G01X40006Y18483D01*
G01X40002Y18490D01*
G01X39999Y18497D01*
G01X39996Y18505D01*
G01X39992Y18514D01*
G01X39985Y18522D01*
G01X39960Y18546D01*
G01X39922Y18594D01*
G01X39907Y18613D01*
G01X39902Y18621D01*
G01X39898Y18630D01*
G01X39891Y18640D01*
G01X39876Y18658D01*
G01X39861Y18677D01*
G01X39850Y18694D01*
G01X39830Y18724D01*
G01X39803Y18759D01*
G01X39799Y18767D01*
G01X39789Y18785D01*
G01X39774Y18806D01*
G01X39747Y18849D01*
G01X39729Y18876D01*
G01X39725Y18883D01*
G01X39722Y18890D01*
G01X39721Y18899D01*
G01X39722Y18908D01*
G01X39723Y18916D01*
G01X39726Y18920D01*
G01X39730D01*
G01X39735Y18918D01*
G01X39736Y18917D01*
G01X39747Y18912D01*
G01X40206Y18741D01*
G01X40451Y18653D01*
G01X40666Y18580D01*
G01X40686Y18576D01*
G01X40691Y18575D01*
G01X40716Y18576D01*
G01X40738Y18636D01*
G01X40752Y18677D01*
G01X40761Y18706D01*
G01X40763Y18720D01*
G01X40767Y18744D01*
G01X40190Y18953D01*
G01X39720Y19126D01*
G01X39605Y19171D01*
G01X39602Y19173D01*
G01X39599Y19175D01*
G01X39598Y19178D01*
G01X39597Y19181D01*
G01Y19184D01*
G01X39598Y19188D01*
G01X39600Y19192D01*
G01X39607Y19200D01*
G01X39622Y19217D01*
G01X39640Y19231D01*
G01X39654Y19245D01*
G01X39674Y19266D01*
G01X39689Y19278D01*
G01X39695Y19281D01*
G01X39701Y19285D01*
G01X39708Y19290D01*
G01X39731Y19314D01*
G01X39745Y19326D01*
G01X39758Y19333D01*
G01X39763Y19338D01*
G01X39769Y19344D01*
G01X39774Y19351D01*
G01X39776Y19355D01*
G01X39777Y19359D01*
G01Y19363D01*
G01X39776Y19367D01*
G01X39774Y19372D01*
G01X39771Y19376D01*
G01X39767Y19380D01*
G01X39737Y19406D01*
G01X39710Y19432D01*
G01X39688Y19449D01*
G01X39675Y19461D01*
G01X39664Y19474D01*
G01X39657Y19478D01*
G01X39649Y19481D01*
G01X39641Y19483D01*
G01X39636D01*
G01X39631D01*
G01X39627Y19481D01*
G01X39622Y19480D01*
G01X39618Y19477D01*
G01X39613Y19474D01*
G01X39589Y19450D01*
G01X39582Y19443D01*
G01X39561Y19427D01*
G01X39547Y19414D01*
G01X39487Y19357D01*
G01X39472Y19344D01*
G01X39455Y19330D01*
G01X39440Y19317D01*
G01X39420Y19295D01*
G01X39406Y19282D01*
G01X39391Y19269D01*
G01X39370Y19252D01*
G37*
G36*
G01X41726Y19594D02*
G01X41653Y19394D01*
G01X42633Y19037D01*
G01X42368Y18308D01*
G01X41822Y18507D01*
G01X41443Y18644D01*
G01X41256Y18709D01*
G01X41251Y18710D01*
G01X41228Y18713D01*
G01X41165Y18540D01*
G01X42215Y18157D01*
G01X42205Y18142D01*
G01X42199Y18135D01*
G01X42192Y18129D01*
G01X42185Y18125D01*
G01X42174Y18121D01*
G01X42165Y18117D01*
G01X42151Y18109D01*
G01X42130Y18093D01*
G01X42121Y18087D01*
G01X42112Y18083D01*
G01X42095Y18078D01*
G01X42081Y18071D01*
G01X42060Y18058D01*
G01X42036Y18050D01*
G01X42021Y18044D01*
G01X42000Y18030D01*
G01X41977Y18023D01*
G01X41962Y18016D01*
G01X41941Y18003D01*
G01X41918Y17995D01*
G01X41903Y17988D01*
G01X41890Y17980D01*
G01X41883Y17977D01*
G01X41875Y17975D01*
G01X41861Y17974D01*
G01X41854Y17972D01*
G01X41847Y17969D01*
G01X41837Y17962D01*
G01X41823Y17955D01*
G01X41812Y17950D01*
G01X41786Y17941D01*
G01X41755Y17932D01*
G01X41733Y17925D01*
G01X41713Y17918D01*
G01X41690Y17911D01*
G01X41641Y17895D01*
G01X41610Y17886D01*
G01X41555Y17871D01*
G01X41523Y17864D01*
G01X41481Y17855D01*
G01X41399Y17835D01*
G01X41368Y17831D01*
G01X41332Y17825D01*
G01X41272Y17813D01*
G01X41234Y17807D01*
G01X41200Y17801D01*
G01X41178Y17800D01*
G01X41172Y17799D01*
G01X41165Y17797D01*
G01X41156Y17794D01*
G01X41149Y17792D01*
G01X41134Y17789D01*
G01X41100Y17787D01*
G01X41077Y17783D01*
G01X41058Y17780D01*
G01X41040Y17779D01*
G01X40991Y17777D01*
G01X40968Y17776D01*
G01X40949Y17773D01*
G01X40933Y17770D01*
G01X40910Y17771D01*
G01X40900D01*
G01X40884Y17769D01*
G01X40874Y17766D01*
G01X40864Y17762D01*
G01X40858Y17757D01*
G01X40855Y17751D01*
G01Y17743D01*
G01X40856Y17739D01*
G01X40858Y17718D01*
G01X40859Y17672D01*
G01X40860Y17662D01*
G01X40863Y17648D01*
G01X40865Y17629D01*
G01X40867Y17594D01*
G01X40870Y17566D01*
G01X40872Y17557D01*
G01X40875Y17551D01*
G01X40880Y17547D01*
G01X40886Y17545D01*
G01X40926Y17546D01*
G01X40948Y17547D01*
G01X40971Y17551D01*
G01X40991Y17554D01*
G01X41026Y17556D01*
G01X41054Y17558D01*
G01X41073Y17561D01*
G01X41094Y17566D01*
G01X41113Y17568D01*
G01X41142Y17570D01*
G01X41161Y17573D01*
G01X41171Y17577D01*
G01X41178Y17579D01*
G01X41193Y17581D01*
G01X41227Y17583D01*
G01X41246Y17586D01*
G01X41278Y17595D01*
G01X41320Y17604D01*
G01X41343Y17609D01*
G01X41352Y17611D01*
G01X41365Y17616D01*
G01X41374Y17618D01*
G01X41408Y17621D01*
G01X41420Y17623D01*
G01X41431Y17625D01*
G01X41442Y17628D01*
G01X41642Y17683D01*
G01X41668Y17693D01*
G01X41690Y17700D01*
G01X41711Y17707D01*
G01X41729Y17714D01*
G01X41758Y17725D01*
G01X41771Y17729D01*
G01X41810Y17740D01*
G01X41825Y17747D01*
G01X41838Y17756D01*
G01X41845Y17759D01*
G01X41852Y17761D01*
G01X41867Y17762D01*
G01X41874Y17763D01*
G01X41881Y17766D01*
G01X41894Y17775D01*
G01X41909Y17782D01*
G01X41932Y17790D01*
G01X41954Y17803D01*
G01X41968Y17809D01*
G01X41992Y17818D01*
G01X42013Y17830D01*
G01X42027Y17837D01*
G01X42051Y17845D01*
G01X42072Y17858D01*
G01X42087Y17865D01*
G01X42099Y17868D01*
G01X42108Y17872D01*
G01X42121Y17881D01*
G01X42142Y17896D01*
G01X42151Y17902D01*
G01X42160Y17906D01*
G01X42169Y17909D01*
G01X42184Y17915D01*
G01X42199Y17923D01*
G01X42211Y17930D01*
G01X42217Y17933D01*
G01X42222Y17934D01*
G01Y17932D01*
G01Y17928D01*
G01X42214Y17899D01*
G01X42059Y17458D01*
G01X41904Y17020D01*
G01X41891Y16975D01*
G01X41889Y16968D01*
G01Y16964D01*
G01X41890Y16961D01*
G01X41892Y16959D01*
G01X41895Y16956D01*
G01X41902Y16950D01*
G01X41920Y16941D01*
G01X41936Y16933D01*
G01X41971Y16919D01*
G01X42032Y16899D01*
G01X42050Y16894D01*
G01X42056Y16893D01*
G01X42060D01*
G01X42061Y16894D01*
G01X42063Y16897D01*
G01X42076Y16926D01*
G01X42239Y17358D01*
G01X42395Y17782D01*
G01X42415Y17830D01*
G01X42416Y17834D01*
G01X42425Y17839D01*
G01X42431Y17833D01*
G01X42438Y17821D01*
G01X42451Y17801D01*
G01X42458Y17786D01*
G01X42462Y17770D01*
G01X42472Y17744D01*
G01X42479Y17722D01*
G01X42485Y17707D01*
G01X42498Y17686D01*
G01X42504Y17671D01*
G01X42512Y17647D01*
G01X42525Y17627D01*
G01X42532Y17612D01*
G01X42540Y17588D01*
G01X42553Y17568D01*
G01X42560Y17553D01*
G01X42567Y17529D01*
G01X42581Y17508D01*
G01X42587Y17493D01*
G01X42591Y17481D01*
G01X42596Y17467D01*
G01X42602Y17456D01*
G01X42622Y17422D01*
G01X42633Y17401D01*
G01X42645Y17382D01*
G01X42658Y17362D01*
G01X42664Y17351D01*
G01X42667Y17345D01*
G01X42673Y17340D01*
G01X42683Y17330D01*
G01X42687Y17325D01*
G01X42691Y17318D01*
G01X42695Y17302D01*
G01X42702Y17288D01*
G01X42712Y17274D01*
G01X42724Y17252D01*
G01X42733Y17237D01*
G01X42761Y17201D01*
G01X42777Y17176D01*
G01X42784Y17165D01*
G01X42802Y17138D01*
G01X42822Y17111D01*
G01X42865Y17056D01*
G01X42888Y17022D01*
G01X42908Y16996D01*
G01X42946Y16948D01*
G01X42966Y16926D01*
G01X42990Y16898D01*
G01X43019Y16860D01*
G01X43033Y16845D01*
G01X43054Y16825D01*
G01X43066Y16811D01*
G01X43073Y16799D01*
G01X43077Y16793D01*
G01X43083Y16788D01*
G01X43098Y16777D01*
G01X43104Y16772D01*
G01X43108Y16766D01*
G01X43113Y16757D01*
G01X43118Y16750D01*
G01X43128Y16740D01*
G01X43152Y16716D01*
G01X43159Y16708D01*
G01X43170Y16695D01*
G01X43176Y16690D01*
G01X43184Y16685D01*
G01X43192Y16682D01*
G01X43200Y16680D01*
G01X43207D01*
G01X43213Y16682D01*
G01X43218Y16687D01*
G01X43221Y16690D01*
G01X43234Y16703D01*
G01X43258Y16724D01*
G01X43272Y16737D01*
G01X43301Y16767D01*
G01X43319Y16782D01*
G01X43325Y16788D01*
G01X43335Y16800D01*
G01X43341Y16809D01*
G01X43350Y16825D01*
G01X43351Y16831D01*
G01Y16835D01*
G01X43348Y16839D01*
G01X43331Y16862D01*
G01X43315Y16880D01*
G01X43309Y16886D01*
G01X43291Y16902D01*
G01X43279Y16918D01*
G01X43265Y16933D01*
G01X43239Y16957D01*
G01X43220Y16976D01*
G01X43192Y17006D01*
G01X43178Y17021D01*
G01X43157Y17047D01*
G01X43141Y17062D01*
G01X43136Y17067D01*
G01X43132Y17072D01*
G01X43128Y17081D01*
G01X43124Y17088D01*
G01X43114Y17098D01*
G01X43096Y17115D01*
G01X43082Y17129D01*
G01X43070Y17144D01*
G01X43054Y17164D01*
G01X43034Y17193D01*
G01X43024Y17206D01*
G01X43000Y17233D01*
G01X42947Y17301D01*
G01X42882Y17396D01*
G01X42870Y17410D01*
G01X42858Y17420D01*
G01X42854Y17426D01*
G01X42851Y17433D01*
G01X42846Y17448D01*
G01X42843Y17455D01*
G01X42839Y17461D01*
G01X42828Y17471D01*
G01X42823Y17477D01*
G01X42820Y17483D01*
G01X42815Y17499D01*
G01X42812Y17506D01*
G01X42808Y17511D01*
G01X42797Y17521D01*
G01X42793Y17527D01*
G01X42789Y17534D01*
G01X42785Y17549D01*
G01X42781Y17556D01*
G01X42777Y17562D01*
G01X42766Y17572D01*
G01X42762Y17578D01*
G01X42759Y17584D01*
G01X42756Y17592D01*
G01X42751Y17608D01*
G01X42738Y17629D01*
G01X42731Y17643D01*
G01X42726Y17659D01*
G01X42723Y17666D01*
G01X42719Y17671D01*
G01X42708Y17681D01*
G01X42703Y17688D01*
G01X42700Y17694D01*
G01X42695Y17710D01*
G01X42689Y17725D01*
G01X42676Y17745D01*
G01X42668Y17769D01*
G01X42661Y17784D01*
G01X42648Y17805D01*
G01X42641Y17828D01*
G01X42633Y17843D01*
G01X42624Y17857D01*
G01X42621Y17865D01*
G01X42618Y17874D01*
G01X42615Y17893D01*
G01X42613Y17902D01*
G01X42609Y17911D01*
G01X42600Y17924D01*
G01X42597Y17931D01*
G01X42595Y17938D01*
G01X42594Y17953D01*
G01X42593Y17960D01*
G01X42590Y17967D01*
G01X42581Y17981D01*
G01X42579Y17988D01*
G01X42578Y17997D01*
G01Y18006D01*
G01X42580Y18025D01*
G01X43083Y17841D01*
G01X43467Y17703D01*
G01X43605Y17656D01*
G01X43610Y17655D01*
G01X43633Y17651D01*
G01X43657Y17717D01*
G01X43672Y17759D01*
G01X43681Y17791D01*
G01X43684Y17805D01*
G01X43687Y17828D01*
G01X43145Y18025D01*
G01X42771Y18163D01*
G01X42587Y18233D01*
G01X42583Y18235D01*
G01X42562Y18247D01*
G01X42824Y18968D01*
G01X43797Y18614D01*
G01X43869Y18814D01*
G01X42897Y19167D01*
G01X43024Y19515D01*
G01X42833Y19584D01*
G01X42706Y19237D01*
G37*
G36*
G01X41930Y19210D02*
G01X41893Y19204D01*
G01X41881Y19201D01*
G01X41870Y19197D01*
G01X41861Y19193D01*
G01X41850Y19186D01*
G01X41836Y19179D01*
G01X41825Y19174D01*
G01X41798Y19165D01*
G01X41768Y19156D01*
G01X41761Y19153D01*
G01X41755Y19150D01*
G01X41752Y19144D01*
G01X41751Y19137D01*
G01X41750Y19108D01*
G01Y19101D01*
G01X41753Y19094D01*
G01X41756Y19087D01*
G01X41764Y19073D01*
G01X41767Y19067D01*
G01X41769Y19060D01*
G01Y19045D01*
G01X41771Y19038D01*
G01X41774Y19031D01*
G01X41783Y19017D01*
G01X41786Y19010D01*
G01X41788Y19003D01*
G01X41789Y18989D01*
G01X41790Y18982D01*
G01X41793Y18975D01*
G01X41797Y18968D01*
G01X41802Y18961D01*
G01X41805Y18953D01*
G01X41808Y18944D01*
G01X41811Y18925D01*
G01X41814Y18915D01*
G01X41818Y18907D01*
G01X41826Y18894D01*
G01X41829Y18886D01*
G01X41831Y18879D01*
G01X41832Y18865D01*
G01X41833Y18858D01*
G01X41836Y18851D01*
G01X41843Y18841D01*
G01X41848Y18833D01*
G01X41853Y18817D01*
G01X41859Y18792D01*
G01X41862Y18781D01*
G01X41866Y18772D01*
G01X41873Y18761D01*
G01X41881Y18747D01*
G01X41885Y18736D01*
G01X41894Y18710D01*
G01X41906Y18671D01*
G01X41913Y18656D01*
G01X41922Y18642D01*
G01X41925Y18634D01*
G01X41928Y18625D01*
G01X41931Y18606D01*
G01X41934Y18597D01*
G01X41937Y18589D01*
G01X41947Y18575D01*
G01X41953Y18560D01*
G01X41958Y18544D01*
G01X41961Y18537D01*
G01X41966Y18531D01*
G01X41971Y18527D01*
G01X41977Y18523D01*
G01X41983Y18522D01*
G01X41989Y18524D01*
G01X41996Y18527D01*
G01X42010Y18536D01*
G01X42033Y18544D01*
G01X42048Y18551D01*
G01X42058Y18557D01*
G01X42067Y18562D01*
G01X42082Y18567D01*
G01X42107Y18573D01*
G01X42118Y18576D01*
G01X42127Y18580D01*
G01X42135Y18585D01*
G01X42138Y18588D01*
G01X42140Y18591D01*
G01X42142Y18595D01*
G01X42144Y18599D01*
G01Y18604D01*
G01Y18615D01*
G01X42140Y18633D01*
G01X42137Y18645D01*
G01X42133Y18654D01*
G01X42128Y18661D01*
G01X42120Y18675D01*
G01X42112Y18698D01*
G01X42105Y18713D01*
G01X42098Y18724D01*
G01X42094Y18732D01*
G01X42088Y18748D01*
G01X42083Y18773D01*
G01X42079Y18783D01*
G01X42075Y18792D01*
G01X42066Y18807D01*
G01X42063Y18814D01*
G01X42061Y18821D01*
G01X42060Y18835D01*
G01X42059Y18842D01*
G01X42056Y18849D01*
G01X42049Y18860D01*
G01X42042Y18873D01*
G01X42037Y18884D01*
G01X42028Y18911D01*
G01X42017Y18949D01*
G01X42007Y18976D01*
G01X41993Y19020D01*
G01X41986Y19037D01*
G01X41976Y19066D01*
G01X41971Y19079D01*
G01X41960Y19119D01*
G01X41945Y19167D01*
G01X41941Y19179D01*
G01X41940Y19188D01*
G01X41939Y19197D01*
G01X41937Y19207D01*
G37*
G36*
G01X44655Y18705D02*
G01X44654Y18704D01*
G01X44653Y18703D01*
G01X44651Y18699D01*
G01X44643Y18684D01*
G01X44623Y18641D01*
G01X44359Y17935D01*
G01X44582D01*
G01X44667Y18170D01*
G01X44754Y18401D01*
G01X44762Y18421D01*
G01X44777Y18444D01*
G01X45124Y18318D01*
G01X45447Y18198D01*
G01X45487Y18181D01*
G01X45511Y18167D01*
G01X45424Y17928D01*
G01X45357Y17746D01*
G01X45332Y17684D01*
G01X45328Y17678D01*
G01X45320Y17669D01*
G01X45314Y17664D01*
G01X45313D01*
G01X45312D01*
G01X45298Y17668D01*
G01X44965Y17786D01*
G01X44646Y17904D01*
G01X44605Y17921D01*
G01X44582Y17935D01*
G01X44359D01*
G01X44255Y17661D01*
G01X44105Y17241D01*
G01X44329D01*
G01X44506Y17727D01*
G01X44903Y17582D01*
G01X45524D01*
G01X45611Y17821D01*
G01X45700Y18056D01*
G01X45709Y18076D01*
G01X45723Y18100D01*
G01X46057Y17978D01*
G01X46368Y17863D01*
G01X46407Y17846D01*
G01X46431Y17832D01*
G01X46340Y17580D01*
G01X46270Y17391D01*
G01X46245Y17330D01*
G01X46242Y17326D01*
G01X46240D01*
G01X46227Y17329D01*
G01X45881Y17453D01*
G01X45524Y17582D01*
G01X44903D01*
G01X45252Y17455D01*
G01X45165Y17217D01*
G01X45089Y17010D01*
G01X45075Y16979D01*
G01X45072Y16975D01*
G01X45070D01*
G01X45059Y16978D01*
G01X44698Y17106D01*
G01X44329Y17241D01*
G01X44105D01*
G01X43877Y16611D01*
G01X43876Y16604D01*
G01X43875Y16596D01*
G01X43871Y16579D01*
G01X43858Y16538D01*
G01X43854Y16522D01*
G01X43851Y16506D01*
G01X43850Y16491D01*
G01Y16458D01*
G01X43853Y16431D01*
G01X43859Y16395D01*
G01X43862Y16381D01*
G01X43866Y16368D01*
G01X43872Y16356D01*
G01X43879Y16343D01*
G01X43887Y16331D01*
G01X43894Y16322D01*
G01X43900Y16314D01*
G01X43912Y16304D01*
G01X43922Y16293D01*
G01X43933Y16280D01*
G01X43939Y16274D01*
G01X43946Y16270D01*
G01X43963Y16263D01*
G01X43970Y16259D01*
G01X43977Y16253D01*
G01X43982Y16246D01*
G01X43984Y16245D01*
G01X43987Y16242D01*
G01X44000Y16236D01*
G01X44028Y16223D01*
G01X44182Y16164D01*
G01X44302Y16121D01*
G01X44389Y16092D01*
G01X44397Y16091D01*
G01X44402Y16090D01*
G01X44408D01*
G01X44413Y16092D01*
G01X44417Y16094D01*
G01X44422Y16097D01*
G01X44426Y16101D01*
G01X44430Y16106D01*
G01X44440Y16123D01*
G01X44452Y16141D01*
G01X44459Y16150D01*
G01X44466Y16162D01*
G01X44478Y16191D01*
G01X44486Y16207D01*
G01X44495Y16220D01*
G01X44504Y16237D01*
G01X44516Y16269D01*
G01X44364Y16324D01*
G01X44296Y16349D01*
G01X44198Y16388D01*
G01X44183Y16395D01*
G01X44169Y16402D01*
G01X44148Y16416D01*
G01X44127Y16430D01*
G01X44115Y16439D01*
G01X44105Y16448D01*
G01X44098Y16455D01*
G01X44094Y16461D01*
G01X44082Y16488D01*
G01X44081Y16492D01*
G01Y16502D01*
G01X44082Y16514D01*
G01X44087Y16544D01*
G01X44091Y16567D01*
G01Y16576D01*
G01X44092Y16578D01*
G01X44097Y16597D01*
G01X44168Y16798D01*
G01X44216Y16928D01*
G01X44252Y17019D01*
G01X44256Y17027D01*
G01X44267Y17040D01*
G01X44275Y17039D01*
G01X44277Y17038D01*
G01X44289Y17033D01*
G01X44643Y16901D01*
G01X44654Y16897D01*
G01X45275D01*
G01X45452Y17383D01*
G01X46172Y17120D01*
G01X46115Y16964D01*
G01X46066Y16824D01*
G01X46059Y16799D01*
G01X46058Y16793D01*
G01X46057Y16786D01*
G01X46051Y16763D01*
G01X46037Y16722D01*
G01X46019Y16677D01*
G01X46013Y16663D01*
G01X46008Y16654D01*
G01X45999Y16645D01*
G01X45992Y16640D01*
G01X45978Y16644D01*
G01X45631Y16767D01*
G01X45275Y16897D01*
G01X44654D01*
G01X45003Y16770D01*
G01X44869Y16401D01*
G01X44746Y16057D01*
G01X44731Y16013D01*
G01X44727Y15985D01*
G01X44818Y15952D01*
G01X44873Y15934D01*
G01X44891Y15929D01*
G01X44921Y15924D01*
G01X45202Y16697D01*
G01X45537Y16575D01*
G01X45890Y16451D01*
G01X45917Y16443D01*
G01X45926Y16437D01*
G01X45931Y16430D01*
G01X45932Y16421D01*
G01Y16412D01*
G01X45929Y16379D01*
G01X45925Y16363D01*
G01X45919Y16343D01*
G01X45909Y16314D01*
G01X45906Y16301D01*
G01X45904Y16289D01*
G01X45901Y16268D01*
G01X45899Y16243D01*
G01X45895Y16227D01*
G01X45884Y16191D01*
G01X45881Y16178D01*
G01X45880Y16166D01*
G01X45881Y16150D01*
G01X45880Y16132D01*
G01X45878Y16118D01*
G01X45872Y16087D01*
G01X45869Y16064D01*
G01X45868Y16042D01*
G01X45866Y15990D01*
G01X45863Y15944D01*
G01Y15921D01*
G01X45865Y15871D01*
G01X45866Y15853D01*
G01X45869Y15803D01*
G01Y15761D01*
G01X45870Y15747D01*
G01X45872Y15734D01*
G01X45876Y15707D01*
G01X45878Y15688D01*
G01X45882Y15646D01*
G01X45886Y15620D01*
G01X45888Y15604D01*
G01Y15590D01*
G01X45891Y15571D01*
G01X45898Y15544D01*
G01X45899Y15534D01*
G01Y15510D01*
G01X45901Y15503D01*
G01X45906Y15496D01*
G01X45913Y15490D01*
G01X45921Y15485D01*
G01X45928Y15483D01*
G01X45934D01*
G01X45940Y15484D01*
G01X45944Y15486D01*
G01X45951Y15488D01*
G01X45965Y15490D01*
G01X45990Y15491D01*
G01X46009Y15493D01*
G01X46048Y15500D01*
G01X46094Y15507D01*
G01X46108Y15512D01*
G01X46113Y15515D01*
G01X46115Y15519D01*
G01X46116Y15524D01*
G01X46114Y15530D01*
G01X46112Y15536D01*
G01X46110Y15545D01*
G01X46107Y15578D01*
G01X46106Y15591D01*
G01X46104Y15602D01*
G01X46097Y15625D01*
G01X46095Y15636D01*
G01X46093Y15648D01*
G01X46092Y15673D01*
G01X46090Y15692D01*
G01X46083Y15735D01*
G01X46082Y15744D01*
G01Y15767D01*
G01X46078Y15788D01*
G01X46075Y15807D01*
G01X46073Y15842D01*
G01X46070Y15880D01*
G01Y15899D01*
G01X46072Y15928D01*
G01X46069Y15959D01*
G01X46070Y15981D01*
G01X46074Y16014D01*
G01X46077Y16047D01*
G01X46082Y16089D01*
G01X46085Y16126D01*
G01X46095Y16174D01*
G01X46100Y16199D01*
G01X46101Y16214D01*
G01X46106Y16235D01*
G01X46122Y16281D01*
G01X46131Y16309D01*
G01X46136Y16328D01*
G01Y16336D01*
G01X46139Y16350D01*
G01X46150Y16386D01*
G01X46155Y16406D01*
G01X46156Y16414D01*
G01X46158Y16422D01*
G01X46431Y17184D01*
G01X46675Y17873D01*
G01X46695Y17941D01*
G01X46697Y17951D01*
G01Y17957D01*
G01X46695Y17959D01*
G01X46686Y17963D01*
G01X46656Y17977D01*
G01X45682Y18340D01*
G01X44727Y18683D01*
G01X44662Y18704D01*
G01X44655Y18705D01*
G37*
G36*
G01X43458Y18653D02*
G01X43451Y18650D01*
G01X43437Y18638D01*
G01X43428Y18632D01*
G01X43421Y18628D01*
G01X43405Y18624D01*
G01X43398Y18620D01*
G01X43392Y18616D01*
G01X43383Y18606D01*
G01X43377Y18601D01*
G01X43370Y18598D01*
G01X43358Y18594D01*
G01X43349Y18590D01*
G01X43335Y18582D01*
G01X43315Y18567D01*
G01X43305Y18561D01*
G01X43296Y18556D01*
G01X43281Y18551D01*
G01X43273Y18548D01*
G01X43268Y18544D01*
G01X43258Y18533D01*
G01X43252Y18528D01*
G01X43245Y18525D01*
G01X43237Y18523D01*
G01X43229Y18520D01*
G01X43222Y18516D01*
G01X43214Y18511D01*
G01X43199Y18498D01*
G01X43191Y18493D01*
G01X43183Y18489D01*
G01X43171Y18485D01*
G01X43162Y18482D01*
G01X43148Y18473D01*
G01X43128Y18458D01*
G01X43119Y18452D01*
G01X43109Y18448D01*
G01X43093Y18442D01*
G01X43087Y18439D01*
G01X43080Y18434D01*
G01X43071Y18424D01*
G01X43065Y18420D01*
G01X43058Y18416D01*
G01X43042Y18411D01*
G01X43028Y18405D01*
G01X43014Y18395D01*
G01X42990Y18381D01*
G01X42951Y18357D01*
G01X42940Y18350D01*
G01X42935Y18346D01*
G01X42931Y18341D01*
G01X42929Y18335D01*
G01X42927Y18329D01*
G01X42926Y18322D01*
G01Y18314D01*
G01X42928Y18306D01*
G01X42930Y18299D01*
G01X42934Y18292D01*
G01X42938Y18286D01*
G01X42948Y18276D01*
G01X42952Y18270D01*
G01X42956Y18263D01*
G01X42959Y18255D01*
G01X42964Y18240D01*
G01X42977Y18219D01*
G01X42984Y18204D01*
G01X42987Y18192D01*
G01X42991Y18184D01*
G01X42995Y18177D01*
G01X43001Y18169D01*
G01X43011Y18159D01*
G01X43017Y18156D01*
G01X43022Y18155D01*
G01X43026Y18157D01*
G01X43030Y18161D01*
G01X43040Y18167D01*
G01X43051Y18173D01*
G01X43057Y18177D01*
G01X43062Y18182D01*
G01X43071Y18192D01*
G01X43077Y18197D01*
G01X43084Y18200D01*
G01X43099Y18205D01*
G01X43106Y18208D01*
G01X43111Y18212D01*
G01X43122Y18223D01*
G01X43128Y18227D01*
G01X43134Y18231D01*
G01X43150Y18236D01*
G01X43156Y18239D01*
G01X43162Y18243D01*
G01X43172Y18254D01*
G01X43178Y18258D01*
G01X43185Y18262D01*
G01X43192Y18264D01*
G01X43200Y18267D01*
G01X43208Y18270D01*
G01X43216Y18275D01*
G01X43231Y18289D01*
G01X43239Y18294D01*
G01X43247Y18298D01*
G01X43262Y18303D01*
G01X43269Y18306D01*
G01X43275Y18310D01*
G01X43285Y18321D01*
G01X43291Y18325D01*
G01X43298Y18329D01*
G01X43313Y18333D01*
G01X43320Y18337D01*
G01X43326Y18341D01*
G01X43335Y18352D01*
G01X43342Y18356D01*
G01X43348Y18359D01*
G01X43360Y18363D01*
G01X43374Y18368D01*
G01X43385Y18374D01*
G01X43409Y18388D01*
G01X43443Y18411D01*
G01X43457Y18418D01*
G01X43470Y18421D01*
G01X43478Y18425D01*
G01X43492Y18433D01*
G01X43513Y18449D01*
G01X43522Y18455D01*
G01X43532Y18459D01*
G01X43547Y18465D01*
G01X43551Y18470D01*
G01X43553Y18477D01*
G01Y18486D01*
G01X43552Y18496D01*
G01X43549Y18505D01*
G01X43546Y18513D01*
G01X43537Y18527D01*
G01X43530Y18542D01*
G01X43526Y18554D01*
G01X43523Y18563D01*
G01X43514Y18577D01*
G01X43499Y18597D01*
G01X43493Y18607D01*
G01X43488Y18616D01*
G01X43483Y18631D01*
G01X43480Y18639D01*
G01X43476Y18644D01*
G01X43470Y18649D01*
G01X43464Y18652D01*
G37*
G36*
G01X47498Y17631D02*
G01X47462Y17531D01*
G01X47453Y17507D01*
G01X47435Y17451D01*
G01X47429Y17425D01*
G01X47428Y17417D01*
G01Y17410D01*
G01Y17401D01*
G01Y17391D01*
G01X47426Y17381D01*
G01X47421Y17364D01*
G01X47418Y17348D01*
G01X47416Y17323D01*
G01X47409Y17285D01*
G01X47407Y17264D01*
G01X47405Y17239D01*
G01X47399Y17197D01*
G01X47396Y17162D01*
G01X47390Y17124D01*
G01X47388Y17103D01*
G01X47387Y17082D01*
G01X47384Y17020D01*
G01X47378Y16982D01*
G01X47377Y16969D01*
G01Y16958D01*
G01X47378Y16937D01*
G01X47377Y16915D01*
G01X47375Y16892D01*
G01X47373Y16874D01*
G01X47374Y16816D01*
G01X47373Y16808D01*
G01X47370Y16762D01*
G01Y16739D01*
G01Y16726D01*
G01X47579D01*
G01X47581Y16756D01*
G01Y16819D01*
G01Y16826D01*
G01X47584Y16863D01*
G01X47589Y16963D01*
G01X47592Y17019D01*
G01X47596Y17035D01*
G01X47602Y17052D01*
G01X47603Y17061D01*
G01Y17069D01*
G01X47601Y17077D01*
G01X47600Y17086D01*
G01Y17095D01*
G01X47602Y17104D01*
G01X47608Y17125D01*
G01X47610Y17135D01*
G01Y17144D01*
G01X47608Y17161D01*
G01Y17169D01*
G01X47609Y17178D01*
G01X47614Y17195D01*
G01X47618Y17211D01*
G01X47620Y17236D01*
G01X47626Y17274D01*
G01X47629Y17294D01*
G01X47631Y17319D01*
G01X47633Y17341D01*
G01X47637Y17364D01*
G01X48131Y17184D01*
G01X48347Y17104D01*
G01X48590Y17008D01*
G01X48612Y16998D01*
G01X48617Y16992D01*
G01X48607Y16978D01*
G01X48585Y16943D01*
G01X48565Y16915D01*
G01X48542Y16879D01*
G01X48521Y16850D01*
G01X48496Y16806D01*
G01X48489Y16795D01*
G01X48470Y16775D01*
G01X48456Y16758D01*
G01X48436Y16727D01*
G01X48420Y16706D01*
G01X48388Y16665D01*
G01X48361Y16627D01*
G01X48319Y16580D01*
G01X48315Y16574D01*
G01X48288Y16536D01*
G01X48269Y16514D01*
G01X48238Y16476D01*
G01X48216Y16452D01*
G01X48189Y16423D01*
G01X48172Y16402D01*
G01X48155Y16383D01*
G01X48147Y16375D01*
G01X48127Y16359D01*
G01X48111Y16337D01*
G01X48098Y16324D01*
G01X48088Y16316D01*
G01X48074Y16303D01*
G01X48046Y16274D01*
G01X48028Y16259D01*
G01X48014Y16246D01*
G01X47986Y16217D01*
G01X47979Y16210D01*
G01X47958Y16194D01*
G01X47935Y16174D01*
G01X47907Y16150D01*
G01X47866Y16116D01*
G01X47776Y16046D01*
G01X47757Y16032D01*
G01X47712Y16002D01*
G01X47705Y15997D01*
G01X47703D01*
G01X47701D01*
G01X47699Y15998D01*
G01X47697Y16000D01*
G01X47692Y16006D01*
G01X47683Y16019D01*
G01X47678Y16029D01*
G01X47671Y16047D01*
G01X47663Y16082D01*
G01X47661Y16091D01*
G01X47656Y16101D01*
G01X47651Y16118D01*
G01X47647Y16136D01*
G01X47627Y16242D01*
G01X47621Y16265D01*
G01X47615Y16283D01*
G01X47612Y16291D01*
G01X47610Y16305D01*
G01X47608Y16340D01*
G01X47604Y16362D01*
G01X47601Y16381D01*
G01X47600Y16411D01*
G01X47598Y16431D01*
G01X47592Y16463D01*
G01X47589Y16483D01*
G01X47588Y16502D01*
G01X47587Y16551D01*
G01X47585Y16574D01*
G01X47584Y16584D01*
G01X47581Y16601D01*
G01X47580Y16619D01*
G01X47582Y16665D01*
G01X47581Y16685D01*
G01X47580Y16706D01*
G01X47579Y16726D01*
G01X47370D01*
G01X47372Y16682D01*
G01Y16601D01*
G01X47374Y16575D01*
G01X47376Y16539D01*
G01X47377Y16522D01*
G01X47381Y16484D01*
G01X47383Y16436D01*
G01X47385Y16417D01*
G01X47392Y16378D01*
G01X47398Y16331D01*
G01X47403Y16310D01*
G01X47406Y16290D01*
G01X47409Y16250D01*
G01X47421Y16189D01*
G01X47431Y16136D01*
G01X47437Y16111D01*
G01X47448Y16071D01*
G01X47460Y16014D01*
G01X47467Y15991D01*
G01X47479Y15944D01*
G01X47490Y15908D01*
G01X47494Y15895D01*
G01X47495Y15884D01*
G01X47494Y15876D01*
G01X47491Y15869D01*
G01X47486Y15863D01*
G01X47480Y15859D01*
G01X47473Y15856D01*
G01X47461Y15852D01*
G01X47447Y15847D01*
G01X47436Y15841D01*
G01X47413Y15827D01*
G01X47396Y15816D01*
G01X47387Y15808D01*
G01X47382Y15805D01*
G01X47375Y15803D01*
G01X47360Y15798D01*
G01X47345Y15791D01*
G01X47324Y15778D01*
G01X47300Y15771D01*
G01X47286Y15764D01*
G01X47272Y15755D01*
G01X47265Y15752D01*
G01X47258Y15750D01*
G01X47243D01*
G01X47236Y15747D01*
G01X47230Y15744D01*
G01X47223Y15740D01*
G01X47209Y15732D01*
G01X47186Y15724D01*
G01X47170Y15717D01*
G01X47150Y15704D01*
G01X47134Y15699D01*
G01X47112Y15692D01*
G01X47093Y15685D01*
G01X47070Y15677D01*
G01X47056Y15671D01*
G01X47042Y15662D01*
G01X47035Y15659D01*
G01X47028Y15657D01*
G01X47013Y15656D01*
G01X47006Y15655D01*
G01X46999Y15651D01*
G01X46985Y15643D01*
G01X46979Y15640D01*
G01X46972Y15638D01*
G01X46957Y15637D01*
G01X46950Y15636D01*
G01X46943Y15633D01*
G01X46930Y15624D01*
G01X46922Y15621D01*
G01X46916Y15619D01*
G01X46901Y15618D01*
G01X46894Y15616D01*
G01X46887Y15614D01*
G01X46874Y15605D01*
G01X46858Y15598D01*
G01X46843Y15594D01*
G01X46817Y15583D01*
G01X46795Y15577D01*
G01X46711Y15553D01*
G01X46687Y15544D01*
G01X46669Y15539D01*
G01X46629Y15530D01*
G01X46621Y15528D01*
G01X46611Y15523D01*
G01X46593Y15518D01*
G01X46553Y15509D01*
G01X46544Y15506D01*
G01X46531Y15501D01*
G01X46509Y15494D01*
G01X46502Y15491D01*
G01X46497Y15487D01*
G01X46494Y15482D01*
G01X46493Y15475D01*
G01Y15472D01*
G01X46494Y15459D01*
G01X46503Y15421D01*
G01X46516Y15368D01*
G01X46523Y15349D01*
G01X46525Y15341D01*
G01X46527Y15327D01*
G01X46529Y15304D01*
G01X46531Y15293D01*
G01X46534Y15284D01*
G01X46538Y15277D01*
G01X46541Y15274D01*
G01X46544Y15271D01*
G01X46548Y15270D01*
G01X46553Y15269D01*
G01X46558D01*
G01X46563D01*
G01X46589Y15277D01*
G01X46601Y15280D01*
G01X46611Y15282D01*
G01X46626D01*
G01X46633Y15284D01*
G01X46640Y15287D01*
G01X46650Y15294D01*
G01X46659Y15298D01*
G01X46674Y15304D01*
G01X46712Y15312D01*
G01X46735Y15318D01*
G01X46781Y15331D01*
G01X46808Y15341D01*
G01X46829Y15348D01*
G01X46851Y15355D01*
G01X46870Y15362D01*
G01X46893Y15369D01*
G01X46916Y15378D01*
G01X46928Y15381D01*
G01X46955Y15386D01*
G01X46965Y15388D01*
G01X46973Y15392D01*
G01X46986Y15401D01*
G01X47001Y15408D01*
G01X47017Y15412D01*
G01X47043Y15422D01*
G01X47087Y15436D01*
G01X47106Y15444D01*
G01X47129Y15450D01*
G01X47144Y15457D01*
G01X47155Y15464D01*
G01X47168Y15472D01*
G01X47179Y15476D01*
G01X47217Y15489D01*
G01X47238Y15499D01*
G01X47260Y15506D01*
G01X47276Y15511D01*
G01X47297Y15524D01*
G01X47312Y15531D01*
G01X47335Y15539D01*
G01X47356Y15551D01*
G01X47371Y15559D01*
G01X47394Y15566D01*
G01X47415Y15579D01*
G01X47430Y15586D01*
G01X47453Y15594D01*
G01X47474Y15607D01*
G01X47489Y15613D01*
G01X47501Y15617D01*
G01X47515Y15623D01*
G01X47526Y15628D01*
G01X47550Y15641D01*
G01X47560Y15644D01*
G01X47569D01*
G01X47575Y15641D01*
G01X47580Y15637D01*
G01X47585Y15631D01*
G01X47588Y15624D01*
G01X47590Y15616D01*
G01X47596Y15601D01*
G01X47609Y15580D01*
G01X47616Y15565D01*
G01X47623Y15542D01*
G01X47637Y15520D01*
G01X47643Y15506D01*
G01X47651Y15482D01*
G01X47664Y15461D01*
G01X47671Y15447D01*
G01X47675Y15435D01*
G01X47678Y15426D01*
G01X47686Y15412D01*
G01X47702Y15391D01*
G01X47708Y15382D01*
G01X47712Y15373D01*
G01X47716Y15360D01*
G01X47722Y15346D01*
G01X47728Y15335D01*
G01X47742Y15311D01*
G01X47764Y15278D01*
G01X47771Y15263D01*
G01X47779Y15239D01*
G01X47788Y15225D01*
G01X47800Y15206D01*
G01X47808Y15189D01*
G01X47824Y15163D01*
G01X47831Y15151D01*
G01X47849Y15124D01*
G01X47861Y15105D01*
G01X47871Y15087D01*
G01X47885Y15066D01*
G01X47905Y15035D01*
G01X47935Y14984D01*
G01X47943Y14973D01*
G01X47950Y14963D01*
G01X47956Y14956D01*
G01X47968Y14945D01*
G01X47972Y14939D01*
G01X47976Y14933D01*
G01X47978Y14925D01*
G01X47981Y14917D01*
G01X47984Y14909D01*
G01X47990Y14901D01*
G01X47999Y14890D01*
G01X48014Y14871D01*
G01X48025Y14853D01*
G01X48046Y14823D01*
G01X48074Y14787D01*
G01X48094Y14758D01*
G01X48106Y14744D01*
G01X48117Y14734D01*
G01X48121Y14728D01*
G01X48124Y14721D01*
G01X48127Y14713D01*
G01X48130Y14705D01*
G01X48135Y14697D01*
G01X48141Y14689D01*
G01X48149Y14681D01*
G01X48163Y14669D01*
G01X48170D01*
G01X48171Y14671D01*
G01X48174Y14673D01*
G01X48186Y14680D01*
G01X48195Y14686D01*
G01X48217Y14705D01*
G01X48231Y14714D01*
G01X48240Y14719D01*
G01X48255Y14729D01*
G01X48291Y14757D01*
G01X48327Y14780D01*
G01X48336Y14787D01*
G01X48342Y14794D01*
G01X48345Y14801D01*
G01X48346Y14804D01*
G01X48347Y14808D01*
G01X48346Y14811D01*
G01X48345Y14814D01*
G01X48344Y14818D01*
G01X48342Y14821D01*
G01X48339Y14825D01*
G01X48330Y14836D01*
G01X48319Y14850D01*
G01X48315Y14859D01*
G01X48305Y14874D01*
G01X48280Y14907D01*
G01X48275Y14915D01*
G01X48270Y14924D01*
G01X48264Y14934D01*
G01X48248Y14952D01*
G01X48234Y14971D01*
G01X48222Y14989D01*
G01X48202Y15018D01*
G01X48176Y15053D01*
G01X48171Y15061D01*
G01X48166Y15070D01*
G01X48156Y15086D01*
G01X48130Y15119D01*
G01X48126Y15126D01*
G01X48116Y15145D01*
G01X48102Y15165D01*
G01X48082Y15197D01*
G01X48051Y15247D01*
G01X48036Y15270D01*
G01X48028Y15279D01*
G01X48015Y15295D01*
G01X48010Y15303D01*
G01X48006Y15311D01*
G01X48002Y15323D01*
G01X47998Y15331D01*
G01X47990Y15346D01*
G01X47975Y15366D01*
G01X47968Y15376D01*
G01X47964Y15384D01*
G01X47960Y15397D01*
G01X47957Y15406D01*
G01X47948Y15420D01*
G01X47933Y15440D01*
G01X47927Y15450D01*
G01X47922Y15458D01*
G01X47917Y15475D01*
G01X47914Y15481D01*
G01X47909Y15487D01*
G01X47899Y15497D01*
G01X47895Y15503D01*
G01X47891Y15510D01*
G01X47887Y15525D01*
G01X47880Y15540D01*
G01X47867Y15561D01*
G01X47859Y15584D01*
G01X47852Y15600D01*
G01X47839Y15620D01*
G01X47831Y15644D01*
G01X47824Y15659D01*
G01X47811Y15679D01*
G01X47804Y15703D01*
G01X47797Y15718D01*
G01X47784Y15739D01*
G01X47778Y15754D01*
G01Y15758D01*
G01Y15762D01*
G01X47779Y15767D01*
G01X47780Y15771D01*
G01X47783Y15775D01*
G01X47787Y15779D01*
G01X47795Y15788D01*
G01X47816Y15803D01*
G01X47851Y15827D01*
G01X47896Y15862D01*
G01X47926Y15883D01*
G01X47938Y15893D01*
G01X47958Y15910D01*
G01X47971Y15920D01*
G01X47994Y15936D01*
G01X48008Y15946D01*
G01X48034Y15970D01*
G01X48061Y15992D01*
G01X48091Y16018D01*
G01X48108Y16031D01*
G01X48122Y16045D01*
G01X48143Y16067D01*
G01X48157Y16080D01*
G01X48187Y16105D01*
G01X48208Y16124D01*
G01X48215Y16131D01*
G01X48239Y16156D01*
G01X48251Y16170D01*
G01X48285Y16204D01*
G01X48303Y16227D01*
G01X48310Y16235D01*
G01X48318Y16244D01*
G01X48339Y16261D01*
G01X48349Y16272D01*
G01X48359Y16283D01*
G01X48383Y16315D01*
G01X48396Y16330D01*
G01X48420Y16354D01*
G01X48441Y16380D01*
G01X48471Y16416D01*
G01X48497Y16446D01*
G01X48507Y16460D01*
G01X48525Y16488D01*
G01X48535Y16502D01*
G01X48573Y16547D01*
G01X48583Y16560D01*
G01X48608Y16599D01*
G01X48625Y16621D01*
G01X48662Y16669D01*
G01X48680Y16697D01*
G01X48705Y16734D01*
G01X48734Y16773D01*
G01X48742Y16786D01*
G01X48751Y16806D01*
G01X48755Y16814D01*
G01X48760Y16822D01*
G01X48767Y16830D01*
G01X48778Y16841D01*
G01X48795Y16874D01*
G01X48801Y16884D01*
G01X48806Y16893D01*
G01X48813Y16901D01*
G01X48819Y16908D01*
G01X48824Y16914D01*
G01X48833Y16931D01*
G01X48843Y16953D01*
G01X48861Y17002D01*
G01X48888Y17082D01*
G01X48893Y17101D01*
G01X48899Y17131D01*
G01X48221Y17377D01*
G01X47527Y17626D01*
G01X47521Y17627D01*
G37*
G36*
G01X49128Y17219D02*
G01X49117Y17218D01*
G01X49111Y17215D01*
G01X49110Y17211D01*
G01Y17200D01*
G01X49107Y17144D01*
G01Y17124D01*
G01X49109Y17092D01*
G01X49106Y17058D01*
G01X49105Y17036D01*
G01X49107Y17015D01*
G01Y16996D01*
G01X49105Y16966D01*
G01X49106Y16903D01*
G01X49104Y16859D01*
G01X49105Y16826D01*
G01X49108Y16790D01*
G01Y16758D01*
G01X49111Y16716D01*
G01Y16689D01*
G01X49112Y16656D01*
G01X49114Y16620D01*
G01X49113Y16591D01*
G01Y16583D01*
G01X49114Y16576D01*
G01X49117Y16569D01*
G01Y16568D01*
G01X49116Y16566D01*
G01X49111Y16546D01*
G01X48770Y15590D01*
G01X48421Y14619D01*
G01X48414Y14599D01*
G01X48411Y14576D01*
G01X48502Y14543D01*
G01X48542Y14528D01*
G01X48591Y14513D01*
G01X48599Y14512D01*
G01X48600Y14513D01*
G01X48603Y14520D01*
G01X48880Y15270D01*
G01X49155Y16025D01*
G01X49172Y16006D01*
G01X49178Y15997D01*
G01X49183Y15987D01*
G01X49206Y15883D01*
G01X49227Y15777D01*
G01X49232Y15755D01*
G01X49235Y15746D01*
G01X49239Y15736D01*
G01X49242Y15725D01*
G01X49247Y15697D01*
G01X49251Y15681D01*
G01X49255Y15671D01*
G01X49260Y15654D01*
G01X49269Y15613D01*
G01X49272Y15605D01*
G01X49276Y15595D01*
G01X49281Y15577D01*
G01X49290Y15537D01*
G01X49298Y15515D01*
G01X49300Y15509D01*
G01X49301Y15502D01*
G01Y15495D01*
G01X49303Y15485D01*
G01X49313Y15486D01*
G01X49318Y15489D01*
G01X49324Y15493D01*
G01X49329Y15498D01*
G01X49333Y15503D01*
G01X49356Y15532D01*
G01X49377Y15561D01*
G01X49401Y15594D01*
G01X49419Y15622D01*
G01X49432Y15639D01*
G01X49446Y15654D01*
G01X49452Y15661D01*
G01X49457Y15669D01*
G01X49461Y15678D01*
G01X49463Y15687D01*
G01X49464Y15696D01*
G01X49463Y15706D01*
G01X49448Y15763D01*
G01X49439Y15787D01*
G01X49433Y15804D01*
G01X49429Y15822D01*
G01X49419Y15874D01*
G01X49414Y15897D01*
G01X49412Y15906D01*
G01X49407Y15920D01*
G01X49405Y15928D01*
G01X49401Y15962D01*
G01X49400Y15974D01*
G01X49398Y15985D01*
G01X49392Y16007D01*
G01X49389Y16025D01*
G01X49388Y16040D01*
G01Y16047D01*
G01X49386Y16053D01*
G01X49382Y16063D01*
G01X49380Y16070D01*
G01X49378Y16085D01*
G01X49377Y16109D01*
G01X49375Y16128D01*
G01X49372Y16148D01*
G01X49361Y16195D01*
G01X49359Y16214D01*
G01X49356Y16254D01*
G01X49352Y16276D01*
G01X49349Y16296D01*
G01X49347Y16336D01*
G01X49343Y16359D01*
G01X49340Y16378D01*
G01X49337Y16418D01*
G01X49333Y16441D01*
G01X49331Y16462D01*
G01X49330Y16508D01*
G01X49329Y16518D01*
G01X49325Y16544D01*
G01X49326Y16572D01*
G01Y16583D01*
G01X49325Y16595D01*
G01X49320Y16621D01*
G01X49318Y16649D01*
G01Y16696D01*
G01X49316Y16723D01*
G01X49314Y16758D01*
G01X49312Y16808D01*
G01Y16847D01*
G01X49313Y16892D01*
G01Y16925D01*
G01X49311Y16951D01*
G01Y16973D01*
G01X49314Y16996D01*
G01Y17006D01*
G01Y17016D01*
G01X49311Y17029D01*
G01X49310Y17037D01*
G01X49311Y17053D01*
G01X49313Y17075D01*
G01X49315Y17094D01*
G01X49314Y17152D01*
G01X49317Y17185D01*
G01X49316Y17193D01*
G01X49313Y17199D01*
G01X49307Y17204D01*
G01X49299Y17206D01*
G01X49290D01*
G01X49249Y17210D01*
G01X49207Y17215D01*
G01X49190Y17216D01*
G01X49142Y17219D01*
G37*
G36*
G01X50362Y16588D02*
G01X50326Y16488D01*
G01X50317Y16464D01*
G01X50299Y16408D01*
G01X50293Y16383D01*
G01X50292Y16374D01*
G01Y16368D01*
G01X50293Y16358D01*
G01X50292Y16348D01*
G01X50290Y16339D01*
G01X50285Y16322D01*
G01X50282Y16305D01*
G01X50280Y16280D01*
G01X50273Y16243D01*
G01X50271Y16222D01*
G01X50269Y16197D01*
G01X50264Y16154D01*
G01X50261Y16120D01*
G01X50254Y16082D01*
G01X50252Y16060D01*
G01X50251Y16039D01*
G01X50248Y15977D01*
G01X50242Y15940D01*
G01X50241Y15927D01*
G01Y15916D01*
G01X50242Y15894D01*
G01Y15872D01*
G01X50239Y15849D01*
G01X50237Y15831D01*
G01X50238Y15773D01*
G01Y15766D01*
G01X50234Y15720D01*
G01Y15696D01*
G01X50236Y15640D01*
G01Y15592D01*
G01Y15577D01*
G01X50444D01*
G01X50446Y15623D01*
G01Y15643D01*
G01X50444Y15664D01*
G01Y15683D01*
G01X50446Y15713D01*
G01X50445Y15776D01*
G01Y15784D01*
G01X50448Y15820D01*
G01X50454Y15921D01*
G01X50457Y15977D01*
G01X50460Y15992D01*
G01X50466Y16010D01*
G01X50467Y16018D01*
G01Y16026D01*
G01X50465Y16035D01*
G01X50464Y16043D01*
G01Y16052D01*
G01X50466Y16062D01*
G01X50473Y16083D01*
G01X50474Y16092D01*
G01Y16102D01*
G01X50472Y16118D01*
G01Y16126D01*
G01X50473Y16135D01*
G01X50478Y16152D01*
G01X50482Y16168D01*
G01X50484Y16194D01*
G01X50490Y16231D01*
G01X50493Y16252D01*
G01X50495Y16277D01*
G01X50497Y16298D01*
G01X50501Y16321D01*
G01X50996Y16141D01*
G01X51211Y16062D01*
G01X51454Y15966D01*
G01X51476Y15955D01*
G01X51481Y15950D01*
G01X51472Y15936D01*
G01X51449Y15900D01*
G01X51429Y15873D01*
G01X51406Y15837D01*
G01X51386Y15807D01*
G01X51360Y15764D01*
G01X51353Y15753D01*
G01X51334Y15733D01*
G01X51320Y15715D01*
G01X51300Y15685D01*
G01X51284Y15663D01*
G01X51252Y15623D01*
G01X51225Y15585D01*
G01X51184Y15537D01*
G01X51179Y15531D01*
G01X51152Y15493D01*
G01X51133Y15471D01*
G01X51102Y15434D01*
G01X51080Y15409D01*
G01X51053Y15381D01*
G01X51036Y15360D01*
G01X51019Y15341D01*
G01X51011Y15333D01*
G01X50992Y15316D01*
G01X50975Y15294D01*
G01X50963Y15281D01*
G01X50952Y15274D01*
G01X50938Y15260D01*
G01X50910Y15231D01*
G01X50892Y15217D01*
G01X50878Y15203D01*
G01X50850Y15174D01*
G01X50843Y15168D01*
G01X50822Y15152D01*
G01X50800Y15131D01*
G01X50772Y15107D01*
G01X50730Y15073D01*
G01X50640Y15004D01*
G01X50621Y14990D01*
G01X50576Y14960D01*
G01X50569Y14955D01*
G01X50567D01*
G01X50565D01*
G01X50563Y14956D01*
G01X50561Y14958D01*
G01X50556Y14963D01*
G01X50548Y14976D01*
G01X50542Y14987D01*
G01X50536Y15004D01*
G01X50527Y15040D01*
G01X50525Y15048D01*
G01X50521Y15059D01*
G01X50515Y15076D01*
G01X50511Y15094D01*
G01X50491Y15199D01*
G01X50486Y15222D01*
G01X50479Y15241D01*
G01X50477Y15249D01*
G01X50474Y15263D01*
G01X50472Y15297D01*
G01X50468Y15320D01*
G01X50465Y15339D01*
G01X50464Y15369D01*
G01X50462Y15388D01*
G01X50456Y15421D01*
G01X50454Y15440D01*
G01X50453Y15459D01*
G01X50451Y15509D01*
G01X50449Y15532D01*
G01X50448Y15541D01*
G01X50445Y15559D01*
G01X50444Y15577D01*
G01X50236D01*
G01Y15559D01*
G01X50238Y15532D01*
G01X50240Y15497D01*
G01X50241Y15479D01*
G01X50245Y15441D01*
G01X50247Y15394D01*
G01X50249Y15375D01*
G01X50256Y15336D01*
G01X50263Y15289D01*
G01X50267Y15267D01*
G01X50270Y15248D01*
G01X50273Y15207D01*
G01X50285Y15147D01*
G01X50295Y15094D01*
G01X50301Y15068D01*
G01X50312Y15028D01*
G01X50325Y14971D01*
G01X50331Y14948D01*
G01X50343Y14901D01*
G01X50354Y14866D01*
G01X50358Y14853D01*
G01X50360Y14842D01*
G01X50359Y14833D01*
G01X50355Y14826D01*
G01X50350Y14821D01*
G01X50344Y14817D01*
G01X50337Y14813D01*
G01X50326Y14810D01*
G01X50311Y14804D01*
G01X50300Y14799D01*
G01X50277Y14784D01*
G01X50261Y14773D01*
G01X50251Y14766D01*
G01X50246Y14763D01*
G01X50239Y14760D01*
G01X50224Y14756D01*
G01X50209Y14749D01*
G01X50188Y14736D01*
G01X50165Y14728D01*
G01X50150Y14721D01*
G01X50137Y14712D01*
G01X50129Y14710D01*
G01X50122Y14708D01*
G01X50108Y14707D01*
G01X50101Y14705D01*
G01X50094Y14702D01*
G01X50087Y14698D01*
G01X50073Y14689D01*
G01X50050Y14682D01*
G01X50035Y14675D01*
G01X50014Y14662D01*
G01X49998Y14656D01*
G01X49977Y14650D01*
G01X49957Y14642D01*
G01X49934Y14635D01*
G01X49920Y14628D01*
G01X49906Y14619D01*
G01X49899Y14616D01*
G01X49892Y14615D01*
G01X49877Y14614D01*
G01X49870Y14612D01*
G01X49863Y14609D01*
G01X49850Y14600D01*
G01X49843Y14597D01*
G01X49836Y14596D01*
G01X49822Y14595D01*
G01X49814Y14593D01*
G01X49807Y14590D01*
G01X49794Y14582D01*
G01X49787Y14579D01*
G01X49780Y14577D01*
G01X49765Y14576D01*
G01X49758Y14574D01*
G01X49751Y14571D01*
G01X49738Y14562D01*
G01X49723Y14555D01*
G01X49707Y14551D01*
G01X49681Y14541D01*
G01X49659Y14534D01*
G01X49575Y14511D01*
G01X49551Y14502D01*
G01X49534Y14497D01*
G01X49493Y14488D01*
G01X49485Y14485D01*
G01X49475Y14481D01*
G01X49457Y14475D01*
G01X49417Y14466D01*
G01X49408Y14464D01*
G01X49395Y14458D01*
G01X49373Y14452D01*
G01X49366Y14449D01*
G01X49361Y14445D01*
G01X49358Y14439D01*
G01X49357Y14433D01*
G01Y14429D01*
G01X49358Y14417D01*
G01X49368Y14379D01*
G01X49380Y14325D01*
G01X49387Y14306D01*
G01X49389Y14299D01*
G01X49391Y14284D01*
G01X49393Y14261D01*
G01X49395Y14250D01*
G01X49398Y14242D01*
G01X49402Y14234D01*
G01X49405Y14232D01*
G01X49409Y14229D01*
G01X49412Y14228D01*
G01X49417Y14227D01*
G01X49422D01*
G01X49427D01*
G01X49453Y14235D01*
G01X49465Y14237D01*
G01X49475Y14239D01*
G01X49490Y14240D01*
G01X49497Y14242D01*
G01X49504Y14245D01*
G01X49514Y14251D01*
G01X49523Y14255D01*
G01X49538Y14261D01*
G01X49576Y14269D01*
G01X49599Y14276D01*
G01X49645Y14289D01*
G01X49672Y14299D01*
G01X49715Y14312D01*
G01X49735Y14320D01*
G01X49758Y14326D01*
G01X49781Y14335D01*
G01X49792Y14338D01*
G01X49820Y14343D01*
G01X49829Y14346D01*
G01X49837Y14349D01*
G01X49851Y14358D01*
G01X49866Y14365D01*
G01X49882Y14370D01*
G01X49908Y14380D01*
G01X49929Y14387D01*
G01X49951Y14393D01*
G01X49970Y14401D01*
G01X49993Y14408D01*
G01X50008Y14415D01*
G01X50019Y14422D01*
G01X50032Y14429D01*
G01X50044Y14434D01*
G01X50081Y14447D01*
G01X50103Y14456D01*
G01X50124Y14463D01*
G01X50140Y14468D01*
G01X50161Y14482D01*
G01X50176Y14488D01*
G01X50199Y14496D01*
G01X50220Y14509D01*
G01X50235Y14516D01*
G01X50258Y14524D01*
G01X50279Y14536D01*
G01X50294Y14544D01*
G01X50317Y14551D01*
G01X50339Y14564D01*
G01X50353Y14571D01*
G01X50366Y14575D01*
G01X50380Y14580D01*
G01X50391Y14586D01*
G01X50414Y14599D01*
G01X50425Y14602D01*
G01X50433D01*
G01X50439Y14599D01*
G01X50444Y14594D01*
G01X50449Y14588D01*
G01X50453Y14582D01*
G01X50455Y14574D01*
G01X50460Y14558D01*
G01X50473Y14537D01*
G01X50480Y14523D01*
G01X50488Y14499D01*
G01X50501Y14478D01*
G01X50507Y14463D01*
G01X50516Y14440D01*
G01X50528Y14419D01*
G01X50535Y14404D01*
G01X50539Y14392D01*
G01X50542Y14384D01*
G01X50551Y14369D01*
G01X50566Y14349D01*
G01X50572Y14339D01*
G01X50576Y14330D01*
G01X50581Y14318D01*
G01X50586Y14304D01*
G01X50592Y14293D01*
G01X50606Y14269D01*
G01X50628Y14235D01*
G01X50635Y14220D01*
G01X50643Y14197D01*
G01X50652Y14183D01*
G01X50664Y14164D01*
G01X50672Y14147D01*
G01X50688Y14120D01*
G01X50695Y14109D01*
G01X50713Y14082D01*
G01X50725Y14062D01*
G01X50735Y14044D01*
G01X50749Y14024D01*
G01X50769Y13992D01*
G01X50800Y13942D01*
G01X50807Y13930D01*
G01X50814Y13921D01*
G01X50821Y13913D01*
G01X50832Y13902D01*
G01X50836Y13897D01*
G01X50840Y13890D01*
G01X50842Y13883D01*
G01X50845Y13874D01*
G01X50848Y13866D01*
G01X50854Y13859D01*
G01X50864Y13848D01*
G01X50878Y13828D01*
G01X50890Y13811D01*
G01X50910Y13781D01*
G01X50938Y13744D01*
G01X50958Y13715D01*
G01X50970Y13701D01*
G01X50981Y13691D01*
G01X50985Y13686D01*
G01X50988Y13678D01*
G01X50991Y13671D01*
G01X50994Y13663D01*
G01X50999Y13655D01*
G01X51005Y13646D01*
G01X51013Y13638D01*
G01X51028Y13627D01*
G01X51034Y13626D01*
G01X51035Y13628D01*
G01X51038Y13631D01*
G01X51050Y13637D01*
G01X51060Y13643D01*
G01X51081Y13662D01*
G01X51095Y13672D01*
G01X51104Y13677D01*
G01X51119Y13687D01*
G01X51156Y13714D01*
G01X51191Y13737D01*
G01X51200Y13745D01*
G01X51206Y13752D01*
G01X51209Y13758D01*
G01X51210Y13762D01*
G01X51211Y13765D01*
G01X51210Y13768D01*
G01X51208Y13775D01*
G01X51203Y13783D01*
G01X51194Y13794D01*
G01X51184Y13807D01*
G01X51179Y13817D01*
G01X51169Y13832D01*
G01X51144Y13865D01*
G01X51139Y13872D01*
G01X51134Y13882D01*
G01X51128Y13891D01*
G01X51112Y13910D01*
G01X51098Y13928D01*
G01X51086Y13946D01*
G01X51066Y13976D01*
G01X51040Y14011D01*
G01X51035Y14018D01*
G01X51030Y14028D01*
G01X51020Y14043D01*
G01X50995Y14076D01*
G01X50990Y14084D01*
G01X50980Y14103D01*
G01X50966Y14123D01*
G01X50946Y14154D01*
G01X50915Y14205D01*
G01X50900Y14228D01*
G01X50892Y14237D01*
G01X50879Y14252D01*
G01X50874Y14260D01*
G01X50870Y14268D01*
G01X50866Y14280D01*
G01X50862Y14289D01*
G01X50854Y14303D01*
G01X50839Y14324D01*
G01X50833Y14333D01*
G01X50828Y14342D01*
G01X50824Y14355D01*
G01X50821Y14363D01*
G01X50812Y14377D01*
G01X50797Y14398D01*
G01X50791Y14407D01*
G01X50787Y14416D01*
G01X50781Y14432D01*
G01X50778Y14439D01*
G01X50774Y14445D01*
G01X50763Y14455D01*
G01X50759Y14461D01*
G01X50755Y14467D01*
G01X50751Y14483D01*
G01X50744Y14498D01*
G01X50731Y14519D01*
G01X50723Y14542D01*
G01X50716Y14557D01*
G01X50703Y14578D01*
G01X50695Y14601D01*
G01X50689Y14616D01*
G01X50676Y14637D01*
G01X50668Y14660D01*
G01X50661Y14675D01*
G01X50648Y14696D01*
G01X50643Y14712D01*
G01X50642Y14716D01*
G01Y14720D01*
G01X50643Y14724D01*
G01X50645Y14728D01*
G01X50648Y14733D01*
G01X50651Y14737D01*
G01X50660Y14745D01*
G01X50680Y14761D01*
G01X50715Y14785D01*
G01X50760Y14820D01*
G01X50790Y14840D01*
G01X50803Y14850D01*
G01X50822Y14868D01*
G01X50835Y14878D01*
G01X50858Y14894D01*
G01X50872Y14904D01*
G01X50898Y14927D01*
G01X50925Y14949D01*
G01X50955Y14975D01*
G01X50972Y14989D01*
G01X50986Y15002D01*
G01X51007Y15024D01*
G01X51021Y15037D01*
G01X51051Y15063D01*
G01X51072Y15082D01*
G01X51079Y15089D01*
G01X51104Y15114D01*
G01X51116Y15127D01*
G01X51149Y15161D01*
G01X51167Y15185D01*
G01X51174Y15193D01*
G01X51183Y15201D01*
G01X51203Y15219D01*
G01X51213Y15229D01*
G01X51223Y15241D01*
G01X51247Y15273D01*
G01X51260Y15287D01*
G01X51284Y15312D01*
G01X51305Y15338D01*
G01X51335Y15374D01*
G01X51361Y15404D01*
G01X51371Y15417D01*
G01X51389Y15445D01*
G01X51399Y15460D01*
G01X51437Y15504D01*
G01X51447Y15517D01*
G01X51472Y15556D01*
G01X51489Y15578D01*
G01X51526Y15627D01*
G01X51544Y15655D01*
G01X51569Y15692D01*
G01X51598Y15730D01*
G01X51607Y15743D01*
G01X51615Y15763D01*
G01X51619Y15772D01*
G01X51625Y15779D01*
G01X51631Y15787D01*
G01X51642Y15798D01*
G01X51660Y15832D01*
G01X51665Y15842D01*
G01X51670Y15851D01*
G01X51677Y15859D01*
G01X51683Y15866D01*
G01X51688Y15872D01*
G01X51697Y15888D01*
G01X51707Y15911D01*
G01X51726Y15959D01*
G01X51753Y16039D01*
G01X51758Y16058D01*
G01X51763Y16088D01*
G01X51086Y16335D01*
G01X50391Y16583D01*
G01X50385Y16585D01*
G37*
G36*
G01X51992Y16177D02*
G01X51982Y16176D01*
G01X51976Y16173D01*
G01X51974Y16169D01*
G01Y16157D01*
G01X51971Y16102D01*
G01X51972Y16082D01*
G01X51973Y16049D01*
G01X51970Y16015D01*
G01X51969Y15993D01*
G01X51971Y15973D01*
G01Y15953D01*
G01X51969Y15923D01*
G01X51970Y15860D01*
G01X51968Y15817D01*
G01X51969Y15784D01*
G01X51972Y15748D01*
G01Y15715D01*
G01X51976Y15674D01*
G01Y15647D01*
G01Y15614D01*
G01X51979Y15577D01*
G01X51977Y15549D01*
G01X51978Y15541D01*
G01X51979Y15533D01*
G01X51981Y15527D01*
G01Y15524D01*
G01X51976Y15504D01*
G01X51635Y14548D01*
G01X51285Y13577D01*
G01X51279Y13556D01*
G01X51275Y13533D01*
G01X51366Y13500D01*
G01X51407Y13485D01*
G01X51455Y13470D01*
G01X51463D01*
G01X51464Y13471D01*
G01X51467Y13477D01*
G01X51744Y14228D01*
G01X52019Y14982D01*
G01X52036Y14964D01*
G01X52043Y14955D01*
G01X52047Y14944D01*
G01X52071Y14841D01*
G01X52091Y14735D01*
G01X52096Y14712D01*
G01X52099Y14704D01*
G01X52103Y14694D01*
G01X52107Y14683D01*
G01X52111Y14655D01*
G01X52115Y14639D01*
G01X52119Y14629D01*
G01X52124Y14612D01*
G01X52134Y14571D01*
G01X52136Y14562D01*
G01X52140Y14552D01*
G01X52146Y14535D01*
G01X52154Y14494D01*
G01X52162Y14473D01*
G01X52164Y14466D01*
G01X52165Y14460D01*
G01Y14453D01*
G01X52168Y14443D01*
G01X52177D01*
G01X52182Y14447D01*
G01X52188Y14451D01*
G01X52193Y14455D01*
G01X52198Y14460D01*
G01X52220Y14489D01*
G01X52241Y14518D01*
G01X52265Y14551D01*
G01X52283Y14579D01*
G01X52297Y14596D01*
G01X52311Y14611D01*
G01X52316Y14619D01*
G01X52321Y14627D01*
G01X52325Y14635D01*
G01X52328Y14644D01*
G01Y14654D01*
G01X52327Y14664D01*
G01X52312Y14721D01*
G01X52303Y14744D01*
G01X52298Y14761D01*
G01X52294Y14779D01*
G01X52283Y14832D01*
G01X52278Y14855D01*
G01X52276Y14864D01*
G01X52271Y14877D01*
G01X52269Y14885D01*
G01X52266Y14919D01*
G01X52265Y14931D01*
G01X52262Y14943D01*
G01X52256Y14965D01*
G01X52253Y14983D01*
G01Y14998D01*
G01X52252Y15005D01*
G01X52250Y15011D01*
G01X52246Y15021D01*
G01X52244Y15028D01*
G01X52242Y15042D01*
G01X52241Y15066D01*
G01X52239Y15086D01*
G01X52236Y15105D01*
G01X52225Y15152D01*
G01X52223Y15171D01*
G01X52220Y15212D01*
G01X52216Y15234D01*
G01X52213Y15253D01*
G01X52211Y15293D01*
G01X52207Y15316D01*
G01X52204Y15336D01*
G01X52201Y15376D01*
G01X52197Y15398D01*
G01X52195Y15419D01*
G01X52194Y15465D01*
G01X52193Y15476D01*
G01X52189Y15502D01*
G01X52190Y15530D01*
G01Y15541D01*
G01X52189Y15552D01*
G01X52185Y15578D01*
G01X52183Y15593D01*
G01X52182Y15606D01*
G01Y15654D01*
G01X52180Y15681D01*
G01X52178Y15716D01*
G01X52176Y15766D01*
G01Y15805D01*
G01X52177Y15849D01*
G01Y15882D01*
G01X52175Y15909D01*
G01Y15931D01*
G01X52178Y15954D01*
G01Y15964D01*
G01Y15974D01*
G01X52175Y15986D01*
G01X52174Y15995D01*
G01X52175Y16010D01*
G01X52177Y16033D01*
G01X52179Y16051D01*
G01X52178Y16109D01*
G01X52181Y16142D01*
G01X52180Y16151D01*
G01X52177Y16157D01*
G01X52172Y16162D01*
G01X52163Y16164D01*
G01X52154D01*
G01X52113Y16167D01*
G01X52071Y16173D01*
G01X52054Y16174D01*
G01X52006Y16176D01*
G37*
G36*
G01X53104Y15669D02*
G01X53041Y15495D01*
G01X53605Y15290D01*
G01X53673Y15265D01*
G01X54156Y15083D01*
G01X54176Y15073D01*
G01X54179Y15071D01*
G01X54183Y15064D01*
G01X54185Y15060D01*
G01X54186Y15055D01*
G01Y15045D01*
G01X54184Y15023D01*
G01X54183Y15001D01*
G01X54185Y14980D01*
G01Y14961D01*
G01X54183Y14931D01*
G01X54184Y14901D01*
G01X54183Y14853D01*
G01X54184Y14820D01*
G01X54186Y14793D01*
G01X54185Y14771D01*
G01X54182Y14748D01*
G01Y14738D01*
G01X54183Y14729D01*
G01X54184Y14720D01*
G01X54185Y14712D01*
G01Y14703D01*
G01X54183Y14693D01*
G01X54180Y14682D01*
G01X54173Y14668D01*
G01X54165D01*
G01Y14669D01*
G01X54164D01*
G01X54155Y14673D01*
G01X53624Y14870D01*
G01X53499Y14915D01*
G01X53096Y15056D01*
G01X53075Y15061D01*
G01X53070Y15062D01*
G01X53069Y15061D01*
G01X53068D01*
G01X53067Y15060D01*
G01X53065Y15056D01*
G01X53057Y15040D01*
G01X53036Y14994D01*
G01X52707Y14118D01*
G01X52465Y13442D01*
G01X52687D01*
G01X53186Y14813D01*
G01X53585Y14668D01*
G01X53441Y14272D01*
G01X53647D01*
G01X53700Y14415D01*
G01X53742Y14527D01*
G01X53760Y14571D01*
G01X53764Y14579D01*
G01X53776Y14598D01*
G01X54358Y14387D01*
G01X54298Y14222D01*
G01X54244Y14079D01*
G01X54234Y14057D01*
G01X54232Y14054D01*
G01X54229D01*
G01X54214Y14058D01*
G01X53957Y14149D01*
G01X53693Y14248D01*
G01X53671Y14258D01*
G01X53647Y14272D01*
G01X53441D01*
G01X53337Y13987D01*
G01X53254Y13760D01*
G01X53461D01*
G01X53581Y14089D01*
G01X54171Y13874D01*
G01X54111Y13710D01*
G01X54057Y13567D01*
G01X54048Y13545D01*
G01X54045Y13542D01*
G01X54043D01*
G01X54028Y13546D01*
G01X53770Y13637D01*
G01X53507Y13736D01*
G01X53485Y13745D01*
G01X53461Y13760D01*
G01X53254D01*
G01X53135Y13435D01*
G01X53085Y13306D01*
G01X53083Y13302D01*
G01X53077D01*
G01X53070Y13307D01*
G01Y13308D01*
G01X53067Y13310D01*
G01X53049Y13318D01*
G01X52916Y13369D01*
G01X52754Y13424D01*
G01X52727Y13432D01*
G01X52687Y13442D01*
G01X52465D01*
G01X52387Y13223D01*
G01X52367Y13162D01*
G01X52366Y13156D01*
G01X52367Y13153D01*
G01X52368Y13151D01*
G01X52369Y13148D01*
G01X52371Y13145D01*
G01X52376Y13140D01*
G01X52383Y13135D01*
G01X52397Y13127D01*
G01X52409Y13121D01*
G01X52430Y13113D01*
G01X52458Y13103D01*
G01X52504Y13089D01*
G01X52522Y13084D01*
G01X52554Y13077D01*
G01X52624Y13268D01*
G01X52704Y13239D01*
G01X53271D01*
G01X53391Y13569D01*
G01X53982Y13354D01*
G01X53923Y13193D01*
G01X53871Y13054D01*
G01X53861Y13033D01*
G01X53859Y13030D01*
G01X53856D01*
G01X53843Y13034D01*
G01X53563Y13133D01*
G01X53271Y13239D01*
G01X52704D01*
G01X53478Y12958D01*
G01X54049D01*
G01X54052Y12965D01*
G01Y12966D01*
G01X54056Y12974D01*
G01X54304Y13645D01*
G01X54549Y14317D01*
G01X54726Y14252D01*
G01X54865Y14201D01*
G01X54917Y14179D01*
G01X54924Y14176D01*
G01X54933Y14170D01*
G01X54937Y14164D01*
G01X54938Y14157D01*
G01X54936Y14152D01*
G01X54931Y14143D01*
G01X54694Y13503D01*
G01X54535Y13064D01*
G01X54463Y12854D01*
G01X54462Y12850D01*
G01X54461Y12843D01*
G01X54459Y12836D01*
G01X54456Y12830D01*
G01X54453Y12824D01*
G01X54452Y12823D01*
G01X54451D01*
G01X54450Y12822D01*
G01X54444D01*
G01X54437Y12823D01*
G01X54415Y12828D01*
G01X54383Y12837D01*
G01X54270Y12876D01*
G01X54115Y12930D01*
G01X54088Y12938D01*
G01X54075Y12940D01*
G01X54067Y12942D01*
G01X54061Y12945D01*
G01X54055Y12949D01*
G01X54049Y12958D01*
G01X53478D01*
G01X53505Y12948D01*
G01X54295Y12653D01*
G01X54365Y12623D01*
G01X54374Y12618D01*
G01X54376Y12616D01*
G01X54373Y12610D01*
G01X54362Y12587D01*
G01X54345Y12544D01*
G01X54336Y12515D01*
G01X54329Y12491D01*
G01X54324Y12470D01*
G01X54322Y12454D01*
G01X54321Y12424D01*
G01X54408Y12393D01*
G01X54447Y12379D01*
G01X54493Y12365D01*
G01X54501Y12364D01*
G01Y12365D01*
G01X54504Y12371D01*
G01X54851Y13313D01*
G01X55173Y14211D01*
G01X55192Y14273D01*
G01X55193Y14279D01*
G01Y14280D01*
G01Y14281D01*
G01X55192Y14282D01*
G01X55186Y14286D01*
G01X55174Y14294D01*
G01X55158Y14302D01*
G01X55107Y14325D01*
G01X54818Y14436D01*
G01X54460Y14563D01*
G01X54433Y14571D01*
G01X54423Y14572D01*
G01X54417Y14574D01*
G01X54412Y14577D01*
G01X54408Y14580D01*
G01X54406Y14582D01*
G01X54405Y14585D01*
G01X54404Y14588D01*
G01X54402Y14596D01*
G01X54400Y14612D01*
G01X54399Y14668D01*
G01Y14749D01*
G01X54396Y14776D01*
G01Y14796D01*
G01X54398Y14824D01*
G01X54396Y14855D01*
G01Y14877D01*
G01X54399Y14900D01*
G01Y14910D01*
G01Y14919D01*
G01X54397Y14932D01*
G01X54396Y14941D01*
G01X54397Y14959D01*
G01X54399Y14971D01*
G01X54404Y14999D01*
G01X54929Y14808D01*
G01X55292Y14677D01*
G01X55472Y14615D01*
G01X55477Y14613D01*
G01X55501Y14610D01*
G01X55525Y14679D01*
G01X55541Y14724D01*
G01X55546Y14747D01*
G01X55549Y14763D01*
G01Y14769D01*
G01X55548Y14770D01*
G01Y14771D01*
G01X55547D01*
G01X55544Y14773D01*
G01X55530Y14780D01*
G01X55489Y14799D01*
G01X54348Y15226D01*
G01X53152Y15658D01*
G01X53128Y15665D01*
G37*
G36*
G01X55580Y13667D02*
G01X55501Y13450D01*
G01X58009Y12537D01*
G01X58049Y12645D01*
G01X58088Y12754D01*
G37*
G36*
G01X59820Y13394D02*
G01X59810Y13392D01*
G01X59805Y13391D01*
G01X59795Y13387D01*
G01X59787Y13381D01*
G01X59762Y13356D01*
G01X59744Y13342D01*
G01X59730Y13328D01*
G01X59702Y13299D01*
G01X59684Y13285D01*
G01X59670Y13272D01*
G01X59642Y13243D01*
G01X59628Y13230D01*
G01X59615Y13219D01*
G01X59598Y13197D01*
G01X59590Y13189D01*
G01X59582Y13181D01*
G01X59554Y13156D01*
G01X59547Y13150D01*
G01X59532Y13132D01*
G01X59516Y13120D01*
G01X59502Y13106D01*
G01X59481Y13085D01*
G01X59467Y13071D01*
G01X59452Y13059D01*
G01X59431Y13041D01*
G01X59101Y13161D01*
G01X58793Y13272D01*
G01X58752Y13284D01*
G01X58725Y13289D01*
G01X58693Y13202D01*
G01X58680Y13163D01*
G01X58672Y13133D01*
G01X58670Y13122D01*
G01X58669Y13113D01*
G01X58670Y13106D01*
G01X58672Y13101D01*
G01X58675Y13099D01*
G01X58679Y13096D01*
G01X58694Y13088D01*
G01X58720Y13076D01*
G01X58825Y13036D01*
G01X58933Y12995D01*
G01X58960Y12981D01*
G01X58967Y12977D01*
G01X58969Y12974D01*
G01X58971Y12939D01*
G01Y12926D01*
G01Y12908D01*
G01X58967Y12879D01*
G01Y12857D01*
G01X58968Y12825D01*
G01X58965Y12791D01*
G01X58964Y12770D01*
G01X58967Y12737D01*
G01Y12676D01*
G01X58970Y12637D01*
G01Y12584D01*
G01X58971Y12574D01*
G01X58975Y12548D01*
G01X58974Y12525D01*
G01Y12515D01*
G01X58977Y12499D01*
G01X58982Y12477D01*
G01X58984Y12466D01*
G01X58986Y12454D01*
G01X58987Y12429D01*
G01X58989Y12410D01*
G01X58996Y12371D01*
G01X59002Y12334D01*
G01X59006Y12317D01*
G01X59011Y12304D01*
G01X59012Y12296D01*
G01X59015Y12262D01*
G01X59017Y12250D01*
G01X59019Y12238D01*
G01X59022Y12227D01*
G01X59035Y12180D01*
G01X59050Y12132D01*
G01X59060Y12101D01*
G01X59066Y12079D01*
G01X59070Y12070D01*
G01X59072Y12062D01*
G01Y12053D01*
G01X59071Y12038D01*
G01X59068Y12027D01*
G01X59064Y12019D01*
G01X59059Y12013D01*
G01X59051Y12010D01*
G01X59043Y12008D01*
G01X59028Y12001D01*
G01X59018Y11994D01*
G01X59004Y11987D01*
G01X58993Y11982D01*
G01X58967Y11973D01*
G01X58928Y11961D01*
G01X58913Y11954D01*
G01X58900Y11946D01*
G01X58892Y11943D01*
G01X58885Y11941D01*
G01X58871Y11940D01*
G01X58864Y11938D01*
G01X58857Y11935D01*
G01X58850Y11931D01*
G01X58836Y11923D01*
G01X58813Y11915D01*
G01X58798Y11908D01*
G01X58784Y11899D01*
G01X58777Y11896D01*
G01X58770Y11894D01*
G01X58756Y11893D01*
G01X58749Y11892D01*
G01X58742Y11889D01*
G01X58735Y11884D01*
G01X58721Y11876D01*
G01X58697Y11868D01*
G01X58683Y11861D01*
G01X58672Y11854D01*
G01X58659Y11847D01*
G01X58648Y11842D01*
G01X58621Y11833D01*
G01X58582Y11822D01*
G01X58567Y11815D01*
G01X58554Y11806D01*
G01X58545Y11802D01*
G01X58536Y11800D01*
G01X58517Y11796D01*
G01X58508Y11794D01*
G01X58500Y11790D01*
G01X58493Y11786D01*
G01X58478Y11777D01*
G01X58455Y11770D01*
G01X58440Y11763D01*
G01X58430Y11756D01*
G01X58416Y11749D01*
G01X58405Y11743D01*
G01X58379Y11734D01*
G01X58348Y11726D01*
G01X58332Y11720D01*
G01X58311Y11707D01*
G01X58297Y11700D01*
G01X58281Y11696D01*
G01X58276Y11693D01*
G01X58272Y11689D01*
G01X58269Y11686D01*
G01X58267Y11675D01*
G01X58266Y11662D01*
G01Y11655D01*
G01X58268Y11648D01*
G01X58271Y11641D01*
G01X58275Y11634D01*
G01X58280Y11627D01*
G01X58283Y11619D01*
G01X58286Y11610D01*
G01X58289Y11590D01*
G01X58291Y11581D01*
G01X58295Y11573D01*
G01X58302Y11563D01*
G01X58306Y11554D01*
G01X58312Y11539D01*
G01X58317Y11514D01*
G01X58321Y11504D01*
G01X58326Y11497D01*
G01X58331Y11491D01*
G01X58337Y11487D01*
G01X58343Y11486D01*
G01X58349Y11488D01*
G01X58360Y11494D01*
G01X58373Y11501D01*
G01X58384Y11506D01*
G01X58411Y11515D01*
G01X58449Y11527D01*
G01X58464Y11534D01*
G01X58486Y11546D01*
G01X58509Y11554D01*
G01X58524Y11561D01*
G01X58534Y11568D01*
G01X58548Y11575D01*
G01X58559Y11580D01*
G01X58585Y11590D01*
G01X58624Y11601D01*
G01X58639Y11608D01*
G01X58660Y11621D01*
G01X58683Y11628D01*
G01X58698Y11635D01*
G01X58709Y11642D01*
G01X58722Y11649D01*
G01X58733Y11655D01*
G01X58771Y11668D01*
G01X58799Y11679D01*
G01X58822Y11686D01*
G01X58837Y11693D01*
G01X58847Y11700D01*
G01X58861Y11707D01*
G01X58872Y11712D01*
G01X58899Y11721D01*
G01X58937Y11732D01*
G01X58952Y11739D01*
G01X58973Y11752D01*
G01X58988Y11758D01*
G01X59010Y11764D01*
G01X59030Y11772D01*
G01X59052Y11779D01*
G01X59067Y11786D01*
G01X59078Y11793D01*
G01X59091Y11800D01*
G01X59103Y11805D01*
G01X59115Y11809D01*
G01X59129Y11814D01*
G01X59139Y11815D01*
G01X59148Y11814D01*
G01X59155Y11810D01*
G01X59161Y11805D01*
G01X59171Y11794D01*
G01X59181Y11781D01*
G01X59188Y11766D01*
G01X59191Y11754D01*
G01X59197Y11739D01*
G01X59202Y11729D01*
G01X59217Y11705D01*
G01X59239Y11671D01*
G01X59246Y11656D01*
G01X59250Y11644D01*
G01X59255Y11630D01*
G01X59261Y11619D01*
G01X59275Y11595D01*
G01X59298Y11561D01*
G01X59326Y11518D01*
G01X59344Y11491D01*
G01X59356Y11472D01*
G01X59365Y11453D01*
G01X59419Y11375D01*
G01X59439Y11348D01*
G01X59482Y11293D01*
G01X59506Y11259D01*
G01X59539Y11215D01*
G01X59549Y11197D01*
G01X59553Y11191D01*
G01X59563Y11180D01*
G01X59588Y11156D01*
G01X59594Y11149D01*
G01X59611Y11128D01*
G01X59631Y11106D01*
G01X59655Y11077D01*
G01X59668Y11063D01*
G01X59700Y11027D01*
G01X59713Y11010D01*
G01X59726Y10995D01*
G01X59739Y10983D01*
G01X59748Y10977D01*
G01X59756Y10973D01*
G01X59764D01*
G01X59771Y10977D01*
G01X59813Y11005D01*
G01X59826Y11015D01*
G01X59845Y11033D01*
G01X59858Y11043D01*
G01X59882Y11059D01*
G01X59895Y11069D01*
G01X59906Y11079D01*
G01X59910Y11083D01*
G01X59913Y11087D01*
G01X59914Y11092D01*
G01X59915Y11096D01*
G01Y11101D01*
G01Y11106D01*
G01X59913Y11111D01*
G01X59905Y11128D01*
G01X59899Y11137D01*
G01X59894Y11145D01*
G01X59883Y11155D01*
G01X59878Y11160D01*
G01X59874Y11165D01*
G01X59867Y11178D01*
G01X59862Y11184D01*
G01X59838Y11207D01*
G01X59827Y11222D01*
G01X59822Y11231D01*
G01X59817Y11237D01*
G01X59807Y11248D01*
G01X59782Y11272D01*
G01X59744Y11321D01*
G01X59710Y11362D01*
G01X59672Y11411D01*
G01X59652Y11433D01*
G01X59642Y11446D01*
G01X59638Y11455D01*
G01X59632Y11465D01*
G01X59612Y11487D01*
G01X59602Y11500D01*
G01X59592Y11513D01*
G01X59565Y11553D01*
G01X59538Y11597D01*
G01X59514Y11631D01*
G01X59494Y11662D01*
G01X59475Y11692D01*
G01X59454Y11719D01*
G01X59448Y11728D01*
G01X59444Y11737D01*
G01X59439Y11753D01*
G01X59435Y11760D01*
G01X59431Y11766D01*
G01X59421Y11775D01*
G01X59416Y11782D01*
G01X59413Y11788D01*
G01X59411Y11796D01*
G01X59405Y11812D01*
G01X59392Y11832D01*
G01X59385Y11847D01*
G01X59378Y11870D01*
G01X59369Y11885D01*
G01X59363Y11896D01*
G01X59366Y11905D01*
G01X59376Y11913D01*
G01X59388Y11922D01*
G01X59395Y11926D01*
G01X59403Y11930D01*
G01X59412Y11932D01*
G01X59431Y11936D01*
G01X59440Y11939D01*
G01X59448Y11942D01*
G01X59462Y11951D01*
G01X59469Y11954D01*
G01X59476Y11956D01*
G01X59491D01*
G01X59498Y11958D01*
G01X59505Y11961D01*
G01X59512Y11965D01*
G01X59525Y11974D01*
G01X59549Y11982D01*
G01X59564Y11988D01*
G01X59585Y12002D01*
G01X59600Y12007D01*
G01X59622Y12014D01*
G01X59641Y12021D01*
G01X59664Y12028D01*
G01X59679Y12035D01*
G01X59689Y12042D01*
G01X59698Y12046D01*
G01X59713Y12052D01*
G01X59738Y12057D01*
G01X59749Y12061D01*
G01X59758Y12065D01*
G01X59769Y12072D01*
G01X59782Y12079D01*
G01X59794Y12084D01*
G01X59820Y12093D01*
G01X59859Y12105D01*
G01X59874Y12112D01*
G01X59888Y12120D01*
G01X59896Y12124D01*
G01X59905Y12126D01*
G01X59925Y12130D01*
G01X59933Y12133D01*
G01X59941Y12136D01*
G01X59952Y12143D01*
G01X59966Y12150D01*
G01X59977Y12155D01*
G01X59990Y12160D01*
G01X60051Y12179D01*
G01X60068Y12188D01*
G01X60083Y12197D01*
G01X60089Y12200D01*
G01X60096Y12202D01*
G01X60104D01*
G01X60114Y12204D01*
G01X60117Y12212D01*
G01X60111Y12248D01*
G01X60108Y12261D01*
G01X60105Y12272D01*
G01X60100Y12281D01*
G01X60091Y12295D01*
G01X60084Y12310D01*
G01X60080Y12326D01*
G01X60070Y12352D01*
G01X60063Y12374D01*
G01X60058Y12386D01*
G01X60049Y12389D01*
G01X60012Y12383D01*
G01X60000Y12380D01*
G01X59989Y12376D01*
G01X59980Y12372D01*
G01X59966Y12364D01*
G01X59959Y12361D01*
G01X59952Y12359D01*
G01X59937Y12358D01*
G01X59930Y12356D01*
G01X59923Y12353D01*
G01X59913Y12346D01*
G01X59899Y12339D01*
G01X59888Y12334D01*
G01X59862Y12325D01*
G01X59823Y12314D01*
G01X59808Y12307D01*
G01X59798Y12300D01*
G01X59789Y12296D01*
G01X59774Y12290D01*
G01X59749Y12284D01*
G01X59738Y12281D01*
G01X59729Y12277D01*
G01X59715Y12268D01*
G01X59708Y12265D01*
G01X59701Y12263D01*
G01X59686D01*
G01X59679Y12261D01*
G01X59672Y12258D01*
G01X59666Y12253D01*
G01X59651Y12245D01*
G01X59628Y12237D01*
G01X59613Y12231D01*
G01X59600Y12221D01*
G01X59592Y12218D01*
G01X59585Y12217D01*
G01X59571Y12216D01*
G01X59564Y12214D01*
G01X59557Y12211D01*
G01X59550Y12207D01*
G01X59536Y12199D01*
G01X59521Y12193D01*
G01X59499Y12186D01*
G01X59480Y12178D01*
G01X59457Y12172D01*
G01X59442Y12165D01*
G01X59431Y12158D01*
G01X59418Y12151D01*
G01X59407Y12146D01*
G01X59380Y12137D01*
G01X59342Y12125D01*
G01X59327Y12118D01*
G01X59313Y12110D01*
G01X59305Y12107D01*
G01X59296Y12106D01*
G01X59287D01*
G01X59279Y12108D01*
G01X59272Y12112D01*
G01X59267Y12117D01*
G01X59264Y12124D01*
G01X59262Y12132D01*
G01X59254Y12155D01*
G01X59249Y12173D01*
G01X59238Y12217D01*
G01X59230Y12245D01*
G01X59225Y12258D01*
G01X59217Y12289D01*
G01X59213Y12306D01*
G01X59208Y12336D01*
G01X59205Y12352D01*
G01X59198Y12379D01*
G01X59196Y12391D01*
G01X59194Y12403D01*
G01X59193Y12428D01*
G01X59191Y12439D01*
G01X59189Y12451D01*
G01X59183Y12479D01*
G01X59181Y12494D01*
G01X59182Y12513D01*
G01X59181Y12530D01*
G01X59178Y12543D01*
G01X59176Y12562D01*
G01X59175Y12580D01*
G01X59173Y12629D01*
G01X59172Y12647D01*
G01X59169Y12685D01*
G01Y12705D01*
G01X59171Y12735D01*
G01X59170Y12797D01*
G01X59172Y12814D01*
G01X59176Y12846D01*
G01Y12856D01*
G01X59175Y12866D01*
G01X59173Y12882D01*
G01Y12889D01*
G01X59175Y12896D01*
G01X59179Y12902D01*
G01X59188Y12909D01*
G01X59195Y12906D01*
G01X59196Y12905D01*
G01X59205Y12902D01*
G01X59762Y12695D01*
G01X60319Y12499D01*
G01X60342Y12493D01*
G01X60347Y12492D01*
G01X60372Y12493D01*
G01X60394Y12554D01*
G01X60404Y12582D01*
G01X60418Y12628D01*
G01X60423Y12646D01*
G01X60430Y12678D01*
G01X60056Y12814D01*
G01X59778Y12920D01*
G01X59710Y12951D01*
G01X59694Y12961D01*
G01X59689Y12967D01*
G01X59693Y12975D01*
G01X59698Y12982D01*
G01X59703Y12989D01*
G01X59709Y12995D01*
G01X59722Y13006D01*
G01X59739Y13028D01*
G01X59746Y13036D01*
G01X59755Y13044D01*
G01X59775Y13061D01*
G01X59789Y13074D01*
G01X59818Y13105D01*
G01X59836Y13119D01*
G01X59850Y13132D01*
G01X59871Y13154D01*
G01X59885Y13168D01*
G01X59918Y13196D01*
G01X59934Y13214D01*
G01X59939Y13219D01*
G01X59945Y13223D01*
G01X59954Y13227D01*
G01X59960Y13232D01*
G01X59965Y13238D01*
G01X59974Y13252D01*
G01X59977Y13257D01*
G01X59979Y13261D01*
G01X59980Y13266D01*
G01X59979Y13271D01*
G01X59978Y13276D01*
G01X59975Y13280D01*
G01X59972Y13284D01*
G01X59968Y13288D01*
G01X59938Y13314D01*
G01X59932Y13319D01*
G01X59895Y13346D01*
G01X59847Y13386D01*
G01X59844Y13389D01*
G01X59837Y13392D01*
G01X59829Y13393D01*
G37*
G36*
G01X61072Y12842D02*
G01X61065Y12841D01*
G01X61058Y12838D01*
G01X61010Y12805D01*
G01X60966Y12772D01*
G01X60958Y12767D01*
G01X60949Y12761D01*
G01X60934Y12752D01*
G01X60899Y12725D01*
G01X60846Y12689D01*
G01X60806Y12658D01*
G01X60787Y12642D01*
G01X60768Y12627D01*
G01X60751Y12615D01*
G01X60721Y12595D01*
G01X60684Y12567D01*
G01X60584Y12498D01*
G01X60540Y12465D01*
G01X60532Y12460D01*
G01X60521Y12453D01*
G01X60517Y12449D01*
G01X60514Y12443D01*
G01X60513Y12436D01*
G01X60514Y12429D01*
G01X60516Y12423D01*
G01X60520Y12418D01*
G01X60530Y12407D01*
G01X60534Y12402D01*
G01X60537Y12395D01*
G01X60541Y12383D01*
G01X60544Y12374D01*
G01X60553Y12360D01*
G01X60576Y12330D01*
G01X60600Y12297D01*
G01X60611Y12286D01*
G01X60619Y12280D01*
G01X60623Y12278D01*
G01X60627Y12276D01*
G01X60631D01*
G01X60636D01*
G01X60640Y12277D01*
G01X60645Y12279D01*
G01X60650Y12282D01*
G01X60655Y12286D01*
G01X60697Y12320D01*
G01X60718Y12336D01*
G01X60752Y12360D01*
G01X60798Y12395D01*
G01X60827Y12416D01*
G01X60841Y12425D01*
G01X60856Y12439D01*
G01X60875Y12454D01*
G01X60892Y12465D01*
G01X60922Y12485D01*
G01X60973Y12525D01*
G01X61000Y12544D01*
G01X61055Y12587D01*
G01X61089Y12611D01*
G01X61135Y12646D01*
G01X61172Y12672D01*
G01X61184Y12684D01*
G01X61187Y12690D01*
G01X61188Y12696D01*
G01X61187Y12702D01*
G01X61183Y12709D01*
G01X61138Y12770D01*
G01X61110Y12813D01*
G01X61102Y12822D01*
G01X61095Y12831D01*
G01X61087Y12837D01*
G01X61079Y12841D01*
G37*
G36*
G01X60471Y12039D02*
G01X60468Y12035D01*
G01X60464Y12029D01*
G01X60452Y12007D01*
G01X60428Y11953D01*
G01X60271Y11541D01*
G01X60192Y11326D01*
G01X60089Y11059D01*
G01X60080Y11040D01*
G01X60078Y11037D01*
G01X60070Y11030D01*
G01X60057Y11021D01*
G01X60045Y11014D01*
G01X60040Y11010D01*
G01X60025Y10995D01*
G01X60019Y10991D01*
G01X60013Y10987D01*
G01X60000Y10983D01*
G01X59992Y10980D01*
G01X59978Y10972D01*
G01X59958Y10956D01*
G01X59948Y10950D01*
G01X59939Y10946D01*
G01X59931Y10943D01*
G01X59915Y10938D01*
G01X59894Y10925D01*
G01X59879Y10918D01*
G01X59864Y10913D01*
G01X59840Y10905D01*
G01X59823Y10899D01*
G01X59758Y10885D01*
G01X59739Y10882D01*
G01X59703Y10881D01*
G01X59656Y10877D01*
G01X59627Y10879D01*
G01X59574Y10881D01*
G01X59551Y10884D01*
G01X59512Y10892D01*
G01X59489Y10895D01*
G01X59477Y10896D01*
G01X59463Y10898D01*
G01X59428Y10909D01*
G01X59408Y10914D01*
G01X59399Y10915D01*
G01X59398D01*
G01X59390Y10917D01*
G01X58708Y11162D01*
G01X58411Y11270D01*
G01X58021Y11408D01*
G01X58016Y11409D01*
G01X58010Y11408D01*
G01X58005Y11406D01*
G01X58002Y11401D01*
G01X58001Y11394D01*
G01X58000Y11387D01*
G01X57996Y11369D01*
G01X57989Y11347D01*
G01X57987Y11333D01*
G01X57984Y11319D01*
G01X57981Y11286D01*
G01X57978Y11262D01*
G01X57973Y11237D01*
G01X57967Y11205D01*
G01X58583Y10981D01*
G01X59049Y10813D01*
G01X59210Y10757D01*
G01X59214Y10756D01*
G01X59221D01*
G01X59241Y10750D01*
G01X59294Y10733D01*
G01X59324Y10722D01*
G01X59373Y10707D01*
G01X59391Y10702D01*
G01X59517Y10679D01*
G01X59542Y10675D01*
G01X59567Y10673D01*
G01X59615Y10670D01*
G01X59659Y10669D01*
G01X59684D01*
G01X59695Y10670D01*
G01X59708Y10673D01*
G01X59728Y10675D01*
G01X59768Y10678D01*
G01X59786Y10681D01*
G01X59819Y10689D01*
G01X59895Y10710D01*
G01X59910Y10716D01*
G01X59931Y10728D01*
G01X59946Y10736D01*
G01X59970Y10743D01*
G01X59991Y10756D01*
G01X60005Y10763D01*
G01X60018Y10767D01*
G01X60032Y10772D01*
G01X60043Y10778D01*
G01X60055Y10785D01*
G01X60066Y10792D01*
G01X60076Y10799D01*
G01X60084Y10806D01*
G01X60094Y10817D01*
G01X60100Y10821D01*
G01X60107Y10824D01*
G01X60114Y10827D01*
G01X60118Y10828D01*
G01X60126D01*
G01X60130Y10826D01*
G01X60134Y10824D01*
G01X60138Y10822D01*
G01X60141Y10819D01*
G01X60151Y10808D01*
G01X60156Y10801D01*
G01X60160Y10793D01*
G01X60165Y10777D01*
G01X60172Y10762D01*
G01X60179Y10751D01*
G01X60186Y10738D01*
G01X60191Y10727D01*
G01X60201Y10701D01*
G01X60212Y10661D01*
G01X60219Y10647D01*
G01X60226Y10637D01*
G01X60233Y10623D01*
G01X60238Y10612D01*
G01X60247Y10585D01*
G01X60258Y10547D01*
G01X60265Y10531D01*
G01X60272Y10521D01*
G01X60279Y10507D01*
G01X60284Y10496D01*
G01X60289Y10483D01*
G01X60309Y10423D01*
G01X60317Y10405D01*
G01X60327Y10391D01*
G01X60333Y10376D01*
G01X60341Y10353D01*
G01X60349Y10338D01*
G01X60354Y10333D01*
G01X60361Y10332D01*
G01X60367Y10334D01*
G01X60374Y10339D01*
G01X60434Y10396D01*
G01X60449Y10409D01*
G01X60466Y10423D01*
G01X60480Y10436D01*
G01X60493Y10449D01*
G01X60500Y10458D01*
G01X60505Y10466D01*
G01X60508Y10474D01*
G01X60509Y10482D01*
G01Y10489D01*
G01X60508Y10504D01*
G01X60504Y10520D01*
G01X60497Y10535D01*
G01X60484Y10556D01*
G01X60476Y10580D01*
G01X60469Y10594D01*
G01X60456Y10615D01*
G01X60448Y10639D01*
G01X60442Y10653D01*
G01X60433Y10667D01*
G01X60430Y10674D01*
G01X60428Y10681D01*
G01X60427Y10695D01*
G01X60426Y10703D01*
G01X60423Y10710D01*
G01X60418Y10716D01*
G01X60410Y10730D01*
G01X60402Y10754D01*
G01X60395Y10769D01*
G01X60382Y10790D01*
G01X60374Y10813D01*
G01X60368Y10828D01*
G01X60359Y10842D01*
G01X60355Y10850D01*
G01X60352Y10859D01*
G01X60349Y10878D01*
G01X60346Y10887D01*
G01X60343Y10896D01*
G01X60339Y10903D01*
G01X60330Y10917D01*
G01X60322Y10940D01*
G01X60315Y10955D01*
G01X60311Y10962D01*
G01Y10963D01*
G01X60310Y10964D01*
G01Y10966D01*
G01X60311Y10970D01*
G01X60314Y10988D01*
G01X60327Y11030D01*
G01X60449Y11383D01*
G01X60598Y11791D01*
G01X60928Y11671D01*
G01X60959Y11758D01*
G01X60978Y11813D01*
G01X60984Y11837D01*
G01X60986Y11846D01*
G01Y11852D01*
G01X60985Y11857D01*
G01X60984Y11858D01*
G01X60981Y11860D01*
G01X60970Y11866D01*
G01X60942Y11879D01*
G01X60737Y11957D01*
G01X60549Y12021D01*
G01X60497Y12036D01*
G01X60481Y12039D01*
G37*
G36*
G01X64666Y11382D02*
G01X64631Y11286D01*
G01X64617Y11243D01*
G01X64608Y11209D01*
G01X64605Y11195D01*
G01Y11184D01*
G01Y11174D01*
G01X64607Y11167D01*
G01X64613Y11156D01*
G01X64620Y11145D01*
G01X64627Y11133D01*
G01X64652Y11101D01*
G01X64668Y11076D01*
G01X64688Y11046D01*
G01X64717Y11008D01*
G01X64732Y10984D01*
G01X64752Y10955D01*
G01X64781Y10916D01*
G01X64797Y10892D01*
G01X64817Y10862D01*
G01X64844Y10827D01*
G01X64848Y10819D01*
G01X64853Y10810D01*
G01X64863Y10794D01*
G01X64888Y10761D01*
G01X64893Y10754D01*
G01X64899Y10744D01*
G01X64908Y10729D01*
G01X64934Y10696D01*
G01X64938Y10688D01*
G01X64943Y10679D01*
G01X64953Y10663D01*
G01X64978Y10630D01*
G01X64983Y10623D01*
G01X64988Y10613D01*
G01X64998Y10598D01*
G01X65023Y10565D01*
G01X65028Y10557D01*
G01X65033Y10548D01*
G01X65043Y10532D01*
G01X65070Y10498D01*
G01X65084Y10478D01*
G01X65111Y10438D01*
G01X65123Y10417D01*
G01X65133Y10401D01*
G01X65160Y10367D01*
G01X65241Y10248D01*
G01X65281Y10195D01*
G01X65292Y10176D01*
G01X65299Y10164D01*
G01Y10157D01*
G01X65295Y10142D01*
G01X65284Y10104D01*
G01X65091Y9551D01*
G01X64915Y9066D01*
G01X64875Y8946D01*
G01X64874Y8942D01*
G01X64872Y8925D01*
G01X64866Y8887D01*
G01Y8875D01*
G01Y8865D01*
G01X64868Y8852D01*
G01X64869Y8843D01*
G01Y8828D01*
G01X64867Y8806D01*
G01Y8796D01*
G01X64870Y8787D01*
G01X64874Y8780D01*
G01X64882Y8766D01*
G01X64890Y8743D01*
G01X64897Y8728D01*
G01X64912Y8707D01*
G01X64942Y8677D01*
G01X64963Y8659D01*
G01X64997Y8632D01*
G01X65004Y8627D01*
G01X65018Y8620D01*
G01X65064Y8601D01*
G01X65073Y8596D01*
G01X65081Y8592D01*
G01X65083Y8590D01*
G01X65098Y8584D01*
G01X65326Y8497D01*
G01X65471Y8448D01*
G01X65534Y8430D01*
G01X65554Y8426D01*
G01X65569Y8425D01*
G01X65576Y8427D01*
G01X65589Y8440D01*
G01X65600Y8452D01*
G01X65604Y8459D01*
G01X65613Y8478D01*
G01X65623Y8503D01*
G01X65630Y8516D01*
G01X65638Y8529D01*
G01X65647Y8543D01*
G01X65660Y8563D01*
G01X65666Y8576D01*
G01X65670Y8587D01*
G01X65674Y8617D01*
G01X65457Y8695D01*
G01X65322Y8745D01*
G01X65228Y8783D01*
G01X65220Y8787D01*
G01X65180Y8811D01*
G01X65170Y8817D01*
G01X65162Y8824D01*
G01X65156Y8830D01*
G01X65150Y8837D01*
G01X65130Y8864D01*
G01X65126Y8871D01*
G01X65123Y8880D01*
G01X65121Y8891D01*
G01X65120Y8902D01*
G01X65119Y8942D01*
G01X65120D01*
G01X65122Y8952D01*
G01X65340Y9564D01*
G01X65550Y10157D01*
G01X65556Y10179D01*
G01Y10183D01*
G01X65551Y10194D01*
G01X65536Y10220D01*
G01X65520Y10243D01*
G01X65513Y10252D01*
G01X65499Y10268D01*
G01X65489Y10281D01*
G01X65485Y10291D01*
G01X65475Y10306D01*
G01X65448Y10340D01*
G01X65379Y10440D01*
G01X65344Y10487D01*
G01X65320Y10521D01*
G01X65286Y10565D01*
G01X65282Y10573D01*
G01X65276Y10582D01*
G01X65266Y10597D01*
G01X65239Y10632D01*
G01X65203Y10685D01*
G01X65184Y10712D01*
G01X65157Y10746D01*
G01X65143Y10765D01*
G01X65138Y10773D01*
G01X65133Y10782D01*
G01X65123Y10797D01*
G01X65096Y10832D01*
G01X65060Y10885D01*
G01X65016Y10941D01*
G01X65001Y10965D01*
G01X64985Y10988D01*
G01X64978Y10997D01*
G01X64965Y11013D01*
G01X64961Y11021D01*
G01X64958Y11028D01*
G01X64957Y11035D01*
G01X64958Y11036D01*
G01X64959D01*
G01X64962Y11035D01*
G01X64972Y11033D01*
G01X65003Y11024D01*
G01X65877Y10715D01*
G01X66801Y10383D01*
G01X66821Y10376D01*
G01X66844Y10373D01*
G01X66873Y10451D01*
G01X66899Y10527D01*
G01X66904Y10546D01*
G01X66908Y10576D01*
G01X65810Y10975D01*
G01X64712Y11371D01*
G01X64689Y11378D01*
G37*
G36*
G01X67591Y10441D02*
G01X67585Y10439D01*
G01X67579Y10434D01*
G01X67570Y10421D01*
G01X67547Y10385D01*
G01X67535Y10368D01*
G01X67528Y10358D01*
G01X67516Y10328D01*
G01X67507Y10311D01*
G01X67501Y10302D01*
G01X67497Y10295D01*
G01X67493Y10286D01*
G01X67490Y10270D01*
G01Y10260D01*
G01X67492Y10251D01*
G01X67496Y10245D01*
G01X67504Y10241D01*
G01X67527Y10231D01*
G01X67541Y10222D01*
G01X67559Y10211D01*
G01X67580Y10196D01*
G01X67597Y10188D01*
G01X67643Y10170D01*
G01X67663Y10161D01*
G01X67674Y10154D01*
G01X67692Y10143D01*
G01X67712Y10129D01*
G01X67727Y10121D01*
G01X67763Y10107D01*
G01X67784Y10098D01*
G01X67806Y10086D01*
G01X67820Y10079D01*
G01X67840Y10067D01*
G01X67854Y10057D01*
G01X67870Y10049D01*
G01X67922Y10028D01*
G01X67932Y10023D01*
G01X67939Y10019D01*
G01X67946Y10014D01*
G01X67961Y10007D01*
G01X68006Y9988D01*
G01X68016Y9983D01*
G01X68023Y9978D01*
G01X68029Y9974D01*
G01X68045Y9966D01*
G01X68090Y9948D01*
G01X68099Y9943D01*
G01X68108Y9937D01*
G01X68119Y9930D01*
G01X68133Y9924D01*
G01X68196Y9899D01*
G01X68208Y9893D01*
G01X68216Y9888D01*
G01X68229Y9880D01*
G01X68253Y9869D01*
G01X68268Y9862D01*
G01X68279Y9854D01*
G01X68299Y9844D01*
G01X68337Y9829D01*
G01X68350Y9825D01*
G01X68393Y9807D01*
G01X68418Y9795D01*
G01X68431Y9788D01*
G01X68451Y9775D01*
G01X68462Y9768D01*
G01X68483Y9758D01*
G01X68561Y9728D01*
G01X68644Y9696D01*
G01X68659Y9689D01*
G01X68666Y9684D01*
G01X68679Y9677D01*
G01X68713Y9663D01*
G01X68732Y9654D01*
G01X68743Y9646D01*
G01X68765Y9636D01*
G01X68837Y9608D01*
G01X68857Y9601D01*
G01X68916Y9578D01*
G01X68931Y9570D01*
G01X68935Y9568D01*
G01X68941Y9564D01*
G01X68959Y9555D01*
G01X69063Y9515D01*
G01X69084Y9505D01*
G01X69090Y9501D01*
G01X69101Y9495D01*
G01X69114Y9488D01*
G01X69172Y9466D01*
G01X69195Y9455D01*
G01X69206Y9449D01*
G01X69226Y9437D01*
G01X69087Y9055D01*
G01X67395Y9671D01*
G01X67360Y9576D01*
G01X67329Y9484D01*
G01X67323Y9464D01*
G01X67320Y9445D01*
G01Y9423D01*
G01X67322Y9393D01*
G01X67320Y9364D01*
G01X67321Y9353D01*
G01X67322Y9341D01*
G01X67325Y9326D01*
G01X67540D01*
G01X67541Y9336D01*
G01X67542Y9345D01*
G01X67553Y9378D01*
G01X68647Y8979D01*
G01X68633Y8955D01*
G01X68626Y8943D01*
G01X68618Y8933D01*
G01X68608Y8923D01*
G01X68588Y8905D01*
G01X68574Y8892D01*
G01X68553Y8869D01*
G01X68543Y8861D01*
G01X68534Y8853D01*
G01X68515Y8840D01*
G01X68506Y8833D01*
G01X68498Y8824D01*
G01X68473Y8800D01*
G01X68466Y8793D01*
G01X68445Y8777D01*
G01X68423Y8756D01*
G01X68410Y8746D01*
G01X68381Y8726D01*
G01X68336Y8691D01*
G01X68301Y8667D01*
G01X68255Y8632D01*
G01X68235Y8618D01*
G01X68196Y8591D01*
G01X68174Y8579D01*
G01X68164Y8573D01*
G01X68143Y8554D01*
G01X68135Y8549D01*
G01X68127Y8545D01*
G01X68119Y8543D01*
G01X68104Y8537D01*
G01X68090Y8529D01*
G01X68070Y8516D01*
G01X68052Y8506D01*
G01X68032Y8493D01*
G01X68018Y8487D01*
G01X68005Y8483D01*
G01X67991Y8478D01*
G01X67980Y8472D01*
G01X67957Y8458D01*
G01X67940Y8447D01*
G01X67933Y8440D01*
G01X67930Y8438D01*
G01X67918Y8432D01*
G01X67876Y8417D01*
G01X67847Y8406D01*
G01X67819Y8398D01*
G01X67810Y8395D01*
G01X67804Y8394D01*
G01X67797Y8399D01*
G01X67776Y8422D01*
G01X67769Y8429D01*
G01X67764Y8437D01*
G01X67760Y8445D01*
G01X67758Y8453D01*
G01X67752Y8468D01*
G01X67739Y8490D01*
G01X67732Y8504D01*
G01X67725Y8528D01*
G01X67711Y8549D01*
G01X67705Y8563D01*
G01X67697Y8587D01*
G01X67684Y8608D01*
G01X67677Y8623D01*
G01X67673Y8639D01*
G01X67663Y8665D01*
G01X67656Y8687D01*
G01X67649Y8709D01*
G01X67641Y8727D01*
G01X67635Y8751D01*
G01X67619Y8800D01*
G01X67610Y8831D01*
G01X67595Y8899D01*
G01X67586Y8933D01*
G01X67582Y8949D01*
G01X67577Y8984D01*
G01X67570Y9019D01*
G01X67565Y9058D01*
G01X67560Y9079D01*
G01X67557Y9098D01*
G01X67555Y9138D01*
G01X67552Y9157D01*
G01X67549Y9174D01*
G01X67550Y9202D01*
G01Y9213D01*
G01X67549Y9225D01*
G01X67545Y9250D01*
G01X67543Y9262D01*
G01Y9273D01*
G01X67544Y9292D01*
G01X67543Y9310D01*
G01X67540Y9326D01*
G01X67325D01*
G01X67326Y9316D01*
G01X67327Y9304D01*
G01X67328Y9293D01*
G01X67327Y9273D01*
G01Y9262D01*
G01X67328Y9250D01*
G01X67333Y9224D01*
G01X67335Y9205D01*
G01X67338Y9164D01*
G01X67342Y9141D01*
G01X67345Y9122D01*
G01X67347Y9093D01*
G01X67350Y9074D01*
G01X67353Y9064D01*
G01X67356Y9057D01*
G01X67358Y9042D01*
G01X67360Y9008D01*
G01X67361Y8998D01*
G01X67366Y8974D01*
G01Y8955D01*
G01X67368Y8942D01*
G01X67376Y8911D01*
G01X67380Y8895D01*
G01X67384Y8869D01*
G01X67387Y8853D01*
G01X67396Y8820D01*
G01X67409Y8763D01*
G01X67425Y8702D01*
G01X67432Y8680D01*
G01X67440Y8661D01*
G01X67446Y8638D01*
G01X67455Y8615D01*
G01X67458Y8603D01*
G01X67463Y8576D01*
G01X67466Y8566D01*
G01X67470Y8558D01*
G01X67474Y8551D01*
G01X67482Y8537D01*
G01X67490Y8514D01*
G01X67497Y8499D01*
G01X67506Y8486D01*
G01X67509Y8479D01*
G01X67511Y8471D01*
G01Y8460D01*
G01X67512Y8456D01*
G01X67514Y8447D01*
G01X67519Y8436D01*
G01X67540Y8401D01*
G01X67549Y8381D01*
G01X67566Y8346D01*
G01X67569Y8337D01*
G01X67570Y8330D01*
G01X67569Y8323D01*
G01X67566Y8316D01*
G01X67563Y8314D01*
G01X67559Y8311D01*
G01X67552Y8307D01*
G01X67542Y8303D01*
G01X67505Y8295D01*
G01X67464Y8283D01*
G01X67408Y8271D01*
G01X67373Y8262D01*
G01X67361Y8260D01*
G01X67350Y8258D01*
G01X67325Y8257D01*
G01X67305Y8254D01*
G01X67267Y8248D01*
G01X67220Y8241D01*
G01X67198Y8236D01*
G01X67178Y8234D01*
G01X67148Y8232D01*
G01X67130Y8230D01*
G01X67097Y8225D01*
G01X67083Y8223D01*
G01X67069Y8222D01*
G01X67029D01*
G01X67018Y8221D01*
G01X67005Y8218D01*
G01X66983Y8216D01*
G01X66964D01*
G01X66931D01*
G01X66903Y8213D01*
G01X66869Y8211D01*
G01X66829D01*
G01X66720Y8214D01*
G01X66673D01*
G01X66633Y8213D01*
G01X66617Y8215D01*
G01X66595Y8217D01*
G01X66585Y8218D01*
G01X66576Y8217D01*
G01X66568Y8214D01*
G01X66563Y8210D01*
G01X66559Y8204D01*
G01X66557Y8197D01*
G01Y8190D01*
G01X66559Y8178D01*
G01X66561Y8156D01*
G01Y8111D01*
G01X66563Y8100D01*
G01X66565Y8087D01*
G01X66568Y8068D01*
G01X66569Y8050D01*
G01X66570Y8000D01*
G01X66572Y7989D01*
G01X66575Y7982D01*
G01X66579Y7977D01*
G01X66586Y7975D01*
G01X66593D01*
G01X66639Y7972D01*
G01X66678Y7975D01*
G01X66733Y7976D01*
G01X66833Y7979D01*
G01X66851Y7980D01*
G01X66889Y7983D01*
G01X66946Y7986D01*
G01X66965Y7990D01*
G01X66981Y7992D01*
G01X67009Y7991D01*
G01X67027Y7992D01*
G01X67039Y7994D01*
G01X67059Y7997D01*
G01X67099Y8000D01*
G01X67121Y8004D01*
G01X67140Y8007D01*
G01X67170Y8009D01*
G01X67190Y8011D01*
G01X67228Y8017D01*
G01X67256Y8021D01*
G01X67308Y8027D01*
G01X67344Y8034D01*
G01X67369Y8039D01*
G01X67403Y8048D01*
G01X67422Y8051D01*
G01X67437Y8052D01*
G01X67456Y8055D01*
G01X67560Y8084D01*
G01X67614Y8096D01*
G01X67623Y8099D01*
G01X67633Y8103D01*
G01X67650Y8108D01*
G01X67668Y8112D01*
G01X67680Y8114D01*
G01X67690Y8113D01*
G01X67698Y8109D01*
G01X67704Y8104D01*
G01X67747Y8049D01*
G01X67771Y8015D01*
G01X67806Y7968D01*
G01X67826Y7940D01*
G01X67836Y7926D01*
G01X67854Y7907D01*
G01X67864Y7894D01*
G01X67880Y7870D01*
G01X67888Y7861D01*
G01X67896Y7853D01*
G01X67913Y7836D01*
G01X67925Y7822D01*
G01X67930Y7813D01*
G01X67934Y7806D01*
G01X67944Y7795D01*
G01X67962Y7779D01*
G01X67975Y7765D01*
G01X68000Y7735D01*
G01X68032Y7699D01*
G01X68043Y7686D01*
G01X68055Y7673D01*
G01X68077Y7656D01*
G01X68089Y7644D01*
G01X68099Y7631D01*
G01X68110Y7619D01*
G01X68127Y7605D01*
G01X68137Y7593D01*
G01X68149Y7580D01*
G01X68171Y7563D01*
G01X68183Y7551D01*
G01X68191Y7541D01*
G01X68204Y7526D01*
G01X68230Y7502D01*
G01X68263Y7469D01*
G01X68305Y7433D01*
G01X68318Y7421D01*
G01X68345Y7394D01*
G01X68371Y7370D01*
G01X68401Y7344D01*
G01X68407Y7340D01*
G01X68436Y7318D01*
G01X68444Y7311D01*
G01X68452Y7303D01*
G01X68469Y7283D01*
G01X68478Y7274D01*
G01X68488Y7266D01*
G01X68498Y7260D01*
G01X68503Y7257D01*
G01X68507Y7255D01*
G01X68512Y7254D01*
G01X68517D01*
G01X68521Y7255D01*
G01X68525Y7256D01*
G01X68529Y7258D01*
G01X68533Y7262D01*
G01X68571Y7297D01*
G01X68599Y7321D01*
G01X68614Y7333D01*
G01X68649Y7365D01*
G01X68669Y7382D01*
G01X68674Y7388D01*
G01X68679Y7395D01*
G01X68683Y7404D01*
G01X68685Y7412D01*
G01X68684Y7419D01*
G01X68680Y7426D01*
G01X68673Y7432D01*
G01X68657Y7444D01*
G01X68609Y7484D01*
G01X68552Y7533D01*
G01X68515Y7563D01*
G01X68490Y7584D01*
G01X68461Y7612D01*
G01X68441Y7629D01*
G01X68415Y7651D01*
G01X68389Y7676D01*
G01X68366Y7694D01*
G01X68353Y7706D01*
G01X68345Y7716D01*
G01X68332Y7730D01*
G01X68319Y7742D01*
G01X68282Y7775D01*
G01X68269Y7788D01*
G01X68250Y7807D01*
G01X68108Y7957D01*
G01X68094Y7972D01*
G01X68073Y7999D01*
G01X68052Y8022D01*
G01X68028Y8050D01*
G01X68016Y8065D01*
G01X67990Y8093D01*
G01X67980Y8106D01*
G01X67964Y8130D01*
G01X67954Y8142D01*
G01X67937Y8162D01*
G01X67933Y8169D01*
G01X67930Y8177D01*
G01Y8184D01*
G01Y8187D01*
G01X67931Y8191D01*
G01X67933Y8195D01*
G01X67935Y8198D01*
G01X67938Y8201D01*
G01X67941Y8205D01*
G01X67950Y8211D01*
G01X67967Y8221D01*
G01X67973Y8224D01*
G01X67982Y8226D01*
G01X67985Y8227D01*
G01X67998Y8232D01*
G01X68015Y8241D01*
G01X68026Y8248D01*
G01X68043Y8260D01*
G01X68052Y8267D01*
G01X68057Y8270D01*
G01X68071Y8275D01*
G01X68087Y8280D01*
G01X68108Y8294D01*
G01X68122Y8300D01*
G01X68138Y8305D01*
G01X68145Y8308D01*
G01X68151Y8313D01*
G01X68160Y8323D01*
G01X68166Y8328D01*
G01X68173Y8331D01*
G01X68181Y8333D01*
G01X68189Y8336D01*
G01X68196Y8340D01*
G01X68205Y8345D01*
G01X68219Y8358D01*
G01X68227Y8363D01*
G01X68235Y8367D01*
G01X68247Y8371D01*
G01X68256Y8374D01*
G01X68270Y8383D01*
G01X68299Y8405D01*
G01X68307Y8409D01*
G01X68319Y8416D01*
G01X68338Y8428D01*
G01X68392Y8468D01*
G01X68439Y8500D01*
G01X68483Y8534D01*
G01X68491Y8539D01*
G01X68504Y8546D01*
G01X68511Y8551D01*
G01X68535Y8576D01*
G01X68543Y8584D01*
G01X68553Y8591D01*
G01X68571Y8605D01*
G01X68581Y8612D01*
G01X68590Y8620D01*
G01X68606Y8637D01*
G01X68620Y8649D01*
G01X68629Y8654D01*
G01X68636Y8659D01*
G01X68647Y8669D01*
G01X68670Y8693D01*
G01X68688Y8708D01*
G01X68703Y8721D01*
G01X68730Y8750D01*
G01X68748Y8765D01*
G01X68763Y8778D01*
G01X68787Y8804D01*
G01X68820Y8837D01*
G01X68833Y8852D01*
G01X68846Y8865D01*
G01X68860Y8877D01*
G01X68881Y8894D01*
G01X69011Y8847D01*
G01X68998Y8809D01*
G01X68993Y8788D01*
G01X68991Y8776D01*
G01X68986Y8756D01*
G01X68944Y8635D01*
G01X68904Y8518D01*
G01X68898Y8496D01*
G01X68896Y8491D01*
G01X68895Y8483D01*
G01X68890Y8463D01*
G01X68855Y8359D01*
G01X68850Y8342D01*
G01X68848Y8331D01*
G01Y8323D01*
G01X68843Y8303D01*
G01X68830Y8265D01*
G01X68819Y8224D01*
G01X68815Y8205D01*
G01X68810Y8178D01*
G01X68809Y8165D01*
G01X68807Y8152D01*
G01X68797Y8121D01*
G01X68792Y8105D01*
G01X68789Y8087D01*
G01X68786Y8066D01*
G01X68783Y8034D01*
G01X68777Y8013D01*
G01X68774Y7997D01*
G01X68772Y7985D01*
G01Y7971D01*
G01X68769Y7937D01*
G01X68764Y7894D01*
G01X68758Y7772D01*
G01Y7745D01*
G01X68761Y7645D01*
G01X68762Y7628D01*
G01X68765Y7590D01*
G01X68769Y7532D01*
G01X68770Y7522D01*
G01X68775Y7498D01*
G01X68776Y7479D01*
G01X68777Y7460D01*
G01X68784Y7423D01*
G01X68789Y7385D01*
G01X68792Y7369D01*
G01X68800Y7341D01*
G01X68804Y7325D01*
G01X68809Y7290D01*
G01X68832Y7180D01*
G01X68834Y7164D01*
G01Y7154D01*
G01X68835Y7151D01*
G01X68837Y7148D01*
G01X68840Y7146D01*
G01X68843Y7145D01*
G01X68847Y7143D01*
G01X68852D01*
G01X68870Y7144D01*
G01X68880Y7146D01*
G01X68889Y7150D01*
G01X68900Y7156D01*
G01X68912Y7163D01*
G01X68943Y7174D01*
G01X68960Y7182D01*
G01X68975Y7191D01*
G01X68989Y7198D01*
G01X69001Y7202D01*
G01X69016Y7208D01*
G01X69027Y7213D01*
G01X69039Y7220D01*
G01X69049Y7227D01*
G01X69056Y7234D01*
G01X69059Y7241D01*
G01Y7247D01*
G01X69057Y7250D01*
G01X69053Y7261D01*
G01X69049Y7290D01*
G01X69046Y7306D01*
G01X69031Y7360D01*
G01X69019Y7410D01*
G01X69015Y7439D01*
G01X69011Y7455D01*
G01X69006Y7469D01*
G01X69004Y7477D01*
G01X69002Y7510D01*
G01X68999Y7529D01*
G01X68995Y7539D01*
G01X68992Y7546D01*
G01X68990Y7561D01*
G01X68988Y7595D01*
G01X68984Y7617D01*
G01X68981Y7637D01*
G01X68979Y7677D01*
G01X68975Y7699D01*
G01X68974Y7708D01*
G01Y7724D01*
G01X68977Y7746D01*
G01Y7768D01*
G01X68975Y7797D01*
G01Y7814D01*
G01Y7843D01*
G01X68981Y7939D01*
G01X68983Y7958D01*
G01X68998Y8041D01*
G01X69001Y8062D01*
G01X69003Y8087D01*
G01X69007Y8103D01*
G01X69019Y8139D01*
G01X69026Y8162D01*
G01X69032Y8186D01*
G01X69034Y8201D01*
G01X69038Y8224D01*
G01X69039Y8237D01*
G01X69045Y8261D01*
G01X69083Y8372D01*
G01X69088Y8390D01*
G01X69090Y8401D01*
G01X69091Y8405D01*
G01X69097Y8429D01*
G01X69135Y8540D01*
G01X69141Y8564D01*
G01Y8569D01*
G01Y8570D01*
G01X69144Y8581D01*
G01X69312Y9052D01*
G01X69451Y9438D01*
G01X69485Y9539D01*
G01X69486Y9544D01*
G01X69490Y9567D01*
G01X69433Y9587D01*
G01X69388Y9605D01*
G01X69374Y9612D01*
G01X69366Y9617D01*
G01X69360Y9621D01*
G01X69338Y9631D01*
G01X69253Y9665D01*
G01X69233Y9674D01*
G01X69226Y9679D01*
G01X69204Y9690D01*
G01X69123Y9721D01*
G01X69037Y9754D01*
G01X69020Y9762D01*
G01X69013Y9766D01*
G01X69002Y9773D01*
G01X68973Y9785D01*
G01X68956Y9794D01*
G01X68946Y9801D01*
G01X68924Y9811D01*
G01X68860Y9835D01*
G01X68842Y9843D01*
G01X68789Y9864D01*
G01X68775Y9870D01*
G01X68771Y9873D01*
G01X68764Y9878D01*
G01X68748Y9886D01*
G01X68719Y9898D01*
G01X68704Y9907D01*
G01X68698Y9911D01*
G01X68680Y9920D01*
G01X68576Y9960D01*
G01X68560Y9967D01*
G01X68552Y9973D01*
G01X68546Y9976D01*
G01X68527Y9985D01*
G01X68481Y10004D01*
G01X68454Y10014D01*
G01X68436Y10023D01*
G01X68430Y10028D01*
G01X68418Y10035D01*
G01X68383Y10049D01*
G01X68365Y10058D01*
G01X68358Y10062D01*
G01X68352Y10067D01*
G01X68332Y10076D01*
G01X68253Y10107D01*
G01X68239Y10114D01*
G01X68231Y10119D01*
G01X68218Y10127D01*
G01X68194Y10138D01*
G01X68180Y10145D01*
G01X68166Y10154D01*
G01X68152Y10162D01*
G01X68131Y10170D01*
G01X68104Y10181D01*
G01X68092Y10187D01*
G01X68081Y10193D01*
G01X68063Y10204D01*
G01X68042Y10219D01*
G01X68024Y10228D01*
G01X67999Y10238D01*
G01X67967Y10250D01*
G01X67956Y10256D01*
G01X67947Y10262D01*
G01X67931Y10272D01*
G01X67900Y10289D01*
G01X67825Y10326D01*
G01X67759Y10360D01*
G01X67745Y10367D01*
G01X67725Y10379D01*
G01X67715Y10386D01*
G01X67703Y10393D01*
G01X67669Y10407D01*
G01X67650Y10417D01*
G01X67640Y10423D01*
G01X67629Y10430D01*
G01X67610Y10438D01*
G01X67600Y10441D01*
G37*
G36*
G01X62763Y9883D02*
G01X62721Y9765D01*
G01X62684Y9659D01*
G01X62679Y9639D01*
G01X62678Y9634D01*
G01X62677Y9625D01*
G01X62672Y9607D01*
G01X62655Y9554D01*
G01X62653Y9543D01*
G01X62652Y9535D01*
G01X62650Y9516D01*
G01X62641Y9466D01*
G01X62640Y9453D01*
G01X62641Y9425D01*
G01X62644Y9379D01*
G01X62647Y9360D01*
G01X62651Y9351D01*
G01X62655Y9340D01*
G01X62659Y9312D01*
G01X62662Y9302D01*
G01X62665Y9294D01*
G01X62675Y9281D01*
G01X62681Y9266D01*
G01X62685Y9254D01*
G01X62690Y9240D01*
G01X62696Y9228D01*
G01X62711Y9204D01*
G01X62728Y9178D01*
G01X62748Y9151D01*
G01X62759Y9138D01*
G01X62774Y9127D01*
G01X62781Y9123D01*
G01X62788Y9122D01*
G01X62793Y9123D01*
G01X62798Y9128D01*
G01X62810Y9139D01*
G01X62837Y9158D01*
G01X62846Y9166D01*
G01X62854Y9174D01*
G01X62863Y9183D01*
G01X62870Y9192D01*
G01X62873Y9200D01*
G01Y9208D01*
G01X62870Y9215D01*
G01X62843Y9249D01*
G01X62828Y9268D01*
G01X62815Y9293D01*
G01X62792Y9331D01*
G01X62787Y9342D01*
G01X62783Y9352D01*
G01X62780Y9360D01*
G01X62771Y9397D01*
G01X62768Y9416D01*
G01X62767Y9434D01*
G01Y9473D01*
G01X62768Y9482D01*
G01X62773Y9501D01*
G01X62782Y9527D01*
G01X62796Y9566D01*
G01X62943Y9512D01*
G01X63044Y9790D01*
G01X62927Y9833D01*
G01X62818Y9870D01*
G01X62794Y9878D01*
G01X62787Y9879D01*
G37*
G36*
G01X70429Y9353D02*
G01X70404Y9352D01*
G01X70230Y8875D01*
G01X70447D01*
G01X70493Y9001D01*
G01X70530Y9093D01*
G01X70542Y9114D01*
G01X70550Y9118D01*
G01Y9117D01*
G01X70551D01*
G01X70562Y9111D01*
G01X70982Y8955D01*
G01X71415Y8801D01*
G01X71444Y8792D01*
G01X71485Y8782D01*
G01X71441Y8661D01*
G01X71413Y8586D01*
G01X71395Y8545D01*
G01X71392Y8539D01*
G01X71390Y8536D01*
G01X71389D01*
G01X71378Y8539D01*
G01X70916Y8704D01*
G01X70447Y8875D01*
G01X70230D01*
G01X70226Y8862D01*
G01X70119Y8561D01*
G01X70085Y8458D01*
G01X70295D01*
G01X70341Y8584D01*
G01X70378Y8676D01*
G01X70391Y8697D01*
G01X70398Y8701D01*
G01X70399D01*
G01X70400Y8700D01*
G01X70411Y8695D01*
G01X70831Y8538D01*
G01X71264Y8384D01*
G01X71292Y8375D01*
G01X71333Y8366D01*
G01X71289Y8244D01*
G01X71261Y8170D01*
G01X71244Y8129D01*
G01X71240Y8122D01*
G01X71238Y8120D01*
G01X71232Y8119D01*
G01X71226Y8124D01*
G01X71225D01*
G01Y8125D01*
G01X71213Y8131D01*
G01X70797Y8285D01*
G01X70365Y8439D01*
G01X70336Y8449D01*
G01X70295Y8458D01*
G01X70085D01*
G01X70064Y8395D01*
G01X70058Y8369D01*
G01X70057Y8362D01*
G01Y8358D01*
G01X70058D01*
G01X70059Y8357D01*
G01X70061Y8356D01*
G01X70086Y8344D01*
G01X70710Y8111D01*
G01X71232Y7922D01*
G01X71358Y7879D01*
G01X71362Y7878D01*
G01X71363Y7879D01*
G01X71364Y7881D01*
G01X71368Y7888D01*
G01X71379Y7912D01*
G01X71551Y8370D01*
G01X71644Y8630D01*
G01X71713Y8840D01*
G01X71720Y8866D01*
G01X71721Y8874D01*
G01Y8878D01*
G01X71720D01*
G01X71719Y8880D01*
G01X71716Y8882D01*
G01X71703Y8888D01*
G01X71667Y8905D01*
G01X71083Y9125D01*
G01X70460Y9345D01*
G01X70435Y9352D01*
G37*
G36*
G01X72264Y8845D02*
G01X72259Y8844D01*
G01X72258D01*
G01X72257Y8843D01*
G01X72256Y8842D01*
G01X72253Y8838D01*
G01X72245Y8821D01*
G01X72227Y8782D01*
G01X72099Y8446D01*
G01X71971Y8106D01*
G01X71950Y8056D01*
G01X71945Y8049D01*
G01X71940Y8050D01*
G01X71936Y8051D01*
G01X71932Y8055D01*
G01X71929Y8060D01*
G01X71928Y8063D01*
G01X71923Y8081D01*
G01X71913Y8123D01*
G01X71902Y8164D01*
G01X71895Y8196D01*
G01X71885Y8248D01*
G01X71879Y8274D01*
G01X71868Y8314D01*
G01X71861Y8345D01*
G01X71848Y8405D01*
G01X71846Y8425D01*
G01X71844Y8434D01*
G01X71840Y8441D01*
G01X71834Y8448D01*
G01X71826Y8452D01*
G01X71817Y8454D01*
G01X71810D01*
G01X71802Y8452D01*
G01X71795Y8448D01*
G01X71788Y8443D01*
G01X71780Y8440D01*
G01X71771Y8437D01*
G01X71751Y8434D01*
G01X71743Y8431D01*
G01X71735Y8428D01*
G01X71724Y8421D01*
G01X71716Y8417D01*
G01X71708Y8414D01*
G01X71699Y8412D01*
G01X71684Y8409D01*
G01X71678Y8406D01*
G01X71674Y8401D01*
G01X71673Y8394D01*
G01Y8391D01*
G01X71674Y8371D01*
G01X71677Y8353D01*
G01X71683Y8328D01*
G01X71694Y8288D01*
G01X71707Y8231D01*
G01X71724Y8169D01*
G01X71731Y8137D01*
G01X71746Y8069D01*
G01X71757Y8028D01*
G01X71770Y7972D01*
G01X71781Y7931D01*
G01X71788Y7900D01*
G01X71798Y7848D01*
G01X71803Y7822D01*
G01X71814Y7782D01*
G01X71822Y7751D01*
G01X71831Y7708D01*
G01Y7703D01*
G01Y7697D01*
G01X71830Y7687D01*
G01X71824Y7663D01*
G01X71801Y7597D01*
G01X71798Y7582D01*
G01X71796Y7573D01*
G01Y7566D01*
G01X71790Y7544D01*
G01X71763Y7464D01*
G01X71759Y7449D01*
G01X71758Y7440D01*
G01X71756Y7424D01*
G01X71748Y7399D01*
G01X71745Y7383D01*
G01X71743Y7367D01*
G01X71738Y7348D01*
G01X71730Y7322D01*
G01X71719Y7289D01*
G01X71716Y7277D01*
G01X71714Y7261D01*
G01X71712Y7253D01*
G01X71709Y7246D01*
G01X71699Y7230D01*
G01X71693Y7225D01*
G01X71687Y7220D01*
G01X71678Y7215D01*
G01X71663Y7205D01*
G01X71628Y7178D01*
G01X71608Y7164D01*
G01X71568Y7137D01*
G01X71525Y7109D01*
G01X71498Y7092D01*
G01X71451Y7059D01*
G01X71425Y7039D01*
G01X71403Y7023D01*
G01X71379Y7007D01*
G01X71367Y7000D01*
G01X71340Y6982D01*
G01X71275Y6937D01*
G01X71256Y6925D01*
G01X71244Y6918D01*
G01X71239Y6913D01*
G01X71235Y6907D01*
G01X71231Y6899D01*
G01X71229Y6890D01*
G01Y6882D01*
G01X71231Y6875D01*
G01X71235Y6868D01*
G01X71243Y6854D01*
G01X71251Y6831D01*
G01X71258Y6815D01*
G01X71265Y6805D01*
G01X71269Y6797D01*
G01X71275Y6781D01*
G01X71280Y6762D01*
G01X71282Y6757D01*
G01X71285Y6753D01*
G01X71289Y6749D01*
G01X71293Y6746D01*
G01X71299Y6744D01*
G01X71305Y6742D01*
G01X71312D01*
G01X71326D01*
G01X71339Y6745D01*
G01X71351Y6750D01*
G01X71362Y6758D01*
G01X71410Y6796D01*
G01X71432Y6816D01*
G01X71445Y6826D01*
G01X71474Y6845D01*
G01X71499Y6865D01*
G01X71568Y6918D01*
G01X71587Y6933D01*
G01X71604Y6943D01*
G01X71610Y6947D01*
G01X71621Y6957D01*
G01X71637Y6973D01*
G01X71644Y6977D01*
G01X71651D01*
G01X71657Y6975D01*
G01X71662Y6969D01*
G01X71665Y6963D01*
G01X71667Y6956D01*
G01X71666Y6937D01*
G01X71664Y6899D01*
G01X71661Y6782D01*
G01Y6749D01*
G01X71664Y6709D01*
G01Y6649D01*
G01X71667Y6610D01*
G01Y6557D01*
G01X71669Y6547D01*
G01X71671Y6533D01*
G01X71674Y6514D01*
G01X71676Y6484D01*
G01X71677Y6465D01*
G01X71684Y6422D01*
G01X71685Y6397D01*
G01X71686Y6390D01*
G01X71688Y6384D01*
G01X71693Y6371D01*
G01X71695Y6363D01*
G01X71698Y6329D01*
G01X71699Y6317D01*
G01X71701Y6305D01*
G01X71707Y6283D01*
G01X71711Y6267D01*
G01X71715Y6241D01*
G01X71718Y6225D01*
G01X71727Y6192D01*
G01X71737Y6148D01*
G01X71741Y6138D01*
G01X71745Y6131D01*
G01X71751Y6125D01*
G01X71757Y6121D01*
G01X71764Y6120D01*
G01X71772Y6121D01*
G01X71780Y6124D01*
G01X71810Y6138D01*
G01X71821Y6142D01*
G01X71849Y6153D01*
G01X71863Y6157D01*
G01X71894Y6166D01*
G01X71909Y6172D01*
G01X71923Y6180D01*
G01X71926Y6182D01*
G01X71929Y6185D01*
G01X71931Y6189D01*
G01X71933Y6193D01*
G01X71934Y6197D01*
G01Y6201D01*
G01X71935Y6205D01*
G01X71933Y6220D01*
G01X71930Y6237D01*
G01X71921Y6270D01*
G01X71913Y6301D01*
G01X71901Y6361D01*
G01X71897Y6392D01*
G01X71891Y6428D01*
G01X71880Y6474D01*
G01X71878Y6494D01*
G01X71875Y6534D01*
G01X71871Y6557D01*
G01X71868Y6576D01*
G01X71867Y6612D01*
G01X71863Y6649D01*
G01X71861Y6684D01*
G01X71860Y6702D01*
G01X71857Y6750D01*
G01X71858Y6779D01*
G01Y6799D01*
G01X71856Y6829D01*
G01X71858Y6858D01*
G01X71860Y6896D01*
G01X71862Y6957D01*
G01X71868Y6999D01*
G01X71870Y7032D01*
G01X71873Y7054D01*
G01X71880Y7100D01*
G01X71883Y7121D01*
G01X71886Y7153D01*
G01X71893Y7179D01*
G01X71897Y7194D01*
G01Y7205D01*
G01X71900Y7219D01*
G01X71911Y7255D01*
G01X71916Y7275D01*
G01X71917Y7287D01*
G01X71919Y7299D01*
G01X71929Y7330D01*
G01X71933Y7348D01*
G01X71934Y7360D01*
G01X71940Y7383D01*
G01X71967Y7462D01*
G01X71996Y7545D01*
G01X72000Y7562D01*
G01X72001Y7568D01*
G01X72003Y7578D01*
G01X72210Y8154D01*
G01X72420Y8743D01*
G01X72425Y8759D01*
G01X72432Y8791D01*
G01X72353Y8820D01*
G01X72304Y8837D01*
G01X72280Y8843D01*
G37*
G36*
G01X73313Y8431D02*
G01X72904Y7307D01*
G01X72496Y6175D01*
G01X72494Y6169D01*
G01X72493Y6153D01*
G01X72486Y6132D01*
G01X72484Y6123D01*
G01X72482Y6107D01*
G01Y6094D01*
G01X72483Y6045D01*
G01X72484Y6033D01*
G01X72488Y6015D01*
G01X72490Y6008D01*
G01X72495Y5995D01*
G01X72502Y5972D01*
G01X72508Y5957D01*
G01X72542Y5909D01*
G01X72550Y5900D01*
G01X72559Y5893D01*
G01X72578Y5880D01*
G01X72595Y5866D01*
G01X72610Y5852D01*
G01X72618Y5846D01*
G01X72626Y5841D01*
G01X72642Y5834D01*
G01X72657Y5827D01*
G01X72670Y5818D01*
G01X72685Y5810D01*
G01X72730Y5792D01*
G01X72740Y5787D01*
G01X72747Y5782D01*
G01X72749Y5781D01*
G01X72769Y5771D01*
G01X72910Y5718D01*
G01X73006Y5685D01*
G01X73049Y5673D01*
G01X73065Y5670D01*
G01X73076Y5668D01*
G01X73084Y5669D01*
G01X73094Y5673D01*
G01X73102Y5678D01*
G01X73108Y5685D01*
G01X73114Y5697D01*
G01X73118Y5706D01*
G01X73124Y5713D01*
G01X73130Y5721D01*
G01X73141Y5732D01*
G01X73147Y5742D01*
G01X73153Y5753D01*
G01X73166Y5783D01*
G01X73172Y5793D01*
G01X73179Y5801D01*
G01X73189Y5813D01*
G01X73193Y5820D01*
G01X73195Y5828D01*
G01X73194Y5835D01*
G01Y5836D01*
G01X73193D01*
G01Y5837D01*
G01X73192Y5838D01*
G01X73189Y5841D01*
G01X73183Y5845D01*
G01X73164Y5855D01*
G01X73129Y5871D01*
G01X72995Y5923D01*
G01X72845Y5978D01*
G01X72793Y5999D01*
G01X72788Y6003D01*
G01X72774Y6013D01*
G01X72751Y6027D01*
G01X72742Y6035D01*
G01X72734Y6042D01*
G01X72727Y6051D01*
G01X72718Y6066D01*
G01X72712Y6076D01*
G01X72704Y6097D01*
G01X72700Y6113D01*
G01X72699Y6129D01*
G01X72700Y6147D01*
G01X72702Y6172D01*
G01X72703Y6178D01*
G01X73099Y7276D01*
G01X73495Y8365D01*
G37*
G36*
G01X72518Y8236D02*
G01X72512Y8235D01*
G01X72508Y8233D01*
G01X72479Y8204D01*
G01X72472Y8195D01*
G01X72467Y8186D01*
G01X72459Y8166D01*
G01X72454Y8157D01*
G01X72448Y8149D01*
G01X72438Y8141D01*
G01X72432Y8134D01*
G01X72427Y8125D01*
G01X72414Y8096D01*
G01X72408Y8086D01*
G01X72402Y8078D01*
G01X72389Y8067D01*
G01X72384Y8060D01*
G01X72380Y8053D01*
G01X72373Y8037D01*
G01X72365Y8022D01*
G01X72351Y8003D01*
G01X72339Y7985D01*
G01X72315Y7944D01*
G01X72304Y7926D01*
G01X72283Y7897D01*
G01X72262Y7859D01*
G01X72249Y7839D01*
G01X72234Y7817D01*
G01X72213Y7778D01*
G01X72201Y7759D01*
G01X72185Y7737D01*
G01X72173Y7716D01*
G01X72147Y7671D01*
G01X72135Y7654D01*
G01X72121Y7633D01*
G01X72112Y7614D01*
G01X72099Y7584D01*
G01X72093Y7574D01*
G01X72086Y7566D01*
G01X72076Y7555D01*
G01X72069Y7547D01*
G01X72065Y7539D01*
G01X72061Y7531D01*
G01X72059Y7522D01*
G01Y7515D01*
G01X72061Y7509D01*
G01X72066Y7504D01*
G01X72078Y7494D01*
G01X72099Y7473D01*
G01X72107Y7467D01*
G01X72115Y7463D01*
G01X72131Y7455D01*
G01X72139Y7450D01*
G01X72145Y7445D01*
G01X72156Y7433D01*
G01X72162Y7427D01*
G01X72170Y7423D01*
G01X72178Y7419D01*
G01X72186Y7417D01*
G01X72193D01*
G01X72199Y7420D01*
G01X72204Y7424D01*
G01X72222Y7447D01*
G01X72233Y7463D01*
G01X72254Y7501D01*
G01X72267Y7521D01*
G01X72274Y7531D01*
G01X72280Y7542D01*
G01X72290Y7566D01*
G01X72295Y7576D01*
G01X72301Y7585D01*
G01X72308Y7593D01*
G01X72318Y7605D01*
G01X72325Y7614D01*
G01X72331Y7625D01*
G01X72344Y7655D01*
G01X72350Y7665D01*
G01X72356Y7673D01*
G01X72367Y7685D01*
G01X72373Y7692D01*
G01X72378Y7700D01*
G01X72385Y7717D01*
G01X72393Y7731D01*
G01X72407Y7753D01*
G01X72429Y7791D01*
G01X72441Y7811D01*
G01X72456Y7833D01*
G01X72469Y7854D01*
G01X72495Y7898D01*
G01X72506Y7916D01*
G01X72527Y7946D01*
G01X72548Y7984D01*
G01X72560Y8004D01*
G01X72576Y8026D01*
G01X72597Y8064D01*
G01X72609Y8084D01*
G01X72624Y8105D01*
G01X72635Y8122D01*
G01X72638Y8127D01*
G01X72640Y8133D01*
G01X72641Y8138D01*
G01Y8142D01*
G01Y8147D01*
G01X72639Y8152D01*
G01X72638Y8157D01*
G01X72635Y8162D01*
G01X72628Y8171D01*
G01X72620Y8178D01*
G01X72611Y8184D01*
G01X72595Y8192D01*
G01X72586Y8196D01*
G01X72576Y8202D01*
G01X72568Y8208D01*
G01X72558Y8219D01*
G01X72550Y8225D01*
G01X72541Y8230D01*
G01X72533Y8234D01*
G01X72525Y8236D01*
G37*
G36*
G01X69906Y8104D02*
G01X69901Y8101D01*
G01X69897Y8098D01*
G01X69893Y8093D01*
G01X69886Y8083D01*
G01X69878Y8069D01*
G01X69863Y8024D01*
G01X69853Y7985D01*
G01X69843Y7945D01*
G01X70138Y7837D01*
G01X70396Y7740D01*
G01X70436Y7721D01*
G01X70443Y7717D01*
G01X70444Y7714D01*
G01Y7713D01*
G01X70445Y7709D01*
G01X70444Y7700D01*
G01X70440Y7678D01*
G01X70431Y7648D01*
G01X70405Y7573D01*
G01X70367Y7470D01*
G01X70349Y7429D01*
G01X70346Y7422D01*
G01X70334Y7403D01*
G01X69999Y7524D01*
G01X69687Y7635D01*
G01X69646Y7648D01*
G01X69619Y7653D01*
G01X69592Y7579D01*
G01X69576Y7532D01*
G01X69571Y7509D01*
G01X69569Y7494D01*
G01Y7489D01*
G01Y7488D01*
G01X69572Y7485D01*
G01X69577Y7482D01*
G01X69594Y7473D01*
G01X69633Y7456D01*
G01X69903Y7353D01*
G01X70210Y7238D01*
G01X70249Y7222D01*
G01X70273Y7208D01*
G01X70086Y6696D01*
G01X70178Y6663D01*
G01X70218Y6649D01*
G01X70267Y6633D01*
G01X70275Y6632D01*
G01Y6633D01*
G01X70276Y6634D01*
G01X70283Y6650D01*
G01X70374Y6892D01*
G01X70467Y7148D01*
G01X70810Y7023D01*
G01X71129Y6911D01*
G01X71163Y6902D01*
G01X71169Y6901D01*
G01X71173Y6900D01*
G01X71176Y6901D01*
G01X71178Y6902D01*
G01X71181Y6903D01*
G01X71184Y6905D01*
G01X71189Y6911D01*
G01X71197Y6923D01*
G01X71203Y6933D01*
G01X71208Y6945D01*
G01X71218Y6968D01*
G01X71231Y7010D01*
G01X71237Y7032D01*
G01X71239Y7047D01*
G01Y7053D01*
G01X71238Y7054D01*
G01Y7055D01*
G01X71237Y7056D01*
G01X71236Y7058D01*
G01X71231Y7061D01*
G01X71219Y7069D01*
G01X71201Y7077D01*
G01X71151Y7099D01*
G01X70885Y7202D01*
G01X70533Y7330D01*
G01X70650Y7651D01*
G01X70937Y7546D01*
G01X71218Y7447D01*
G01X71242Y7440D01*
G01X71269Y7435D01*
G01X71292Y7496D01*
G01X71305Y7536D01*
G01X71315Y7566D01*
G01X71317Y7580D01*
G01X71321Y7603D01*
G01X70622Y7858D01*
G01X69983Y8083D01*
G01X69921Y8102D01*
G01X69910Y8104D01*
G37*
G36*
G01X73754Y7995D02*
G01X73465Y7201D01*
G01X73177Y6402D01*
G01X73172Y6384D01*
G01X73169Y6361D01*
G01X73256Y6329D01*
G01X73294Y6315D01*
G01X73340Y6301D01*
G01X73348Y6300D01*
G01X73349Y6301D01*
G01X73352Y6308D01*
G01X73646Y7106D01*
G01X73926Y7891D01*
G01X73934Y7920D01*
G01Y7925D01*
G01Y7927D01*
G01X73933Y7929D01*
G01X73931Y7931D01*
G01X73929Y7933D01*
G01X73924Y7938D01*
G01X73909Y7947D01*
G01X73894Y7954D01*
G01X73874Y7961D01*
G01X73861Y7966D01*
G01X73813Y7982D01*
G01X73786Y7989D01*
G37*
G36*
G01X74356Y7924D02*
G01X74207Y7511D01*
G01X74086Y7177D01*
G01X74301D01*
G01X74385Y7407D01*
G01X74470Y7634D01*
G01X74479Y7654D01*
G01X74493Y7677D01*
G01X74836Y7552D01*
G01X75152Y7433D01*
G01X75185Y7418D01*
G01X75190Y7415D01*
G01X75193Y7413D01*
G01X75194Y7412D01*
G01Y7411D01*
G01X75195Y7409D01*
G01Y7406D01*
G01Y7399D01*
G01X75193Y7384D01*
G01X75188Y7363D01*
G01X75176Y7321D01*
G01X75121Y7159D01*
G01X75043Y6953D01*
G01X75030Y6922D01*
G01X75028Y6917D01*
G01X75027D01*
G01X75026Y6918D01*
G01X75013Y6922D01*
G01X74661Y7046D01*
G01X74301Y7177D01*
G01X74086D01*
G01X74076Y7148D01*
G01X74054Y7080D01*
G01X74050Y7053D01*
G01X74357Y6940D01*
G01X74587Y6853D01*
G01X74641Y6829D01*
G01X74654Y6821D01*
G01X74657Y6817D01*
G01X74652Y6810D01*
G01X74644Y6793D01*
G01X74635Y6771D01*
G01X74625Y6741D01*
G01X74623Y6730D01*
G01X74622Y6721D01*
G01X74621Y6715D01*
G01X74616Y6694D01*
G01X74600Y6648D01*
G01X74591Y6619D01*
G01X74587Y6601D01*
G01X74586Y6588D01*
G01X74582Y6572D01*
G01X74575Y6552D01*
G01X74564Y6524D01*
G01X74558Y6512D01*
G01X74552Y6501D01*
G01X74539Y6481D01*
G01X74222Y6596D01*
G01X73926Y6702D01*
G01X73887Y6714D01*
G01X73859Y6719D01*
G01X73834Y6649D01*
G01X73815Y6593D01*
G01X73809Y6570D01*
G01X73808Y6564D01*
G01Y6560D01*
G01X73802Y6539D01*
G01X73772Y6451D01*
G01X73740Y6359D01*
G01X73736Y6341D01*
G01X73735Y6336D01*
G01X73734Y6333D01*
G01X73729Y6312D01*
G01X73684Y6183D01*
G01X73640Y6058D01*
G01X73634Y6035D01*
G01X73633Y6029D01*
G01X73632Y6021D01*
G01X73628Y6005D01*
G01X73613Y5958D01*
G01X73611Y5948D01*
G01X73610Y5940D01*
G01X73609Y5931D01*
G01X73605Y5915D01*
G01X73590Y5868D01*
G01X73588Y5858D01*
G01X73587Y5842D01*
G01X73584Y5807D01*
G01X73582Y5775D01*
G01X73579Y5739D01*
G01X73580Y5728D01*
G01X73581Y5717D01*
G01X73589Y5677D01*
G01X73598Y5649D01*
G01X73602Y5636D01*
G01X73611Y5605D01*
G01X73614Y5597D01*
G01X73619Y5589D01*
G01X73625Y5580D01*
G01X73647Y5560D01*
G01X73683Y5525D01*
G01X73703Y5508D01*
G01X73741Y5478D01*
G01X73753Y5471D01*
G01X73788Y5457D01*
G01X73806Y5448D01*
G01X73815Y5441D01*
G01X73834Y5433D01*
G01X73981Y5377D01*
G01X74049Y5353D01*
G01X74100Y5339D01*
G01X74119Y5335D01*
G01X74133Y5333D01*
G01X74142D01*
G01X74147Y5336D01*
G01X74152Y5344D01*
G01X74177Y5378D01*
G01X74196Y5411D01*
G01X74208Y5428D01*
G01X74215Y5438D01*
G01X74219Y5445D01*
G01X74222Y5454D01*
G01X74225Y5470D01*
G01X74229Y5493D01*
G01X74090Y5544D01*
G01X73981Y5584D01*
G01X73938Y5603D01*
G01X73931Y5606D01*
G01X73913Y5618D01*
G01X73893Y5632D01*
G01X73879Y5640D01*
G01X73862Y5647D01*
G01X73854Y5652D01*
G01X73846Y5658D01*
G01X73826Y5678D01*
G01X73808Y5694D01*
G01X73804Y5699D01*
G01X73801Y5706D01*
G01X73796Y5722D01*
G01X73788Y5745D01*
G01X73785Y5753D01*
G01X73783Y5767D01*
G01X73782Y5791D01*
G01X73783Y5809D01*
G01X73788Y5848D01*
G01X73789Y5865D01*
G01X73790Y5869D01*
G01X73795Y5890D01*
G01X73826Y5979D01*
G01X73857Y6071D01*
G01X73862Y6088D01*
G01X73863Y6093D01*
G01Y6097D01*
G01X73869Y6118D01*
G01X73918Y6260D01*
G01X73966Y6396D01*
G01X73973Y6421D01*
G01X73975Y6434D01*
G01X73977Y6441D01*
G01X73980Y6449D01*
G01X73985Y6457D01*
G01X73986Y6458D01*
G01X73987D01*
G01X73989Y6459D01*
G01X73993D01*
G01X73999D01*
G01X74014Y6456D01*
G01X74032Y6452D01*
G01X74075Y6440D01*
G01X74239Y6384D01*
G01X74421Y6314D01*
G01X74466Y6293D01*
G01X74477Y6286D01*
G01X74481Y6281D01*
G01X74480Y6252D01*
G01X74479Y6243D01*
G01X74475Y6224D01*
G01X74463Y6188D01*
G01X74451Y6152D01*
G01X74445Y6127D01*
G01X74442Y6112D01*
G01X74438Y6089D01*
G01Y6077D01*
G01X74436Y6064D01*
G01X74426Y6034D01*
G01X74422Y6016D01*
G01X74419Y5990D01*
G01X74413Y5953D01*
G01X74411Y5931D01*
G01X74409Y5907D01*
G01X74403Y5864D01*
G01X74401Y5831D01*
G01X74397Y5798D01*
G01X74396Y5776D01*
G01X74398Y5746D01*
G01X74397Y5717D01*
G01Y5706D01*
G01X74399Y5694D01*
G01X74403Y5668D01*
G01X74405Y5649D01*
G01X74407Y5618D01*
G01X74410Y5600D01*
G01X74413Y5593D01*
G01X74415Y5586D01*
G01X74417Y5578D01*
G01X74420Y5544D01*
G01X74421Y5533D01*
G01X74424Y5521D01*
G01X74432Y5492D01*
G01X74444Y5438D01*
G01X74446Y5430D01*
G01X74454Y5410D01*
G01X74461Y5387D01*
G01X74469Y5363D01*
G01X74473Y5353D01*
G01X74477Y5325D01*
G01X74480Y5316D01*
G01X74483Y5308D01*
G01X74488Y5300D01*
G01X74497Y5286D01*
G01X74502Y5271D01*
G01X74509Y5249D01*
G01X74516Y5230D01*
G01X74523Y5207D01*
G01X74530Y5192D01*
G01X74539Y5179D01*
G01X74542Y5171D01*
G01X74543Y5164D01*
G01X74544Y5150D01*
G01X74546Y5143D01*
G01X74549Y5136D01*
G01X74558Y5122D01*
G01X74565Y5107D01*
G01X74573Y5084D01*
G01X74581Y5070D01*
G01X74584Y5067D01*
G01X74587Y5065D01*
G01X74590Y5063D01*
G01X74594Y5062D01*
G01X74598Y5061D01*
G01X74603D01*
G01X74613Y5063D01*
G01X74624Y5067D01*
G01X74641Y5075D01*
G01X74656Y5085D01*
G01X74664Y5088D01*
G01X74673Y5091D01*
G01X74692Y5094D01*
G01X74701Y5096D01*
G01X74710Y5100D01*
G01X74720Y5107D01*
G01X74733Y5114D01*
G01X74745Y5119D01*
G01X74770Y5129D01*
G01X74778Y5134D01*
G01X74781Y5139D01*
G01Y5145D01*
G01X74775Y5158D01*
G01X74768Y5181D01*
G01X74762Y5196D01*
G01X74749Y5217D01*
G01X74741Y5240D01*
G01X74734Y5255D01*
G01X74721Y5276D01*
G01X74714Y5299D01*
G01X74706Y5314D01*
G01X74698Y5328D01*
G01X74695Y5335D01*
G01X74693Y5342D01*
G01X74692Y5356D01*
G01X74690Y5363D01*
G01X74687Y5370D01*
G01X74681Y5381D01*
G01X74673Y5394D01*
G01X74668Y5405D01*
G01X74659Y5432D01*
G01X74648Y5472D01*
G01X74637Y5507D01*
G01X74627Y5541D01*
G01X74622Y5561D01*
G01X74619Y5580D01*
G01X74614Y5619D01*
G01X74607Y5655D01*
G01X74604Y5674D01*
G01X74600Y5702D01*
G01X74598Y5721D01*
G01Y5737D01*
G01X74597Y5783D01*
G01X74598Y5831D01*
G01X74600Y5892D01*
G01X74604Y5917D01*
G01X74613Y5967D01*
G01X74616Y5989D01*
G01X74618Y6014D01*
G01X74623Y6034D01*
G01X74635Y6074D01*
G01X74643Y6104D01*
G01X74653Y6160D01*
G01X74656Y6171D01*
G01X74659Y6182D01*
G01X74663Y6193D01*
G01X74669Y6203D01*
G01X74681Y6223D01*
G01X74859Y6158D01*
G01X74999Y6109D01*
G01X75052Y6092D01*
G01X75061Y6090D01*
G01X75084Y6086D01*
G01X75107Y6151D01*
G01X75123Y6195D01*
G01X75132Y6226D01*
G01X75135Y6240D01*
G01X75138Y6263D01*
G01X74956Y6329D01*
G01X74814Y6382D01*
G01X74761Y6404D01*
G01X74754Y6408D01*
G01X74733Y6420D01*
G01X74749Y6464D01*
G01X74761Y6500D01*
G01X74764Y6513D01*
G01X74765Y6523D01*
G01X74766Y6527D01*
G01X74773Y6550D01*
G01X74807Y6649D01*
G01X74848Y6762D01*
G01X74974Y6716D01*
G01X75074Y6681D01*
G01X75115Y6668D01*
G01X75123Y6666D01*
G01X75146Y6663D01*
G01X75459Y7522D01*
G37*
G04 //text: +*
G54D10*
G01X82893Y24232D02*
G01X82334Y24232D01*
G01X82614Y23952D02*
G01X82614Y24508D01*
G04 //text: -*
G54D11*
G01X82614Y20015D02*
G01X82614Y20571D01*
G04 //text: 电池*
G36*
G01X82250Y23601D02*
G01X82240Y23601D01*
G01X82231Y23599D01*
G01X82230Y23598D01*
G01X82219D01*
G01X82152Y23597D01*
G01X82087Y23596D01*
G01X82076Y23595D01*
G01X82072Y23594D01*
G01X82063Y23592D01*
G01X82039Y23588D01*
G01X82027Y23586D01*
G01X82019Y23584D01*
G01X81997Y23578D01*
G01X81986Y23574D01*
G01X81981Y23572D01*
G01X81973Y23567D01*
G01X81968Y23563D01*
G01X81959Y23555D01*
G01X81953Y23550D01*
G01X81948Y23544D01*
G01X81933Y23523D01*
G01X81930Y23518D01*
G01X81927Y23513D01*
G01X81923Y23502D01*
G01X81920Y23493D01*
G01X81916Y23475D01*
G01X81913Y23464D01*
G01X81912Y23453D01*
G01X81911Y23398D01*
G01X81910Y23390D01*
G01X81909Y23385D01*
G01Y23384D01*
G01X81908Y23378D01*
G01X81907Y23171D01*
G01X81908Y22966D01*
G01X81909Y22963D01*
G01Y22962D01*
G01X81910Y22960D01*
G01X81911Y22951D01*
G01X81912Y22907D01*
G01X81913Y22896D01*
G01X81916Y22886D01*
G01X81921Y22864D01*
G01X81925Y22851D01*
G01X81931Y22836D01*
G01X81934Y22829D01*
G01X81938Y22820D01*
G01X81943Y22812D01*
G01X81952Y22799D01*
G01X81957Y22792D01*
G01X81964Y22787D01*
G01X81986Y22772D01*
G01X81991Y22769D01*
G01X82006Y22764D01*
G01X82015Y22759D01*
G01X82019Y22757D01*
G01X82024Y22756D01*
G01X82029D01*
G01X82037Y22755D01*
G01X82043Y22754D01*
G01X82048Y22753D01*
G01X82052Y22751D01*
G01X82053D01*
G01X82055Y22750D01*
G01X82070Y22749D01*
G01X82341Y22746D01*
G01X82621D01*
G01X82617Y22732D01*
G01X82611Y22715D01*
G01X82593Y22660D01*
G01X82592Y22654D01*
G01X82591Y22649D01*
G01X82593Y22645D01*
G01X82595Y22642D01*
G01X82601Y22639D01*
G01X82609Y22636D01*
G01X82622Y22634D01*
G01X82628Y22632D01*
G01X82632Y22630D01*
G01X82638Y22627D01*
G01X82642Y22625D01*
G01X82652Y22623D01*
G01X82659Y22621D01*
G01X82666D01*
G01X82672Y22620D01*
G01X82676Y22621D01*
G01X82680D01*
G01X82682Y22623D01*
G01X82684Y22625D01*
G01X82685Y22629D01*
G01X82689Y22642D01*
G01X82695Y22656D01*
G01X82699Y22666D01*
G01X82703Y22682D01*
G01X82709Y22696D01*
G01X82712Y22707D01*
G01X82715Y22718D01*
G01X82717Y22726D01*
G01X82720Y22735D01*
G01X82725Y22746D01*
G01X82891D01*
G01X83066Y22748D01*
G01X83073Y22749D01*
G01X83088Y22751D01*
G01Y22797D01*
G01Y22825D01*
G01X83087Y22838D01*
G01X83085Y22846D01*
G01X83084Y22849D01*
G01X83083D01*
G01X83082Y22850D01*
G01X83079D01*
G01X83069Y22852D01*
G01X83048Y22853D01*
G01X82920Y22855D01*
G01X82761D01*
G01X82765Y22869D01*
G01X82775Y22903D01*
G01X82784Y22933D01*
G01X82801Y22984D01*
G01X82807Y23006D01*
G01X82818Y23035D01*
G01X82829Y23069D01*
G01X83013D01*
G01X83185Y23070D01*
G01X83207Y23071D01*
G01X83221Y23074D01*
G01Y23117D01*
G01X83220Y23144D01*
G01X83219Y23157D01*
G01X83217Y23165D01*
G01X83216Y23167D01*
G01X83215D01*
G01X83213Y23168D01*
G01X83211Y23169D01*
G01X83201Y23170D01*
G01X83180Y23172D01*
G01X83052Y23174D01*
G01X82896Y23172D01*
G01X82884D01*
G01X82877Y23171D01*
G01X82873D01*
G01X82870Y23173D01*
G01X82868Y23176D01*
G01X82867Y23180D01*
G01Y23186D01*
G01X82868Y23190D01*
G01X82871Y23198D01*
G01X82873Y23208D01*
G01X82876Y23219D01*
G01X82882Y23233D01*
G01X82885Y23243D01*
G01X82887Y23254D01*
G01X82890Y23263D01*
G01X82900Y23290D01*
G01X82901Y23293D01*
G01X82907Y23315D01*
G01X82918Y23344D01*
G01X82923Y23360D01*
G01X82927Y23376D01*
G01X82952Y23452D01*
G01X82956Y23468D01*
G01X82957Y23473D01*
G01X82959Y23477D01*
G01X82964Y23484D01*
G01X82965Y23488D01*
G01X82966Y23492D01*
G01Y23497D01*
G01Y23498D01*
G01X82965Y23499D01*
G01X82961Y23501D01*
G01X82956Y23502D01*
G01X82945Y23504D01*
G01X82928Y23505D01*
G01X82886Y23506D01*
G01X82815Y23505D01*
G01X82803Y23504D01*
G01X82798Y23503D01*
G01X82793Y23502D01*
G01X82783Y23503D01*
G01X82762Y23504D01*
G01X82755D01*
G01X82748D01*
G01X82735Y23501D01*
G01X82727Y23499D01*
G01X82726D01*
G01X82717Y23498D01*
G01X82614Y23497D01*
G01X82532Y23496D01*
G01X82503Y23494D01*
G01X82500D01*
G01X82496Y23493D01*
G01X82488Y23492D01*
G01X82464Y23491D01*
G01X82459Y23490D01*
G01X82452Y23489D01*
G01X82446Y23488D01*
G01X82428Y23487D01*
G01X82417Y23486D01*
G01X82406Y23483D01*
G01X82389Y23479D01*
G01X82381Y23477D01*
G01X82373Y23474D01*
G01X82367Y23471D01*
G01X82362Y23469D01*
G01X82357Y23466D01*
G01X82352Y23462D01*
G01X82341Y23455D01*
G01X82336Y23452D01*
G01X82332Y23447D01*
G01X82318Y23428D01*
G01X82312Y23418D01*
G01X82309Y23412D01*
G01X82307Y23406D01*
G01X82305Y23398D01*
G01X82302Y23388D01*
G01X82299Y23369D01*
G01X82297Y23357D01*
G01X82295Y23353D01*
G01Y23351D01*
G01X82294Y23340D01*
G01X82293Y23294D01*
G01Y23271D01*
G01X82295Y23253D01*
G01X82296Y23247D01*
G01X82297Y23242D01*
G01X82299Y23237D01*
G01X82300Y23235D01*
G01X82304Y23232D01*
G01X82308Y23229D01*
G01X82314Y23227D01*
G01X82345Y23222D01*
G01X82355Y23219D01*
G01X82367Y23216D01*
G01X82376Y23215D01*
G01X82393D01*
G01Y23265D01*
G01X82394Y23288D01*
G01X82395Y23310D01*
G01X82396Y23320D01*
G01X82398Y23330D01*
G01X82402Y23345D01*
G01X82407Y23358D01*
G01X82409Y23363D01*
G01X82412Y23367D01*
G01X82415Y23371D01*
G01X82418Y23374D01*
G01X82426Y23378D01*
G01X82436Y23384D01*
G01X82442Y23386D01*
G01X82451Y23387D01*
G01X82473Y23388D01*
G01X82478Y23389D01*
G01X82482Y23390D01*
G01X82485D01*
G01X82495Y23391D01*
G01X82520Y23392D01*
G01X82534D01*
G01X82543Y23393D01*
G01X82547Y23394D01*
G01X82557Y23395D01*
G01X82636Y23396D01*
G01X82711Y23397D01*
G01X82724Y23398D01*
G01X82727D01*
G01X82730Y23399D01*
G01X82741Y23401D01*
G01X82765D01*
G01X82780Y23402D01*
G01X82789Y23403D01*
G01X82795Y23404D01*
G01X82804Y23405D01*
G01X82816Y23406D01*
G01X82824Y23405D01*
G01X82829Y23404D01*
G01X82831Y23402D01*
G01X82832Y23398D01*
G01X82829Y23391D01*
G01X82826Y23375D01*
G01X82824Y23371D01*
G01X82822Y23366D01*
G01X82819Y23360D01*
G01X82817Y23356D01*
G01X82815Y23348D01*
G01X82812Y23335D01*
G01X82811Y23329D01*
G01X82809Y23324D01*
G01X82805Y23315D01*
G01X82801Y23305D01*
G01X82797Y23288D01*
G01X82791Y23274D01*
G01X82788Y23263D01*
G01X82785Y23252D01*
G01X82783Y23244D01*
G01X82773Y23217D01*
G01X82771Y23214D01*
G01X82765Y23191D01*
G01X82761Y23181D01*
G01X82759Y23175D01*
G01X82757Y23172D01*
G01X82754Y23171D01*
G01X82752D01*
G01X82747Y23172D01*
G01X82464Y23174D01*
G01X82172Y23172D01*
G01X82163Y23171D01*
G01X82148Y23169D01*
G01Y23121D01*
G01X82149Y23093D01*
G01Y23084D01*
G01X82152Y23069D01*
G01X82434D01*
G01X82583Y23068D01*
G01X82699Y23065D01*
G01X82713Y23064D01*
G01X82717Y23063D01*
G01X82718Y23062D01*
G01X82719Y23061D01*
G01Y23056D01*
G01X82718Y23051D01*
G01X82716Y23040D01*
G01X82707Y23010D01*
G01X82664Y22880D01*
G01X82663Y22877D01*
G01X82661Y22869D01*
G01Y22864D01*
G01X82660D01*
G01X82659Y22863D01*
G01X82656D01*
G01X82644Y22861D01*
G01X82618Y22859D01*
G01X82377Y22855D01*
G01X82085Y22857D01*
G01X82077Y22858D01*
G01X82070Y22859D01*
G01X82063Y22861D01*
G01X82058Y22863D01*
G01X82051Y22867D01*
G01X82044Y22870D01*
G01X82039Y22872D01*
G01X82037Y22873D01*
G01X82034Y22876D01*
G01X82031Y22880D01*
G01X82022Y22894D01*
G01X82016Y22906D01*
G01X82014Y22910D01*
G01X82013Y22915D01*
G01X82012Y22920D01*
G01X82011Y22932D01*
G01X82010Y22940D01*
G01X82009Y22944D01*
G01Y22945D01*
G01X82008Y22951D01*
G01X82007Y23165D01*
G01X82008Y23369D01*
G01Y23383D01*
G01X82009Y23385D01*
G01Y23387D01*
G01X82011Y23393D01*
G01X82012Y23412D01*
G01X82013Y23422D01*
G01X82014Y23426D01*
G01X82016Y23435D01*
G01X82018Y23446D01*
G01X82020Y23453D01*
G01X82022Y23458D01*
G01X82024Y23462D01*
G01X82030Y23467D01*
G01X82036Y23473D01*
G01X82040Y23478D01*
G01X82043Y23481D01*
G01X82048Y23484D01*
G01X82054Y23486D01*
G01X82077Y23494D01*
G01X82079D01*
G01X82089Y23496D01*
G01X82154Y23497D01*
G01X82218Y23498D01*
G01X82229D01*
G01X82231Y23499D01*
G01X82236Y23500D01*
G01X82245Y23501D01*
G01X82265D01*
G01X82272Y23502D01*
G01X82276Y23504D01*
G01X82279Y23506D01*
G01X82281Y23508D01*
G01X82282Y23511D01*
G01Y23514D01*
G01Y23517D01*
G01X82279Y23525D01*
G01X82277Y23535D01*
G01X82271Y23564D01*
G01X82266Y23585D01*
G01X82265Y23589D01*
G01X82263Y23592D01*
G01X82261Y23595D01*
G01X82259Y23597D01*
G01X82255Y23600D01*
G01X82253Y23601D01*
G37*
G36*
G01X82976Y22658D02*
G01X82973Y22657D01*
G01X82970Y22656D01*
G01X82969Y22654D01*
G01X82962Y22649D01*
G01X82943Y22637D01*
G01X82932Y22628D01*
G01X82921Y22620D01*
G01X82916Y22617D01*
G01X82907Y22612D01*
G01X82904Y22610D01*
G01X82902Y22607D01*
G01X82900Y22603D01*
G01Y22601D01*
G01Y22598D01*
G01X82901Y22594D01*
G01X82902Y22592D01*
G01X82905Y22587D01*
G01X82908Y22583D01*
G01X82915Y22577D01*
G01X82921Y22571D01*
G01X82927Y22566D01*
G01X82932Y22559D01*
G01X82941Y22549D01*
G01X82948Y22539D01*
G01X82954Y22531D01*
G01X82961Y22524D01*
G01X82975Y22507D01*
G01X82984Y22494D01*
G01X82991Y22485D01*
G01X82997Y22478D01*
G01X83007Y22467D01*
G01X83011Y22462D01*
G01X83020Y22449D01*
G01X83032Y22433D01*
G01X83052Y22407D01*
G01X83064Y22391D01*
G01X83079Y22371D01*
G01X83088Y22358D01*
G01X83093Y22354D01*
G01X83098D01*
G01X83115Y22362D01*
G01X83123Y22367D01*
G01X83127Y22371D01*
G01X83136Y22378D01*
G01X83164Y22397D01*
G01X83166Y22399D01*
G01X83168Y22402D01*
G01X83169Y22404D01*
G01X83168Y22408D01*
G01X83165Y22414D01*
G01X83161Y22422D01*
G01X83136Y22457D01*
G01X83120Y22477D01*
G01X83109Y22493D01*
G01X83094Y22513D01*
G01X83084Y22526D01*
G01X83077Y22535D01*
G01X83073Y22540D01*
G01X83071Y22543D01*
G01X83069Y22546D01*
G01X83067Y22552D01*
G01X83065Y22555D01*
G01X83062Y22558D01*
G01X83056Y22562D01*
G01X83053Y22565D01*
G01X83051Y22568D01*
G01X83048Y22575D01*
G01X83046Y22578D01*
G01X83044Y22581D01*
G01X83038Y22585D01*
G01X83035Y22588D01*
G01X83033Y22591D01*
G01X83030Y22597D01*
G01X83029Y22600D01*
G01X83026Y22603D01*
G01X83019Y22608D01*
G01X83014Y22614D01*
G01X83008Y22622D01*
G01X83000Y22630D01*
G01X82994Y22637D01*
G01X82992Y22641D01*
G01X82989Y22648D01*
G01X82987Y22650D01*
G01X82985Y22653D01*
G01X82982Y22656D01*
G01X82978Y22657D01*
G37*
G36*
G01X82399Y22617D02*
G01X82396Y22617D01*
G01X82377Y22610D01*
G01X82329Y22591D01*
G01X82307Y22583D01*
G01X82291Y22577D01*
G01X82274Y22569D01*
G01X82261Y22565D01*
G01X82246Y22559D01*
G01X82229Y22552D01*
G01X82216Y22548D01*
G01X82207Y22544D01*
G01X82192Y22537D01*
G01X82180Y22533D01*
G01X82164Y22527D01*
G01X82152Y22522D01*
G01X82143Y22518D01*
G01X82129Y22514D01*
G01X82112Y22506D01*
G01X82104Y22503D01*
G01X82072Y22492D01*
G01X82064Y22489D01*
G01X82042Y22478D01*
G01X82029Y22474D01*
G01X82014Y22468D01*
G01X82002Y22463D01*
G01X81993Y22459D01*
G01X81979Y22455D01*
G01X81968Y22451D01*
G01X81960Y22448D01*
G01X81939Y22438D01*
G01X81913Y22428D01*
G01X81886Y22417D01*
G01X81882Y22414D01*
G01X81879Y22412D01*
G01X81877Y22410D01*
G01X81876Y22408D01*
G01Y22405D01*
G01X81877Y22402D01*
G01X81879Y22399D01*
G01X81880Y22397D01*
G01X81885Y22389D01*
G01X81889Y22380D01*
G01X81907Y22335D01*
G01X81908Y22333D01*
G01X81909Y22330D01*
G01X81911Y22329D01*
G01X81913Y22327D01*
G01X81915Y22326D01*
G01X81918D01*
G01X81920D01*
G01X81928Y22327D01*
G01X81938Y22331D01*
G01X81953Y22337D01*
G01X81966Y22342D01*
G01X81981Y22347D01*
G01X81998Y22355D01*
G01X82012Y22359D01*
G01X82020Y22363D01*
G01X82035Y22369D01*
G01X82048Y22374D01*
G01X82063Y22379D01*
G01X82080Y22387D01*
G01X82093Y22391D01*
G01X82101Y22394D01*
G01X82107Y22398D01*
G01X82116Y22402D01*
G01X82125Y22405D01*
G01X82140Y22411D01*
G01X82158Y22419D01*
G01X82171Y22424D01*
G01X82186Y22429D01*
G01X82204Y22437D01*
G01X82216Y22442D01*
G01X82231Y22448D01*
G01X82248Y22455D01*
G01X82261Y22459D01*
G01X82269Y22463D01*
G01X82277Y22467D01*
G01X82285Y22470D01*
G01X82303Y22476D01*
G01X82309Y22478D01*
G01X82314Y22481D01*
G01X82318Y22483D01*
G01X82325Y22487D01*
G01X82339Y22491D01*
G01X82348Y22494D01*
G01X82363Y22501D01*
G01X82375Y22505D01*
G01X82390Y22511D01*
G01X82402Y22517D01*
G01X82412Y22520D01*
G01X82423Y22523D01*
G01X82427Y22525D01*
G01X82430Y22527D01*
G01X82432Y22530D01*
G01Y22532D01*
G01X82433Y22534D01*
G01Y22536D01*
G01X82431Y22542D01*
G01X82426Y22555D01*
G01X82421Y22566D01*
G01X82417Y22583D01*
G01X82415Y22586D01*
G01X82413Y22589D01*
G01X82410Y22593D01*
G01X82409Y22595D01*
G01X82407Y22598D01*
G01X82406Y22602D01*
G01X82403Y22613D01*
G01X82401Y22616D01*
G37*
G36*
G01X82629Y22589D02*
G01X82626Y22589D01*
G01X82623Y22587D01*
G01X82604Y22576D01*
G01X82595Y22570D01*
G01X82591Y22567D01*
G01X82587Y22563D01*
G01X82580Y22558D01*
G01X82562Y22547D01*
G01X82552Y22539D01*
G01X82548Y22536D01*
G01X82547Y22533D01*
G01Y22529D01*
G01X82550Y22526D01*
G01X82561Y22515D01*
G01X82565Y22510D01*
G01X82575Y22499D01*
G01X82652Y22402D01*
G01X82664Y22387D01*
G01X82672Y22376D01*
G01X82680Y22367D01*
G01X82686Y22358D01*
G01X82693Y22350D01*
G01X82743Y22280D01*
G01X82746Y22278D01*
G01X82748Y22276D01*
G01X82751Y22275D01*
G01X82754Y22276D01*
G01X82762Y22280D01*
G01X82767Y22283D01*
G01X82773Y22287D01*
G01X82787Y22298D01*
G01X82805Y22309D01*
G01X82809Y22312D01*
G01X82816Y22319D01*
G01X82824Y22325D01*
G01X82825Y22326D01*
G01X82826Y22328D01*
G01Y22331D01*
G01X82825Y22333D01*
G01X82824Y22335D01*
G01X82823Y22337D01*
G01X82802Y22363D01*
G01X82791Y22379D01*
G01X82783Y22389D01*
G01X82778Y22396D01*
G01X82765Y22414D01*
G01X82757Y22426D01*
G01X82753Y22431D01*
G01X82741Y22448D01*
G01X82707Y22491D01*
G01X82695Y22507D01*
G01X82680Y22527D01*
G01X82670Y22539D01*
G01X82664Y22549D01*
G01X82657Y22556D01*
G01X82650Y22566D01*
G01X82641Y22576D01*
G01X82634Y22585D01*
G01X82632Y22588D01*
G37*
G36*
G01X82254Y22115D02*
G01X82241Y22114D01*
G01X82236Y22113D01*
G01X82231Y22112D01*
G01X82228Y22111D01*
G01X82220Y22110D01*
G01X82195D01*
G01X82190Y22109D01*
G01X82184Y22107D01*
G01X82172Y22106D01*
G01X82136D01*
G01X82126D01*
G01X82096Y22105D01*
G01X82089Y22104D01*
G01X82086Y22103D01*
G01X82077Y22101D01*
G01X82063Y22099D01*
G01X82032Y22094D01*
G01X82021Y22092D01*
G01X82015Y22090D01*
G01X82002Y22085D01*
G01X81993Y22082D01*
G01X81980Y22078D01*
G01X81972Y22074D01*
G01X81959Y22064D01*
G01X81956Y22062D01*
G01X81950Y22056D01*
G01X81942Y22047D01*
G01X81936Y22042D01*
G01X81933Y22039D01*
G01X81930Y22036D01*
G01X81927Y22031D01*
G01X81924Y22023D01*
G01X81916Y22001D01*
G01X81911Y21985D01*
G01X81907Y21966D01*
G01X81904Y21958D01*
G01Y21957D01*
G01Y21951D01*
G01X81902Y21726D01*
G01X81904Y21503D01*
G01Y21499D01*
G01X81905Y21498D01*
G01Y21497D01*
G01X81911Y21475D01*
G01X81913Y21467D01*
G01X81921Y21446D01*
G01X81925Y21435D01*
G01X81927Y21430D01*
G01X81932Y21422D01*
G01X81943Y21408D01*
G01X81948Y21403D01*
G01X81952Y21398D01*
G01X81956Y21394D01*
G01X81959Y21392D01*
G01X81977Y21381D01*
G01X81983Y21377D01*
G01X81990Y21374D01*
G01X81997Y21372D01*
G01X82004Y21369D01*
G01X82027Y21362D01*
G01X82029D01*
G01X82039Y21361D01*
G01X82127Y21360D01*
G01X82194D01*
G01X82231Y21358D01*
G01X82236D01*
G01X82252Y21355D01*
G01Y21176D01*
G01X82348D01*
G01X82349Y21325D01*
G01X82351Y21349D01*
G01X82352Y21353D01*
G01Y21354D01*
G01X82353D01*
G01X82355Y21355D01*
G01X82358Y21356D01*
G01X82369Y21357D01*
G01X82388Y21359D01*
G01X82466Y21360D01*
G01X82534Y21359D01*
G01X82573Y21357D01*
G01X82580D01*
G01X82584Y21355D01*
G01X82588Y21353D01*
G01X82590Y21351D01*
G01X82591Y21349D01*
G01Y21347D01*
G01Y21346D01*
G01X82590Y21339D01*
G01X82589Y21179D01*
G01X82689D01*
G01X82690Y21306D01*
G01X82692Y21340D01*
G01X82694Y21349D01*
G01X82695Y21353D01*
G01X82696Y21354D01*
G01X82697D01*
G01X82698Y21355D01*
G01X82702Y21356D01*
G01X82714Y21357D01*
G01X82733Y21359D01*
G01X82805Y21360D01*
G01X82869D01*
G01X82914Y21358D01*
G01X82918D01*
G01X82929Y21355D01*
G01Y21001D01*
G01X82818D01*
G01X82733Y21002D01*
G01X82703Y21003D01*
G01X82700D01*
G01X82694Y21006D01*
G01X82691Y21008D01*
G01Y21009D01*
G01X82690Y21015D01*
G01X82689Y21179D01*
G01X82589D01*
G01Y21171D01*
G01Y21001D01*
G01X82470D01*
G01X82368Y21002D01*
G01X82352Y21003D01*
G01X82350D01*
G01Y21004D01*
G01X82349Y21011D01*
G01X82348Y21176D01*
G01X82252D01*
G01Y21135D01*
G01X82253Y20941D01*
G01X82254Y20906D01*
G01X82257Y20892D01*
G01X82625D01*
G01X83000Y20894D01*
G01X83009D01*
G01X83025Y20897D01*
G01Y21122D01*
G01X83027Y21328D01*
G01X83029Y21348D01*
G01Y21352D01*
G01X83030Y21353D01*
G01X83031Y21354D01*
G01X83033Y21355D01*
G01X83036Y21356D01*
G01X83047Y21358D01*
G01X83065Y21359D01*
G01X83123Y21360D01*
G01X83211D01*
G01Y21401D01*
G01X83210Y21441D01*
G01X83209Y21450D01*
G01X83207Y21465D01*
G01X83025D01*
G01Y21692D01*
G01X83024Y21892D01*
G01X83023Y21928D01*
G01X83020Y21942D01*
G01X82648D01*
G01X82267Y21940D01*
G01X82263D01*
G01X82252Y21937D01*
G01Y21837D01*
G01X82348D01*
G01X82589D01*
G01Y21665D01*
G01Y21644D01*
G01X82689D01*
G01X82690Y21803D01*
G01X82691Y21824D01*
G01X82693Y21837D01*
G01X82929D01*
G01Y21465D01*
G01X82818D01*
G01X82733D01*
G01X82703Y21467D01*
G01X82700D01*
G01X82694Y21469D01*
G01X82691Y21472D01*
G01Y21473D01*
G01X82690Y21479D01*
G01X82689Y21644D01*
G01X82589D01*
G01X82590Y21489D01*
G01X82591Y21485D01*
G01X82592Y21482D01*
G01Y21478D01*
G01Y21475D01*
G01X82591Y21472D01*
G01Y21471D01*
G01X82590D01*
G01X82589Y21470D01*
G01X82574Y21468D01*
G01X82556Y21466D01*
G01X82470Y21465D01*
G01X82368Y21466D01*
G01X82352Y21467D01*
G01X82350D01*
G01Y21468D01*
G01X82349Y21474D01*
G01X82348Y21654D01*
G01Y21837D01*
G01X82252D01*
G01Y21465D01*
G01X82168D01*
G01X82139D01*
G01X82090Y21467D01*
G01X82077Y21468D01*
G01X82070Y21469D01*
G01X82057Y21473D01*
G01X82048Y21476D01*
G01X82043Y21478D01*
G01X82034Y21483D01*
G01X82027Y21489D01*
G01X82022Y21497D01*
G01X82020Y21500D01*
G01X82018Y21503D01*
G01X82015Y21510D01*
G01X82010Y21519D01*
G01X82009Y21521D01*
G01X82008Y21525D01*
G01X82007Y21531D01*
G01X82006Y21544D01*
G01X82005Y21554D01*
G01X82004Y21558D01*
G01Y21559D01*
G01X82003Y21567D01*
G01X82002Y21719D01*
G01Y21787D01*
G01X82004Y21877D01*
G01Y21881D01*
G01X82005Y21884D01*
G01X82006Y21892D01*
G01X82007Y21908D01*
G01X82009Y21921D01*
G01X82011Y21932D01*
G01X82013Y21938D01*
G01X82020Y21955D01*
G01X82023Y21964D01*
G01X82026Y21968D01*
G01X82029Y21972D01*
G01X82036Y21978D01*
G01X82042Y21983D01*
G01X82049Y21986D01*
G01X82056Y21989D01*
G01X82063Y21992D01*
G01X82090Y21999D01*
G01X82101Y22000D01*
G01X82147Y22001D01*
G01X82157Y22002D01*
G01X82161Y22004D01*
G01X82174Y22005D01*
G01X82209Y22006D01*
G01X82219D01*
G01X82249Y22007D01*
G01X82257D01*
G01X82263Y22009D01*
G01X82272Y22010D01*
G01X82284D01*
G01X82292Y22011D01*
G01X82298Y22012D01*
G01X82301Y22014D01*
G01X82302Y22017D01*
G01Y22019D01*
G01X82301Y22029D01*
G01X82298Y22040D01*
G01X82291Y22062D01*
G01X82288Y22072D01*
G01X82285Y22092D01*
G01X82283Y22099D01*
G01X82280Y22104D01*
G01X82279Y22106D01*
G01X82277Y22108D01*
G01X82273Y22111D01*
G01X82271Y22112D01*
G01X82268Y22113D01*
G01X82262Y22114D01*
G37*
G04 Text End*

G04 Rect Start*
G54D12*
G01X83439Y18796D02*
G01X86741Y18796D01*
G01Y25019D01*
G01X83439D01*
G01Y18796D01*
G04 Rect End*

M02*
