;TYPE=PLATED
;Layer: PTH_Through
;EasyEDA Pro v1.7.27, 2022-07-12 11:31:34
;Gerber Generator version 0.3
M48
METRIC,LZ,000.000
;Hole size 1 = 0.305 METRIC
T01C0.305
;Hole size 2 = 0.800 METRIC
T02C0.800
;Hole size 3 = 1.000 METRIC
T03C1.000
%
G05
G90
T01
X028160Y-027940
X032512Y-017780
T02
X036528Y-012319
X034528Y-012319
X032528Y-012319
X030528Y-012319
T03
X013589Y-007874
X013589Y-010414
X013589Y-012954
X013589Y-015494
X013589Y-018034
X013589Y-020574
X013589Y-023114
X013589Y-025654
X013589Y-028194
X013589Y-030734
X030226Y-030988
X032766Y-030988
X035306Y-030988
X037846Y-030988
X040386Y-030988
M30