G04 Layer: BottomLayer*
G04 EasyEDA Pro v1.7.27, 2022-07-12 11:31:34*
G04 Gerber Generator version 0.3*
G04 Scale: 100 percent, Rotated: No, Reflected: No*
G04 Dimensions in millimeters*
G04 Leading zeros omitted, absolute positions, 3 integers and 3 decimals*
%FSLAX33Y33*%
%MOMM*%
%ADD10C,1.524*%
%ADD11C,1.399997*%
%ADD12C,2.000001*%
%ADD13C,0.610001*%
%ADD14C,0.499999*%
%ADD15C,1.27*%
G75*


G04 Pad Start*
G54D10*
G01X36528Y-12319D03*
G36*
G01X35228Y-13019D02*
G01X35228Y-11619D01*
G01X33828D01*
G01Y-13019D01*
G01X35228D01*
G37*
G54D11*
G01X32528Y-12319D03*
G01X30528Y-12319D03*
G54D12*
G01X13589Y-7874D03*
G01X13589Y-10414D03*
G01X13589Y-12954D03*
G01X13589Y-15494D03*
G01X13589Y-18034D03*
G01X13589Y-20574D03*
G01X13589Y-23114D03*
G01X13589Y-25654D03*
G01X13589Y-28194D03*
G01X13589Y-30734D03*
G01X30226Y-30988D03*
G01X32766Y-30988D03*
G01X35306Y-30988D03*
G01X37846Y-30988D03*
G36*
G01X39386Y-29988D02*
G01X39386Y-31988D01*
G01X41386D01*
G01Y-29988D01*
G01X39386D01*
G37*
G04 Pad End*

G04 Via Start*
G54D13*
G01X28160Y-27940D03*
G01X32512Y-17780D03*
G04 Via End*

G04 Track Start*
G54D14*
G01X13970Y-20574D02*
G01X13589Y-20574D01*
G01X13737Y-15346D02*
G01X13589Y-15494D01*
G01X13589Y-18034D02*
G01X14605Y-17018D01*
G01X24511D01*
G54D15*
G01X34544Y-19812D02*
G01X37211Y-19812D01*
G01X32512Y-17780D02*
G01X34544Y-19812D01*
G54D14*
G01X28194Y-27940D02*
G01X21336Y-27940D01*
G01X13970Y-20574D01*
G54D15*
G01X37846Y-31115D02*
G01X37846Y-30288D01*
G01X38354Y-29780D01*
G01Y-20955D01*
G01X37211Y-19812D01*
G54D14*
G01X27559Y-12319D02*
G01X30528Y-12319D01*
G01X13589Y-12954D02*
G01X26924Y-12954D01*
G01X27559Y-12319D01*
G01X36528Y-13510D02*
G01X34692Y-15346D01*
G01X13737D01*
G01X36528Y-13510D02*
G01X36528Y-12319D01*
G01X32766Y-30734D02*
G01X32766Y-25273D01*
G01X24511Y-17018D01*
G04 Track End*

M02*
