;TYPE=PLATED
;Layer: PTH_Through
;EasyEDA Pro v1.7.24, 2022-06-27 15:35:27
;Gerber Generator version 0.3
M48
METRIC,LZ,000.000
;Hole size 1 = 0.305 METRIC
T01C0.305
;Hole size 2 = 0.800 METRIC
T02C0.800
;Hole size 3 = 1.001 METRIC
T03C1.001
;Hole size 4 = 1.200 METRIC
T04C1.200
%
G05
G90
T01
X019719Y-027763
X019730Y-011223
X029201Y-025208
T02
X038687Y-011176
X036687Y-011176
X034687Y-011176
X032687Y-011176
T03
X035560Y-030988
X038100Y-030988
X040640Y-030988
X030480Y-030988
X033020Y-030988
T04
X012745Y-030273
X012745Y-027733
X012745Y-025193
X012745Y-022653
X012745Y-020113
X012745Y-017573
X012745Y-015033
X012745Y-012493
X012745Y-009953
X012745Y-007413
M30