G04 Layer: BottomLayer*
G04 EasyEDA Pro v1.7.24, 2022-06-27 15:35:26*
G04 Gerber Generator version 0.3*
G04 Scale: 100 percent, Rotated: No, Reflected: No*
G04 Dimensions in millimeters*
G04 Leading zeros omitted, absolute positions, 3 integers and 3 decimals*
%FSLAX33Y33*%
%MOMM*%
%ADD10C,1.799996*%
%ADD11C,1.524*%
%ADD12C,1.399997*%
%ADD13C,1.6002*%
%ADD14C,0.610001*%
%ADD15C,0.254*%
G75*


G04 Pad Start*
G54D10*
G01X12745Y-30273D03*
G01X12745Y-27733D03*
G01X12745Y-25193D03*
G01X12745Y-22653D03*
G01X12745Y-20113D03*
G01X12745Y-17573D03*
G01X12745Y-15033D03*
G01X12745Y-12493D03*
G01X12745Y-9953D03*
G36*
G01X11845Y-8313D02*
G01X13645Y-8313D01*
G01Y-6513D01*
G01X11845D01*
G01Y-8313D01*
G37*
G54D11*
G01X38687Y-11176D03*
G36*
G01X37387Y-11876D02*
G01X37387Y-10476D01*
G01X35987D01*
G01Y-11876D01*
G01X37387D01*
G37*
G54D12*
G01X34687Y-11176D03*
G01X32687Y-11176D03*
G54D13*
G01X35560Y-30988D03*
G01X38100Y-30988D03*
G36*
G01X39840Y-30188D02*
G01X39840Y-31788D01*
G01X41440D01*
G01Y-30188D01*
G01X39840D01*
G37*
G01X30480Y-30988D03*
G01X33020Y-30988D03*
G04 Pad End*

G04 Via Start*
G54D14*
G01X19719Y-27763D03*
G01X19730Y-11223D03*
G01X29201Y-25208D03*
G04 Via End*

G04 Track Start*
G54D15*
G01X12745Y-17573D02*
G01X19719Y-24546D01*
G01Y-27763D01*
G01X12745Y-12493D02*
G01X18460Y-12493D01*
G01X19730Y-11223D01*
G01X34687Y-11176D02*
G01X34687Y-19722D01*
G01X29201Y-25208D01*
G04 Track End*

M02*
