;TYPE=PLATED
;Layer: PTH_Through
;EasyEDA Pro v1.7.24, 2022-06-27 14:19:49
;Gerber Generator version 0.3
M48
METRIC,LZ,000.000
;Hole size 1 = 0.305 METRIC
T01C0.305
;Hole size 2 = 0.800 METRIC
T02C0.800
;Hole size 3 = 0.914 METRIC
T03C0.914
;Hole size 4 = 1.000 METRIC
T04C1.000
;Hole size 5 = 1.000 METRIC
T05C1.000
;Hole size 6 = 1.001 METRIC
T06C1.001
;Hole size 7 = 1.200 METRIC
T07C1.200
;Hole size 8 = 1.500 METRIC
T08C1.500
;Hole size 9 = 1.524 METRIC
T09C1.524
%
G05
G90
T01
X029464Y071553
X070130Y062629
X073641Y060829
X070417Y051824
X063082Y051824
X036589Y053719
T02
X073739Y066802
X071739Y066802
X069739Y066802
X067739Y066802
T03
X101092Y053046
X101092Y050546
X101092Y048046
T04
X021844Y070104G85X021844Y070104
X024384Y070104G85X024384Y070104
X026924Y070104G85X026924Y070104
X029464Y070104G85X029464Y070104
X032004Y070104G85X032004Y070104
X034544Y070104G85X034544Y070104
X037084Y070104G85X037084Y070104
X021844Y047244G85X021844Y047244
X024384Y047244G85X024384Y047244
X026924Y047244G85X026924Y047244
X029464Y047244G85X029464Y047244
X032004Y047244G85X032004Y047244
X034544Y047244G85X034544Y047244
X037084Y047244G85X037084Y047244
X019304Y070104G85X019304Y070104
X019304Y047244G85X019304Y047244
T05
X079248Y068994
X079248Y060294
X079211Y047871
X079211Y056571
X101092Y061525
X101092Y071825
X083298Y070517
X083298Y047657
X097268Y047657
X097268Y070517
X094093Y047657
X086473Y047657
T06
X070463Y046355
X073003Y046355
X075543Y046355
X065383Y046355
X067923Y046355
T07
X047392Y047117
X047392Y049657
X047392Y052197
X047392Y054737
X047392Y057277
X047392Y059817
X047392Y062357
X047392Y064897
X047392Y067437
X047392Y069977
T08
X092964Y065405
T09
X092964Y061595
M30