G04 Layer: BottomSilkscreenLayer*
G04 EasyEDA Pro v1.7.24, 2022-06-27 15:34:45*
G04 Gerber Generator version 0.3*
G04 Scale: 100 percent, Rotated: No, Reflected: No*
G04 Dimensions in millimeters*
G04 Leading zeros omitted, absolute positions, 3 integers and 3 decimals*
%FSLAX33Y33*%
%MOMM*%
%ADD10C,0.151994*%
%ADD11C,0.152001*%
%ADD12C,0.254*%
G75*


G04 Text Start*
G04 //text: +*
G54D10*
G01X90767Y65507D02*
G01X90208Y65507D01*
G01X90488Y65227D02*
G01X90488Y65783D01*
G04 //text: -*
G54D11*
G01X90488Y61290D02*
G01X90488Y61846D01*
G04 //text: BT1*
G36*
G01X87900Y61323D02*
G01X87900Y60835D01*
G01X87936D01*
G01Y60871D01*
G01X87937Y60901D01*
G01X87938Y60913D01*
G01X87940Y60919D01*
G01X87941Y60929D01*
G01X87942Y60939D01*
G01X87943Y60944D01*
G01X87944Y60949D01*
G01X87950Y60959D01*
G01X87959Y60981D01*
G01X87962Y60987D01*
G01X87967Y60993D01*
G01X87972Y60998D01*
G01X87982Y61006D01*
G01X87988Y61009D01*
G01X87994Y61012D01*
G01X87999Y61014D01*
G01X88017Y61019D01*
G01X88022D01*
G01X88435Y61022D01*
G01X88856Y61019D01*
G01X88859D01*
G01X88865Y61018D01*
G01X88875Y61015D01*
G01X88885Y61011D01*
G01X88891Y61008D01*
G01X88896Y61004D01*
G01X88901Y60999D01*
G01X88906Y60993D01*
G01X88907Y60991D01*
G01X88908Y60986D01*
G01X88910Y60977D01*
G01X88911Y60968D01*
G01X88912Y60950D01*
G01X88913Y60908D01*
G01Y60835D01*
G01X88955D01*
G01Y60896D01*
G01X88956Y60930D01*
G01X88957Y60939D01*
G01Y60941D01*
G01X88960Y60952D01*
G01X88964Y60976D01*
G01X88966Y60984D01*
G01X88968Y60991D01*
G01X88971Y60999D01*
G01X88974Y61008D01*
G01X88981Y61022D01*
G01X88988Y61035D01*
G01X89008Y61063D01*
G01X89014Y61069D01*
G01X89019Y61074D01*
G01X89025Y61079D01*
G01X89037Y61088D01*
G01X89043Y61092D01*
G01X89051Y61096D01*
G01X89053Y61098D01*
G01X89055Y61100D01*
G01X89056Y61102D01*
G01X89057Y61105D01*
G01X89058Y61111D01*
G01X89059Y61131D01*
G01X88542D01*
G01X88049Y61134D01*
G01X88013Y61135D01*
G01X88009Y61136D01*
G01X88002Y61139D01*
G01X87994Y61142D01*
G01X87987Y61145D01*
G01X87981Y61149D01*
G01X87975Y61153D01*
G01X87970Y61157D01*
G01X87966Y61161D01*
G01X87963Y61165D01*
G01X87951Y61183D01*
G01X87949Y61187D01*
G01X87946Y61195D01*
G01X87942Y61212D01*
G01X87938Y61224D01*
G01X87937Y61238D01*
G01X87936Y61276D01*
G01Y61323D01*
G37*
G36*
G01X88804Y60578D02*
G01X88798Y60578D01*
G01X88793Y60577D01*
G01X88791Y60575D01*
G01X88789Y60570D01*
G01X88786Y60557D01*
G01Y60554D01*
G01Y60551D01*
G01X88787Y60548D01*
G01X88788Y60546D01*
G01X88790Y60543D01*
G01X88792Y60542D01*
G01X88795Y60540D01*
G01X88799Y60538D01*
G01X88816Y60532D01*
G01X88835Y60524D01*
G01X88851Y60519D01*
G01X88860Y60515D01*
G01X88866Y60511D01*
G01X88876Y60506D01*
G01X88885Y60502D01*
G01X88911Y60492D01*
G01X88917Y60489D01*
G01X88926Y60484D01*
G01X88932Y60479D01*
G01X88936Y60477D01*
G01X88940Y60475D01*
G01X88949Y60472D01*
G01X88953Y60470D01*
G01X88957Y60467D01*
G01X88963Y60460D01*
G01X88969Y60453D01*
G01X88977Y60447D01*
G01X88980Y60444D01*
G01X88982Y60439D01*
G01X88985Y60430D01*
G01X88989Y60419D01*
G01X88993Y60408D01*
G01X88995Y60402D01*
G01X88996Y60396D01*
G01X88997Y60380D01*
G01X88998Y60369D01*
G01X89000Y60360D01*
G01X89002Y60348D01*
G01Y60334D01*
G01X89000Y60322D01*
G01X88998Y60313D01*
G01X88997Y60303D01*
G01Y60289D01*
G01X88996Y60280D01*
G01X88994Y60273D01*
G01X88992Y60268D01*
G01X88988Y60266D01*
G01X88973Y60260D01*
G01X88969D01*
G01X88477Y60258D01*
G01X88010Y60261D01*
G01X87976Y60263D01*
G01X87973D01*
G01X87966Y60266D01*
G01X87960Y60269D01*
G01X87955Y60273D01*
G01X87952Y60276D01*
G01X87947Y60285D01*
G01X87941Y60296D01*
G01X87939Y60302D01*
G01X87938Y60312D01*
G01X87937Y60322D01*
G01X87936Y60344D01*
G01Y60383D01*
G01X87900D01*
G01Y60029D01*
G01X87936D01*
G01X87937Y60084D01*
G01X87939Y60105D01*
G01X87940Y60111D01*
G01X87942Y60120D01*
G01X87946Y60129D01*
G01X87949Y60132D01*
G01X87952Y60136D01*
G01X87955Y60139D01*
G01X87956D01*
G01X87959Y60140D01*
G01X87970Y60142D01*
G01X88000Y60144D01*
G01X88467Y60149D01*
G01X88968Y60147D01*
G01X88978Y60146D01*
G01X88984Y60145D01*
G01X88988Y60143D01*
G01X88992Y60140D01*
G01X88994Y60136D01*
G01X89000Y60116D01*
G01X89002Y60106D01*
G01Y60093D01*
G01X89000Y60083D01*
G01X88999Y60077D01*
G01X88997Y60069D01*
G01X88996Y60048D01*
G01X88995Y60036D01*
G01X88994Y60032D01*
G01X88991Y60022D01*
G01X88987Y60001D01*
G01X88985Y59995D01*
G01X88983Y59990D01*
G01X88978Y59982D01*
G01X88975Y59973D01*
G01X88972Y59966D01*
G01X88969Y59963D01*
G01X88966Y59959D01*
G01X88962Y59957D01*
G01X88939Y59940D01*
G01X88931Y59935D01*
G01X88914Y59926D01*
G01X88904Y59919D01*
G01X88894Y59914D01*
G01X88875Y59906D01*
G01X88856Y59897D01*
G01X88846Y59893D01*
G01X88831Y59889D01*
G01X88820Y59883D01*
G01X88815Y59881D01*
G01X88807Y59877D01*
G01X88799Y59876D01*
G01X88788Y59873D01*
G01X88786Y59868D01*
G01X88787Y59865D01*
G01X88788Y59862D01*
G01Y59858D01*
G01X88789Y59844D01*
G01X88790Y59840D01*
G01X88792Y59836D01*
G01X88793Y59835D01*
G01X88795Y59834D01*
G01X88797D01*
G01X88802D01*
G01X88817Y59836D01*
G01X88828Y59838D01*
G01X88843Y59842D01*
G01X88873Y59848D01*
G01X88890Y59853D01*
G01X88903Y59856D01*
G01X88933Y59863D01*
G01X88952Y59868D01*
G01X88981Y59874D01*
G01X88999Y59879D01*
G01X89012Y59883D01*
G01X89030Y59887D01*
G01X89043Y59889D01*
G01Y60206D01*
G01X89042Y60374D01*
G01X89039Y60506D01*
G01X89037Y60522D01*
G01X89036Y60526D01*
G01X89035Y60528D01*
G01X89033Y60529D01*
G01X89029Y60532D01*
G01X89019Y60534D01*
G01X89005Y60537D01*
G01X88993Y60540D01*
G01X88978Y60544D01*
G01X88954Y60548D01*
G01X88941Y60550D01*
G01X88927Y60554D01*
G01X88906Y60558D01*
G01X88894Y60561D01*
G01X88880Y60565D01*
G01X88855Y60568D01*
G01X88843Y60571D01*
G01X88827Y60575D01*
G01X88812Y60577D01*
G37*
G36*
G01X88202Y59723D02*
G01X88168Y59722D01*
G01X88155Y59721D01*
G01X88141Y59718D01*
G01X88114Y59714D01*
G01X88105Y59712D01*
G01X88098Y59710D01*
G01X88087Y59705D01*
G01X88062Y59694D01*
G01X88053Y59689D01*
G01X88043Y59684D01*
G01X88032Y59677D01*
G01X88028Y59674D01*
G01X88023Y59670D01*
G01X88015Y59664D01*
G01X88000Y59654D01*
G01X87994Y59649D01*
G01X87989Y59643D01*
G01X87983Y59637D01*
G01X87978Y59631D01*
G01X87968Y59616D01*
G01X87951Y59593D01*
G01X87946Y59585D01*
G01X87942Y59577D01*
G01X87926Y59545D01*
G01X87921Y59530D01*
G01X87913Y59507D01*
G01X87910Y59497D01*
G01X87907Y59473D01*
G01X87904Y59460D01*
G01X87903Y59455D01*
G01X87902Y59448D01*
G01X87901Y59289D01*
G01X87936D01*
G01X87938Y59359D01*
G01X87939Y59378D01*
G01X87940Y59388D01*
G01X87943Y59403D01*
G01X87947Y59418D01*
G01X87951Y59439D01*
G01X87953Y59446D01*
G01X87955Y59451D01*
G01X87959Y59457D01*
G01X87964Y59467D01*
G01X87970Y59482D01*
G01X87975Y59491D01*
G01X87980Y59495D01*
G01X87983Y59501D01*
G01X87990Y59513D01*
G01X87994Y59518D01*
G01X88001Y59525D01*
G01X88006Y59530D01*
G01X88013Y59536D01*
G01X88027Y59546D01*
G01X88045Y59558D01*
G01X88055Y59563D01*
G01X88073Y59571D01*
G01X88090Y59579D01*
G01X88099Y59582D01*
G01X88107Y59584D01*
G01X88124Y59586D01*
G01X88137Y59589D01*
G01X88145Y59591D01*
G01X88158Y59592D01*
G01X88199Y59593D01*
G01X88246Y59592D01*
G01X88257Y59591D01*
G01X88292Y59585D01*
G01X88301Y59584D01*
G01X88314Y59581D01*
G01X88327Y59577D01*
G01X88345Y59573D01*
G01X88351Y59572D01*
G01X88356Y59570D01*
G01X88362Y59566D01*
G01X88372Y59560D01*
G01X88387Y59554D01*
G01X88396Y59549D01*
G01X88400Y59545D01*
G01X88408Y59539D01*
G01X88423Y59529D01*
G01X88428Y59525D01*
G01X88432Y59521D01*
G01X88438Y59513D01*
G01X88456Y59490D01*
G01X88460Y59484D01*
G01X88464Y59478D01*
G01X88470Y59461D01*
G01X88479Y59442D01*
G01X88483Y59430D01*
G01X88488Y59413D01*
G01X88491Y59401D01*
G01X88492Y59394D01*
G01X88493Y59373D01*
G01X88494Y59361D01*
G01X88495Y59356D01*
G01X88496Y59354D01*
G01X88497Y59343D01*
G01X88498Y59266D01*
G01X88534D01*
G01X88535Y59345D01*
G01X88536Y59359D01*
G01X88537Y59362D01*
G01X88539Y59372D01*
G01X88543Y59396D01*
G01X88545Y59403D01*
G01X88547Y59409D01*
G01X88551Y59416D01*
G01X88556Y59425D01*
G01X88563Y59441D01*
G01X88568Y59450D01*
G01X88573Y59455D01*
G01X88575Y59458D01*
G01X88577Y59462D01*
G01X88580Y59470D01*
G01X88582Y59473D01*
G01X88585Y59476D01*
G01X88589Y59479D01*
G01X88596Y59485D01*
G01X88604Y59495D01*
G01X88611Y59502D01*
G01X88618Y59507D01*
G01X88629Y59516D01*
G01X88632Y59519D01*
G01X88640Y59523D01*
G01X88655Y59529D01*
G01X88674Y59538D01*
G01X88686Y59542D01*
G01X88704Y59546D01*
G01X88716Y59549D01*
G01X88729Y59551D01*
G01X88768D01*
G01X88789D01*
G01X88822Y59550D01*
G01X88833Y59549D01*
G01X88841Y59548D01*
G01X88854Y59545D01*
G01X88868Y59541D01*
G01X88886Y59537D01*
G01X88891Y59535D01*
G01X88896Y59533D01*
G01X88909Y59525D01*
G01X88923Y59517D01*
G01X88927Y59514D01*
G01X88931Y59511D01*
G01X88937Y59504D01*
G01X88943Y59497D01*
G01X88954Y59488D01*
G01X88960Y59481D01*
G01X88972Y59464D01*
G01X88977Y59454D01*
G01X88982Y59442D01*
G01X88991Y59416D01*
G01X88999Y59393D01*
G01X89001Y59385D01*
G01X89002Y59370D01*
G01X89003Y59361D01*
G01X89005Y59354D01*
G01X89006Y59341D01*
G01X89007Y59294D01*
G01X89006Y59242D01*
G01X89005Y59231D01*
G01X89003Y59220D01*
G01X89000Y59210D01*
G01X88997Y59201D01*
G01X88993Y59195D01*
G01X88990Y59190D01*
G01X88987Y59186D01*
G01X88983Y59183D01*
G01X88976Y59178D01*
G01X88968Y59175D01*
G01X88967Y59174D01*
G01X88959D01*
G01X88750Y59172D01*
G01X88540Y59174D01*
G01X88537Y59175D01*
G01X88536D01*
G01Y59177D01*
G01X88535Y59188D01*
G01X88534Y59266D01*
G01X88498D01*
G01Y59261D01*
G01Y59172D01*
G01X88251D01*
G01X88034Y59173D01*
G01X87994Y59174D01*
G01X87991Y59175D01*
G01X87980Y59177D01*
G01X87970Y59180D01*
G01X87966Y59181D01*
G01X87959Y59186D01*
G01X87953Y59189D01*
G01X87951Y59191D01*
G01X87950Y59193D01*
G01X87947Y59197D01*
G01X87945Y59203D01*
G01X87942Y59217D01*
G01X87939Y59222D01*
G01X87938Y59224D01*
G01X87937Y59236D01*
G01X87936Y59289D01*
G01X87901D01*
G01X87900Y59198D01*
G01Y58949D01*
G01X87936D01*
G01Y58972D01*
G01X87937Y58996D01*
G01X87939Y59019D01*
G01X87940Y59025D01*
G01X87942Y59035D01*
G01X87946Y59043D01*
G01X87949Y59047D01*
G01X87952Y59050D01*
G01X87955Y59053D01*
G01X87956D01*
G01X87959Y59054D01*
G01X87970Y59056D01*
G01X88000Y59058D01*
G01X88467Y59063D01*
G01X88941Y59060D01*
G01X88975Y59059D01*
G01X88978Y59058D01*
G01X88984Y59055D01*
G01X88990Y59051D01*
G01X88995Y59046D01*
G01X88999Y59040D01*
G01X89001Y59036D01*
G01X89004Y59028D01*
G01X89006Y59016D01*
G01X89007Y59007D01*
G01Y58965D01*
G01X89043D01*
G01Y59185D01*
G01X89041Y59414D01*
G01Y59429D01*
G01X89039Y59440D01*
G01X89037Y59456D01*
G01X89033Y59470D01*
G01X89029Y59492D01*
G01X89026Y59504D01*
G01X89022Y59515D01*
G01X89016Y59533D01*
G01X89012Y59541D01*
G01X89002Y59562D01*
G01X88999Y59567D01*
G01X88994Y59575D01*
G01X88988Y59583D01*
G01X88973Y59605D01*
G01X88967Y59611D01*
G01X88958Y59617D01*
G01X88936Y59634D01*
G01X88929Y59639D01*
G01X88922Y59642D01*
G01X88913Y59646D01*
G01X88887Y59655D01*
G01X88864Y59663D01*
G01X88855Y59665D01*
G01X88841Y59666D01*
G01X88831Y59667D01*
G01X88826Y59669D01*
G01X88819Y59670D01*
G01X88811Y59671D01*
G01X88794D01*
G01X88776D01*
G01X88762Y59670D01*
G01X88748Y59667D01*
G01X88707Y59662D01*
G01X88698Y59660D01*
G01X88691Y59658D01*
G01X88680Y59653D01*
G01X88650Y59640D01*
G01X88620Y59621D01*
G01X88613Y59617D01*
G01X88607Y59612D01*
G01X88602Y59607D01*
G01X88596Y59601D01*
G01X88581Y59580D01*
G01X88564Y59556D01*
G01X88561Y59551D01*
G01X88558Y59545D01*
G01X88549Y59527D01*
G01X88543Y59516D01*
G01X88538Y59505D01*
G01X88531Y59487D01*
G01X88529Y59482D01*
G01X88526Y59478D01*
G01X88524Y59476D01*
G01X88521D01*
G01X88519D01*
G01X88517Y59478D01*
G01X88516Y59481D01*
G01X88512Y59490D01*
G01X88503Y59510D01*
G01X88499Y59525D01*
G01X88495Y59535D01*
G01X88491Y59541D01*
G01X88486Y59550D01*
G01X88479Y59566D01*
G01X88476Y59572D01*
G01X88473Y59577D01*
G01X88466Y59588D01*
G01X88460Y59597D01*
G01X88457Y59605D01*
G01X88455Y59608D01*
G01X88452Y59611D01*
G01X88445Y59616D01*
G01X88442Y59620D01*
G01X88440Y59623D01*
G01X88437Y59629D01*
G01X88436Y59631D01*
G01X88433Y59635D01*
G01X88428Y59640D01*
G01X88416Y59650D01*
G01X88398Y59663D01*
G01X88387Y59672D01*
G01X88383Y59675D01*
G01X88376Y59679D01*
G01X88358Y59686D01*
G01X88347Y59693D01*
G01X88343Y59695D01*
G01X88335Y59698D01*
G01X88329Y59700D01*
G01X88316Y59703D01*
G01X88303Y59709D01*
G01X88293Y59712D01*
G01X88285Y59714D01*
G01X88269Y59716D01*
G01X88255Y59719D01*
G01X88248Y59721D01*
G01X88235Y59722D01*
G37*
G04 Text End*

G04 Rect Start*
G54D12*
G01X89662Y59055D02*
G01X95123Y59055D01*
G01Y68072D01*
G01X89662D01*
G01Y59055D01*
G04 Rect End*

M02*
